<?xml version="1.0" standalone="no"?>
<!DOCTYPE svg PUBLIC "-//W3C//DTD SVG 1.1//EN" "http://www.w3.org/Graphics/SVG/1.1/DTD/svg11.dtd" >
<svg xmlns="http://www.w3.org/2000/svg" xmlns:xlink="http://www.w3.org/1999/xlink" version="1.1">
<metadata></metadata>
<defs>
<font id="ingatregular" horiz-adv-x="1265" >
<font-face units-per-em="2048" ascent="1638" descent="-410" />
<missing-glyph horiz-adv-x="508" />
<glyph unicode="&#xd;" horiz-adv-x="508" />
<glyph horiz-adv-x="0" />
<glyph horiz-adv-x="0" />
<glyph unicode=" "  horiz-adv-x="508" />
<glyph unicode="&#x09;" horiz-adv-x="508" />
<glyph unicode="&#xa0;" horiz-adv-x="508" />
<glyph unicode="!" horiz-adv-x="503" d="M203 -13q-30 0 -58 16q-61 35 -61 88q0 1 1 29.5t52 73.5q56 51 108 51q21 0 43 -9q72 -30 72 -104q0 -34 -22 -68q-32 -48 -86 -68q-24 -9 -49 -9zM203 304q-27 0 -48 20q-36 33 -36 108q0 54 13 158q36 292 37 518v97q0 87 14 156q15 79 63 115q35 26 69 26q14 0 45 -9 t47 -83q5 -21 5 -61q0 -117 -15 -311q-8 -110 -19 -207q-19 -163 -19 -251v-75q0 -49 -12 -86.5t-46 -68.5q-49 -46 -98 -46z" />
<glyph unicode="&#x22;" horiz-adv-x="646" d="M114 844q-66 0 -73 59q-2 19 -2 38t3 44q9 94 9 172q0 63 -7 118q-10 72 -10 97q0 77 61 112q41 23 93 23q8 0 29 -0.5t41 -39.5q16 -31 16 -160q0 -97 -4.5 -153.5t-4.5 -95.5q0 -29 4 -50q6 -40 6 -50q0 -44 -48 -76q-57 -38 -113 -38zM454 844q-65 0 -72 59 q-3 19 -3 38t3 44q10 94 10 172q0 63 -8 118q-9 72 -9 97q0 77 60 112q42 23 93 23q9 0 30 -0.5t41 -39.5q16 -31 16 -160q0 -97 -4.5 -153.5t-4.5 -95.5q0 -29 3 -50q7 -40 7 -50q0 -44 -48 -76q-57 -38 -114 -38z" />
<glyph unicode="#" horiz-adv-x="1373" d="M981 -54q-26 0 -59 23q-69 46 -69 142q0 59 19 173q14 88 14 106q0 25 -9 47.5t-82 23.5q-109 1 -217 10q-53 5 -90 5q-18 0 -31 -5q-36 -13 -43 -98q-4 -46 -4 -102q0 -243 -88 -243q-18 0 -40 9q-62 25 -79 72q-11 30 -11 63q0 55 36 170q18 60 18 98q0 5 -1 29.5 t-82 28.5q-44 2 -89.5 13t-66.5 52q-7 14 -7 26q0 54 156 54h53q27 0 45 10q29 16 29 216q0 25 -2 35q-7 25 -32.5 36t-58 17.5t-63.5 18.5t-51 40q-12 16 -12 29q0 33 108 45q67 7 90 27q31 26 33 78l1 42q0 45 -10 113q-7 41 -7 74q0 49 30 71q24 17 52 17q10 0 35 -4.5 t52 -48.5q22 -37 26 -97q3 -49 3 -128v-41q0 -65 13 -98q9 -7 231 -20q33 -2 63 -5q86 -9 156 -9q6 38 9 77q10 122 22 244q1 7 1 16q1 22 7 44q10 42 84 42q20 0 51.5 -9t51.5 -61q17 -44 17 -90l-1 -55q-1 -17 -21 -144v-19q0 -32 22.5 -47t61.5 -23q32 -7 62 -22t45 -51 q8 -17 8 -26q0 -31 -34 -38q-27 -6 -62 -6l-54 1q-22 0 -46.5 -1.5t-39.5 -13.5t-28 -125q-11 -62 -11 -87q0 -60 52 -77q39 -14 85 -17q34 -2 59 -10q30 -10 44 -50q10 -26 10 -47q0 -38 -35 -38q-30 0 -68.5 7t-78.5 7q-5 0 -28.5 -0.5t-42.5 -31.5t-22 -92q-1 -41 -1 -86 l1 -104q0 -55 -7 -96q-15 -86 -72 -86zM782 604q60 0 83 6q29 9 38 81q18 121 18 143q0 21 -8.5 45t-79.5 29q-51 3 -213 23q-52 6 -69 7q-30 0 -45 -11q-29 -20 -40 -83q-6 -34 -6 -70q0 -108 39 -141q35 -29 283 -29z" />
<glyph unicode="$" horiz-adv-x="1397" d="M718 -305q-32 0 -71 25q-76 49 -91 108q-11 42 -11 82q0 16 1.5 29.5t1.5 25.5q0 17 -2 36q-4 43 -68 57q-40 8 -111 13q-53 3 -107 11q-158 25 -226 141q-22 37 -22 68q0 26 13 47q22 36 73 36q17 0 36 -5q59 -14 93 -44q75 -69 248 -69q34 0 55 12q39 24 41 110l8 249 q0 20 -4 30q-11 24 -66 44q-112 41 -185 92t-127 170q-23 49 -23 102q0 141 46 225q40 73 114.5 119t182.5 90q29 12 40 29.5t16 39.5q19 78 86 98q75 0 102 -37q29 -41 43 -116l5 -26q5 -25 18 -31t65 -19q32 -8 62 -18q70 -25 141 -93q42 -41 66 -90q12 -25 12 -47 t-11 -42q-18 -30 -58 -30q-29 0 -70 23t-76 53q-16 13 -45 29q-43 24 -69 24q-12 0 -19 -7q-7 -30 -7 -81l2 -189q1 -65 19 -77q29 -21 109 -33q48 -7 95 -20q178 -48 274 -208q46 -77 46 -166q0 -154 -109 -251q-96 -86 -225 -121q-52 -14 -197 -40q-7 -2 -13.5 -3 t-10.5 -3q-3 -20 -3 -40q0 -29 1 -43q3 -50 3 -100q0 -37 -8.5 -85t-46.5 -73q-17 -11 -36 -11zM557 902q20 0 25 61q2 36 2 121v122t-18 60q-9 0 -15 -2q-66 -20 -103 -93q-29 -58 -29 -112q0 -14 4 -27q19 -61 69 -99q41 -31 65 -31zM842 279q25 0 57 10q79 24 154.5 74.5 t75.5 145.5q0 100 -132 151q-54 21 -110 21q-42 0 -68 -26q-19 -19 -19 -309q0 -30 6 -48.5t36 -18.5z" />
<glyph unicode="%" horiz-adv-x="1348" d="M424 699h-45q-154 0 -234 92q-102 117 -102 316q0 314 362 314q93 0 147 -30q101 -59 101 -230q0 -51 -6 -89q-36 -214 -124 -325q-35 -44 -99 -48zM322 863q19 0 43.5 24.5t47 88t34.5 125.5q10 53 10 81q0 69 -66 94q-33 13 -57 13q-86 0 -96 -165q-3 -61 -3 -91 q0 -25 3 -70.5t46 -82.5q20 -17 38 -17zM253 -51q-19 0 -51 14t-54 53q-11 19 -11 37q0 20 13 39q379 539 508 717q82 112 145 232q66 126 160 259q20 29 39 63q60 109 121 109q10 0 41.5 -8t51.5 -66q9 -26 9 -51q0 -55 -40 -119q-224 -356 -355 -536q-86 -118 -170 -237 q-106 -151 -216 -298q-14 -18 -39 -54q-86 -125 -111 -141q-19 -13 -41 -13zM1088 -17q-32 0 -71 5q-103 15 -173.5 60.5t-92.5 152.5q-16 75 -16 170q0 85 36 150q44 78 133 118q71 32 142 32q36 0 57 -7q70 -23 115 -117q62 -134 62 -294q0 -151 -61 -222 q-42 -48 -131 -48zM1015 154q17 0 35.5 22t26.5 78q3 22 3 45q0 108 -54 148q-10 8 -20 8q-16 0 -30.5 -17.5t-22 -51t-10 -58.5t-2.5 -49q0 -19 3.5 -51.5t37.5 -59.5q18 -14 33 -14z" />
<glyph unicode="&#x26;" horiz-adv-x="1659" d="M700 -145h-78q-96 3 -149 7q-138 11 -254 80.5t-169 186.5q-27 59 -27 127q0 66 28 139q34 88 229 239q103 80 155 111q113 67 113 132q0 44 -46 101q-57 71 -57 139q0 107 61.5 177.5t157.5 103.5q83 28 166 28q12 0 66.5 -3t118.5 -44q96 -60 96 -177q0 -107 -74 -234 q-27 -48 -45 -69.5t-38.5 -39.5t-52 -50t-31.5 -59l1 -18q2 -24 114 -165q152 -196 191 -244q26 -31 59 -50q12 -7 24 -7q21 0 43 23q37 39 63 114q28 81 28 161q0 25 -5 57.5t-5 65.5q0 23 5.5 60t74.5 37q53 0 87.5 -34.5t42.5 -88.5q7 -42 7 -86q0 -221 -116 -399 q-29 -44 -29 -59q0 -7 5.5 -17t46.5 -58q34 -40 34 -70q0 -22 -27 -41q-16 -12 -29 -12q-22 0 -75 25q-67 32 -115 32q-29 0 -61 -14q-248 -107 -534 -107zM727 940q38 0 94 70q89 113 89 192q0 3 -1 26.5t-53 32.5h-8q-50 0 -100 -27q-94 -51 -94 -146q0 -75 34 -125 q17 -23 39 -23zM733 29q205 0 358 64q41 18 41 44v13q-1 14 -24 41q-37 44 -50 50q-108 105 -213 250q-32 44 -56 87q-44 76 -88 76q-25 0 -58 -18q-106 -57 -200 -133q-165 -133 -192 -237q-4 -13 -4 -26q0 -54 66 -99q165 -112 420 -112z" />
<glyph unicode="'" horiz-adv-x="307" d="M114 844q-66 0 -73 59q-2 19 -2 38t3 44q9 94 9 172q0 63 -7 118q-10 72 -10 97q0 77 61 112q41 23 93 23q8 0 29 -0.5t41 -39.5q16 -31 16 -160q0 -97 -4.5 -153.5t-4.5 -95.5q0 -29 4 -50q6 -40 6 -50q0 -44 -48 -76q-57 -38 -113 -38z" />
<glyph unicode="(" horiz-adv-x="577" d="M481 -241q-35 0 -79 34q-31 23 -49 42q-127 140 -191 318q-82 229 -82 401q0 99 19 222q28 186 85 337t153 311q49 81 106 140q45 45 110 45q15 0 31 -3q88 -19 88 -86q0 -34 -25 -74q-35 -53 -78 -106q-36 -46 -68 -93q-72 -107 -127 -267t-67 -294q-7 -81 -7 -156 q0 -177 23 -289q22 -106 102 -214q110 -148 110 -211q0 -22 -13 -36q-17 -21 -41 -21z" />
<glyph unicode=")" horiz-adv-x="610" d="M58 -241q-15 0 -31 3q-89 19 -89 86q0 34 26 75q35 53 78 106q36 46 67 92q73 108 128 268t67 294q7 81 7 156q0 177 -23 289q-22 106 -103 214q-109 147 -109 211q0 21 13 36q17 20 41 20q35 0 79 -33q31 -23 48 -43q128 -139 191 -317q82 -229 82 -401q0 -100 -18 -222 q-28 -186 -85 -337t-153 -311q-49 -81 -106 -140q-45 -46 -110 -46z" />
<glyph unicode="*" horiz-adv-x="860" d="M467 684q-19 0 -42 19q-68 53 -68 116q0 21 -8 21q-14 0 -153 -80q-27 -16 -61 -16q-2 0 -21 0.5t-47 18.5q-45 28 -45 61q0 20 23 39q64 52 137 83q65 27 109 61q15 12 15 23q0 19 -43 44q-63 36 -156 113q-76 64 -76 112q0 26 22 40t46 14q43 0 88 -39q30 -25 76 -66 q65 -57 89 -57q23 0 23 74q0 56 5 94t28 56q11 9 29 9q19 0 47 -12q47 -19 56 -57q8 -32 8 -96q0 -51 14 -51t52 35q19 18 41 34q32 24 69 24q40 0 72 -29q17 -15 17 -36q-6 -66 -46 -102q-35 -31 -80 -55q-77 -41 -77 -65l3 -15q6 -24 86 -64l65 -33q103 -52 103 -116v-17 q0 -14 -20 -26t-44 -12q-72 0 -193 91q-51 37 -64 37q-16 0 -16 -72q0 -13 1 -15q0 -28 -15 -56q-17 -32 -49 -32z" />
<glyph unicode="+" horiz-adv-x="871" d="M466 223q-20 0 -60 23q-60 34 -78 69q-13 25 -13 65q0 44 5 111q0 21 -4 46.5t-48 39.5q-39 13 -68 13t-53 -4q-20 -4 -41 -4q-15 0 -42 4t-82 49q-31 25 -31 44q0 32 71 43q37 6 114 8q20 1 37 3q74 6 97.5 6t24.5 17l-1 74q-2 70 -2 101q0 126 24 139t57 13 q88 0 107 -68q17 -61 18 -134q0 -44 6 -75q11 -55 68 -65q41 -8 80 -8l115 1q26 0 45 -2q32 -3 51 -31q28 -39 28 -66q0 -13 -13 -31.5t-86 -19.5q-240 0 -261.5 -2t-31.5 -22q-8 -15 -8 -158v-123q0 -56 -25 -56z" />
<glyph unicode="," horiz-adv-x="369" d="M84 -176h-6q-27 0 -27 9q0 10 50 43q23 16 44 33q34 27 34 56q0 40 -85 81q-36 18 -64.5 40.5t-28.5 56.5q0 61 52 95q64 41 141 41q79 0 129 -38q46 -35 46 -108q0 -22 -4 -46q-45 -255 -281 -263z" />
<glyph unicode="-" horiz-adv-x="409" d="M205 372q-150 0 -176 4q-32 4 -72 28t-61 56q-9 13 -9 26q0 16 18 30q33 27 284 27q100 0 147 -10q66 -13 87 -63q7 -16 7 -30q0 -29 -30 -47q-34 -21 -195 -21z" />
<glyph unicode="." horiz-adv-x="301" d="M190 -71q-97 0 -150 49q-41 39 -41 96q21 114 156 114q35 0 69 -10q107 -28 108 -141q0 -68 -58 -92q-39 -16 -84 -16z" />
<glyph unicode="/" horiz-adv-x="699" d="M128 -58q-18 0 -41 9q-58 24 -70 64q-5 18 -5 36q0 49 44 139q29 57 89 213q53 136 117 265q113 226 192 439q77 208 124 275q26 37 56 37q13 0 42.5 -15.5t49.5 -63.5q8 -21 8 -46q0 -73 -76 -234q-19 -40 -31 -70q-83 -219 -189 -429q-118 -232 -214 -514 q-36 -105 -96 -105z" />
<glyph unicode="0" horiz-adv-x="1103" d="M494 204q72 0 145 76q148 153 148 511l1 91q0 59 -13 123.5t-80 93.5q-36 16 -77 16q-29 0 -83 -11.5t-89 -71.5q-50 -84 -61 -241q-10 -144 -10 -265q0 -49 -3 -87q-2 -29 -2 -59t4 -75t47 -76q36 -25 73 -25zM566 -15h-14q-112 0 -234 64q-200 106 -205 322v76 q0 96 13 356q9 168 32 240q45 140 138 207q106 76 297 76q105 0 214 -35q231 -74 231 -515q0 -353 -120 -563q-126 -221 -352 -228z" />
<glyph unicode="1" horiz-adv-x="494" d="M317 12q-47 0 -105.5 40t-67.5 83q-5 28 -5 123l3 608q0 23 -2 69q-3 89 -3 192q0 104 19 138q24 41 70 41q13 0 53 -8.5t74 -68.5q27 -47 31 -137q3 -60 3 -112q0 -83 -6 -307q-5 -186 -5 -334q0 -79 10 -159q4 -32 4 -76q0 -92 -73 -92z" />
<glyph unicode="2" horiz-adv-x="827" d="M276 15q-80 0 -159.5 20.5t-102.5 97.5q-4 12 -4 25q0 71 106 173q38 36 115 118q29 32 61 62q256 231 256 399q0 80 -35 149q-31 58 -94 81q-21 8 -38 8q-34 0 -76 -27q-36 -23 -89 -23q-80 0 -130 69q-18 25 -18 50q0 48 50 82q81 56 281 56q128 0 197.5 -67 t126.5 -181q69 -137 69 -272q0 -34 -10 -87q-17 -90 -155 -252l-51 -60q-44 -51 -90 -91q-90 -79 -90 -97q0 -11 34 -11q26 0 67 4q25 3 51 3q47 0 88 -21q47 -24 47 -83t-50.5 -79.5t-135.5 -30.5q-123 -15 -221 -15z" />
<glyph unicode="3" horiz-adv-x="880" d="M151 4q-36 0 -100 38q-78 46 -78 97q0 40 70 67q49 19 145 39.5t198 51.5t143 80.5t41 102.5q0 29 -16 57q-19 33 -103 33h-9q-56 0 -108.5 11t-98.5 62q-28 32 -28 58q0 44 76 88q28 16 59 32q69 35 127.5 81.5t77.5 124.5q3 15 3 27q0 52 -42.5 77.5t-108.5 26.5 q-43 0 -91 -3q-35 -3 -71 -3q-35 0 -87 4.5t-107 51.5q-35 30 -35 59q0 103 256 103q43 0 145.5 -6.5t194.5 -48.5q81 -38 131 -117q55 -88 55 -187q0 -83 -49 -153q-41 -57 -96 -95q-28 -20 -28 -30q0 -9 23 -20q70 -34 112 -95q77 -115 77 -222q0 -42 -22 -108t-125 -121 q-91 -48 -261 -105t-270 -58z" />
<glyph unicode="4" horiz-adv-x="1154" d="M872 27q-25 0 -58 17q-63 33 -79 89q-9 33 -9 70q0 60 35 179q26 86 26 124q0 57 -64 57q-30 0 -105 -8q-55 -5 -133 -5l-112 1l-138 -1q-33 0 -76.5 5.5t-80 34.5t-36.5 92q0 52 36 99q32 41 70 78q43 41 105 114q286 332 437 332q54 0 89 -35l1 -2q35 -43 35 -80 q0 -8 -5 -33q-9 -47 -119 -131q-273 -215 -273 -261q17 -16 103 -16q266 0 291 45q15 28 19 80q1 3 3 58q4 69 16.5 150.5t49.5 127.5q21 27 56 27q67 0 115 -66q25 -34 25 -79q0 -107 -23 -226q-19 -98 -29 -227q-10 -115 -40 -286q-13 -74 -24 -150q-17 -128 -73 -164 q-15 -10 -35 -10z" />
<glyph unicode="5" horiz-adv-x="1011" d="M352 -33q-54 0 -108 26q-68 32 -68 94q0 74 243 124q43 9 121 36q132 47 149 154q4 24 4 54q0 102 -25 182q-35 112 -145 112q-93 0 -168 -57q-51 -39 -83 -39q-35 0 -78 18q-79 32 -94 88q-7 27 -7 55q0 40 7.5 81.5t8.5 82.5q1 89 5 150q9 134 150 146q38 3 76 3 q43 0 85 -1q168 -5 337 -5q50 0 100.5 -12t78.5 -72q12 -25 12 -46q0 -31 -23 -50q-35 -29 -90 -29q-279 5 -338 5q-11 0 -52.5 -0.5t-66.5 -21.5q-13 -12 -26 -41q-16 -36 -16 -62q0 -25 29 -25q24 0 51 7q92 22 172 22q36 0 72 -4q1 0 1 -1q197 -57 252 -343 q23 -122 23 -225q0 -92 -37 -152t-115 -112q-74 -48 -210.5 -94.5t-226.5 -47.5z" />
<glyph unicode="6" horiz-adv-x="904" d="M398 234q158 0 205 174q11 43 11 80q0 25 -6 47q-10 33 -45 61q-54 43 -104 43q-23 0 -39 -13q-24 -21 -49.5 -80t-43.5 -122.5t-18 -96.5q0 -93 89 -93zM456 22q-38 0 -141.5 16t-210.5 138q-52 60 -52 176q0 29 4 56q25 146 102 302.5t161 298.5q32 55 60 106 q90 168 191 168q32 0 67 -16q70 -30 70 -83q0 -6 -5 -39t-46 -90q-15 -22 -45 -70t-54.5 -94.5t-24.5 -67.5q0 -22 78 -41l40 -13q211 -74 211 -309q0 -12 -3.5 -73.5t-47.5 -164.5q-15 -35 -52 -74q-120 -126 -302 -126z" />
<glyph unicode="7" horiz-adv-x="798" d="M376 -48q-30 0 -68 21q-54 29 -67 81q-8 30 -8 63q0 61 33 190q57 221 57 294q0 10 -33 10l-13 -1q-91 0 -132 50q-23 28 -23 57q0 14 11.5 43t87.5 32.5t111.5 11.5t53 42t41.5 112q15 51 15 77q0 17 -7 24q-11 11 -43 11q-130 -3 -161 -3q-41 0 -83 5q-29 3 -66 23.5 t-61 50.5q-20 24 -20 50q0 8 3 15q4 13 46 34q67 32 243 32q161 0 271 -9q145 -13 145 -149q0 -59 -42 -167q-28 -71 -32 -126q13 -5 51 -6l20 -2q54 -4 82 -49q14 -22 14 -44q0 -16 -8 -31q-32 -61 -177 -61q-24 -1 -28 -6q-16 -16 -53 -200q-35 -179 -55 -327 q-11 -80 -51 -124q-21 -24 -54 -24z" />
<glyph unicode="8" horiz-adv-x="1039" d="M573 747q34 26 117 132q69 90 69 131q0 30 -40 30q-54 0 -121 -31q-95 -45 -95 -107q0 -45 39 -111q21 -36 31 -44zM539 -90q-58 0 -111 1q-171 3 -300 179q-85 115 -85 241q0 120 64 241q34 65 99 107q33 21 69 21q33 0 67 -20q61 -36 61 -84q0 -6 -5.5 -37t-46.5 -85 q-71 -94 -71 -197q0 -67 45 -114q54 -55 164 -55q78 0 127 32q46 29 46 80q0 99 -186 322q-54 65 -103.5 133.5t-82.5 146.5q-29 69 -29 129q0 130 139 215q151 93 281 93q120 0 213 -78l24 -21q100 -92 100 -203q0 -40 -14 -83q-54 -171 -249 -253q-52 -22 -56 -28 q0 -13 74 -115q64 -87 103 -183q24 -58 24 -119q0 -45 -13 -90q-48 -168 -279 -174z" />
<glyph unicode="9" horiz-adv-x="1064" d="M462 831q101 0 208 45q22 8 30.5 16t15.5 30q16 55 16 101q0 23 -7 48.5t-56 25.5q-37 0 -88 -18q-81 -31 -145 -74q-80 -54 -80 -103q0 -7 2 -15q16 -56 104 -56zM467 -125q-97 0 -184 45q-81 42 -134 114q-57 76 -57 168q0 47 18.5 95t56.5 79q29 23 70 23 q63 0 97.5 -46.5t42.5 -103.5q4 -29 13 -55q27 -75 110 -75t139 63q70 78 76 395l1 41q0 16 -2 24q-9 0 -27 -6q-46 -16 -81 -21q-28 -3 -65 -3h-30q-183 0 -310 118q-109 100 -109 188q0 31 10 61q68 208 317 289q138 44 253 44q64 0 139 -19.5t121 -93.5q35 -56 40 -179 q2 -48 2 -97q0 -150 -22 -420q-16 -203 -45 -332t-122.5 -204.5t-297.5 -90.5z" />
<glyph unicode=":" horiz-adv-x="419" d="M242 -71q-97 0 -150 49q-41 39 -41 96q21 114 156 114q35 0 69 -10q107 -28 108 -141q0 -68 -58 -92q-39 -16 -84 -16zM242 693q-97 0 -150 50q-41 39 -41 95q21 114 156 114q35 0 69 -10q107 -28 108 -141q0 -68 -58 -92q-39 -16 -84 -16z" />
<glyph unicode=";" horiz-adv-x="455" d="M244 693q-97 0 -150 50q-41 39 -41 95q21 114 156 114q35 0 69 -10q107 -28 108 -141q0 -68 -58 -92q-39 -16 -84 -16zM138 -176h-6q-27 0 -27 9q0 10 50 43q23 16 44 33q34 27 34 56q0 40 -85 81q-36 18 -64.5 40.5t-28.5 56.5q0 61 52 95q64 41 141 41q79 0 129 -38 q46 -35 46 -108q0 -22 -4 -46q-45 -255 -281 -263z" />
<glyph unicode="&#x3c;" horiz-adv-x="923" d="M749 39q-67 0 -293 129l-147 84q-68 41 -137.5 68.5t-137.5 69.5q-97 59 -97 108q0 57 130 96q49 15 96 31q97 33 203 50q71 11 174 34q205 46 284 46q46 0 82 -28q23 -19 23 -44q0 -59 -72 -79q-56 -16 -105 -20q-35 -2 -165 -28q-284 -57 -324 -102q31 -40 220 -128 q74 -35 147 -75q151 -84 151 -172q0 -40 -32 -40z" />
<glyph unicode="=" horiz-adv-x="803" d="M145 650q-9 0 -42.5 1t-86.5 42q-43 34 -43 59q0 42 94 61q108 20 358 34q17 1 81 1q26 0 75.5 -1t111 -20t82.5 -67q9 -20 9 -35q0 -55 -108 -55h-183q-162 0 -245 -12q-52 -8 -103 -8zM180 363q-11 0 -44 1.5t-77 43.5q-26 24 -26 44q0 76 374 76q109 0 241 -8 q66 -3 88 -37q26 -41 26 -67q0 -18 -13 -28q-27 -21 -86 -21l-20 1q-192 10 -261 10q-52 0 -106 -8q-49 -7 -96 -7z" />
<glyph unicode="&#x3e;" horiz-adv-x="921" d="M190 -9q-61 0 -90 28q-17 17 -17 34q0 31 50 66q29 21 50 32q62 35 118 72q106 70 189 108q36 17 72 36q58 31 58 56q0 19 -43 38q-79 35 -185 72t-207 79t-163 94q-31 27 -31 47q0 38 71 47q10 1 21 1q94 0 276 -91q120 -61 216 -83q107 -24 243 -104q108 -63 108 -127 q0 -40 -63 -88q-75 -56 -238 -133q-65 -31 -140 -84q-34 -24 -72 -47q-34 -20 -97 -36.5t-126 -16.5z" />
<glyph unicode="?" horiz-adv-x="977" d="M192 211q-98 0 -119 71q-10 30 -10 63q0 30 11.5 80t41.5 96q50 77 115 115t137 65q124 46 206 110t120 125q23 38 23 94q0 35 -10 78q-25 110 -108 110q-98 0 -189 -104q-64 -74 -125 -74q-22 0 -49 8q-111 34 -111 121q0 59 65 115q73 63 181 106.5t206 43.5 q168 0 273 -132q90 -114 105 -274q2 -24 2 -48q0 -130 -72 -231q-59 -82 -150 -133t-185 -86q-86 -32 -127 -68.5t-75 -124.5q-49 -126 -156 -126zM279 -71q-97 0 -150 49q-41 39 -41 96q21 114 156 114q35 0 69 -10q107 -28 108 -141q0 -68 -58 -92q-39 -16 -84 -16z" />
<glyph unicode="@" horiz-adv-x="1579" d="M728 -73q-66 0 -153.5 31t-167.5 84q-76 50 -119 98t-88 126q-22 38 -48 76q-37 54 -63 108q-37 79 -37 170q0 119 43 266q55 185 143 356q66 128 249 215q87 41 183 47q57 4 114 4q38 0 76.5 -1.5t77.5 -1.5q129 0 226.5 -17t188.5 -102q101 -96 138 -200 q39 -114 39 -269q0 -76 -14 -165.5t-59 -172.5t-128 -133q-67 -41 -133 -41q-62 0 -124 35q-32 18 -62.5 36.5t-53.5 18.5q-24 -1 -54 -18q-91 -54 -148 -54q-35 0 -80 12q-155 40 -212 138q-37 65 -37 154q0 150 87 297q59 101 156 137q22 9 45 9q34 0 67 -15 q48 -23 48 -73q0 -46 -65 -104q-37 -33 -74.5 -84.5t-57.5 -134.5q-8 -31 -8 -57q0 -36 19 -71.5t93 -35.5q106 0 145.5 58.5t39.5 157.5q0 54 -10 129q-9 68 -9 131l3 35q5 77 57 77q33 0 70 -36q52 -50 60 -146q4 -55 4 -106q0 -36 -3 -97q-3 -52 -3 -79q0 -18 2 -51 t21 -66t64 -33q104 0 143 136q23 84 23 235q0 21 -1.5 82t-30.5 149.5t-105 130.5q-66 37 -191 37q-126 0 -227 -10q-197 -20 -309 -130.5t-186 -282.5q-57 -132 -57 -241q0 -35 14.5 -118.5t115 -236t207.5 -194.5q44 -17 99 -17q118 0 267 71q91 43 130 43q69 0 94 -59 q6 -16 6 -30q0 -83 -206 -143q-32 -9 -64 -22q-103 -42 -170 -42z" />
<glyph unicode="A" horiz-adv-x="1276" d="M745 698q56 0 56 35q0 49 -66 221q-26 66 -37.5 89t-25.5 23q-28 0 -91 -164q-36 -91 -36 -118q0 -25 18.5 -39.5t77.5 -26.5q68 -20 104 -20zM171 -11q-32 0 -75 16q-70 26 -85 69q-8 20 -8 42q0 54 54 153q20 37 69 152q112 263 193 514q49 154 116 300l23 56 q31 76 74 119q37 38 121 38q117 0 158 -67q35 -58 53 -136q21 -90 62 -176q19 -41 35 -83q80 -205 133 -421q51 -205 121 -367q25 -59 25 -121q0 -45 -44 -68q-24 -12 -49 -12q-43 0 -91 32q-107 73 -154 303l-16 68q-17 71 -51 90q-40 21 -86 24q-74 6 -132 25l-43 14 q-38 12 -64 12q-22 0 -36 -11.5t-41 -76.5q-61 -149 -128 -349q-47 -139 -134 -139z" />
<glyph unicode="B" horiz-adv-x="1148" d="M411 740q10 0 42 21q227 148 275 305q10 35 10 62q0 48 -27 80q-31 37 -127 37q-106 0 -168 -29q-44 -21 -49 -75l-1 -33l3 -139q7 -229 35 -229h7zM528 197q186 0 263 71q33 30 33 85q0 45 -25 107q-37 90 -106 111q-30 9 -63 9q-45 0 -96 -14q-113 -32 -132 -115 q-8 -34 -8 -87l1 -57q2 -106 94 -110h39zM368 -20q-20 0 -51 4t-90 50q-62 49 -74 123q-8 52 -8 103l2 373q0 194 -11 343.5t-11 298.5q0 38 6.5 76.5t34.5 66t75 27.5q33 0 67 -6t65 -6q25 0 90 5.5t140 5.5q158 0 247 -64t122 -224q11 -56 11 -101q0 -66 -26 -124 t-64.5 -96t-39.5 -72q0 -30 65 -85q32 -26 49 -50q112 -159 112 -300q0 -35 -17.5 -116.5t-176.5 -166.5q-77 -42 -144 -50q-48 -5 -95 -5q-21 0 -43 1t-47 1q-50 0 -106 -6q-47 -6 -82 -6z" />
<glyph unicode="C" horiz-adv-x="1179" d="M718 -29q-74 0 -196.5 24.5t-253.5 130.5q-163 131 -183 295q-13 101 -13 212l1 57q0 76 -1 113q0 87 13.5 202.5t78.5 194.5q106 129 256 177.5t310 67.5q47 5 91 5q47 0 110.5 -12.5t120.5 -100.5q37 -56 37 -108t-36 -74q-14 -8 -34 -8q-59 0 -149 57q-42 27 -79 27 q-28 0 -91 -10q-191 -31 -275 -110t-102 -205q-13 -94 -13 -213q0 -60 0.5 -118t7 -127t38.5 -116q61 -92 175 -126q69 -20 133 -20q112 0 166 51q28 26 46.5 56t44.5 53t77 23q40 0 79 -26t58 -67q9 -19 9 -39q0 -22 -13 -45q-38 -69 -97 -121q-112 -100 -316 -100z" />
<glyph unicode="D" horiz-adv-x="1298" d="M499 164q19 0 63.5 13t123.5 80q68 58 134 141q147 185 147 319q0 69 -18 159q-32 164 -71.5 230t-111.5 94t-196 44q-45 5 -78 5q-43 0 -76 -14t-39 -59q-3 -21 -3 -48q0 -31 3 -68q7 -80 7 -216l-2 -333l3 -153q3 -194 114 -194zM483 -104q-28 0 -84.5 13.5 t-146.5 85.5q-75 60 -93 125q-16 58 -18 136q-7 264 -7 419l1 227q0 166 -3 333q0 30 2.5 78t31.5 78q65 66 188 73q30 2 60 2q94 0 206.5 -20t194.5 -46q283 -90 372 -438q43 -166 43 -294q0 -37 -6 -102.5t-53 -140.5q-215 -342 -549 -495q-74 -34 -139 -34z" />
<glyph unicode="E" horiz-adv-x="1027" d="M515 -39q-37 0 -115 2.5t-168 48.5t-102 164q-3 26 -3 54q0 233 20 393q9 75 9 144q0 80 -14 209q-16 146 -16 224q0 46 9 110t72 96q46 24 98 28q48 4 98 4q300 0 407 -6q89 -5 143 -46.5t54 -91.5q0 -4 -2.5 -34t-87.5 -39h-25q-49 0 -130 8q-136 14 -204 14 q-94 0 -115 -24q-28 -32 -31 -172q-1 -40 -4 -66q-6 -51 -6 -76q0 -16 3 -48q3 -46 102 -46q37 0 74 5q44 6 89 6q7 0 36 -1t87 -28q45 -22 80 -69q19 -25 19 -51q0 -22 -16 -43q-23 -30 -75 -34q-32 -3 -63 -3q-19 0 -39.5 1.5t-38.5 1.5q-84 0 -164 6h-27q-51 0 -65 -20.5 t-23 -106.5q-9 -94 -9 -171q0 -34 4.5 -79.5t33.5 -61.5q24 -13 66 -13q50 0 136 11t159 11t118 -29q58 -37 58 -83q0 -6 -4 -36q-8 -51 -234 -56q-125 -7 -194 -7z" />
<glyph unicode="F" horiz-adv-x="994" d="M337 -26q-12 0 -43.5 7.5t-70.5 50t-48 95.5q-13 72 -13 172q0 129 -14 296q-8 81 -20 333q-9 168 -9 336v33q1 88 32.5 123.5t96.5 35.5q43 0 94 -7q75 -11 216 -11q75 0 150 3q94 3 187 3q52 0 101.5 -18t66.5 -81q4 -16 4 -30q0 -38 -24 -64q-31 -31 -85 -31l-12 1 q-215 15 -355 15q-86 0 -161 -7q-43 -4 -52 -22t-9 -56q0 -23 2 -67q6 -118 15 -131q23 -32 74 -36q26 -2 51 -2q24 0 47 2q56 4 105 4q30 0 77 -3q87 -5 121 -87q10 -24 10 -47q0 -10 -4 -32q-9 -42 -129 -42q-54 0 -116 2q-58 2 -106 2q-16 0 -54 -0.5t-49 -15.5 q-21 -28 -21 -84q0 -66 10 -150q6 -43 7 -72q4 -72 11 -110q8 -52 30 -123q8 -26 8 -50q0 -58 -49 -104q-34 -31 -72 -31z" />
<glyph unicode="G" horiz-adv-x="1414" d="M798 -56q-223 0 -389 95q-376 216 -376 546q0 190 106 457q76 189 192 276t267 109q117 17 254 17h93q82 0 150.5 -29t90.5 -125q5 -20 5 -36q0 -44 -25 -68q-18 -17 -46 -17q-48 0 -115 42q-31 20 -62 24q-44 5 -114 5q-117 0 -216.5 -38t-181.5 -168q-63 -99 -115 -312 q-31 -116 -31 -187q0 -63 29.5 -143t178.5 -162q117 -64 259 -64q137 0 243 79q46 35 79 98q22 44 22 81q0 16 -4 31q-12 47 -96 47q-27 0 -71 -7q-40 -7 -80 -7q-24 0 -68 5t-89 68q-19 27 -19 48q0 48 79 75q113 37 299 37q257 0 301 -279q4 -30 5 -62q0 -93 -43 -187 t-137 -145q-65 -36 -159 -66q-120 -38 -216 -38z" />
<glyph unicode="H" horiz-adv-x="1377" d="M1135 -17q-23 0 -45 14q-87 51 -100 139q-6 46 -6 93q0 44 5 88q12 107 12 220q0 134 -34 156q-22 14 -92 14l-97 -1q-53 0 -103 2q-58 2 -127 2q-40 0 -80 -4q-94 -11 -99 -109q-1 -18 -1 -37q0 -134 24 -343q4 -34 4 -77q0 -8 -1 -37.5t-24 -65.5q-19 -31 -63 -31 q-54 0 -113 45q-47 35 -56 84q-7 40 -7 98q0 88 5 190q4 87 4 186q0 93 -3 189q-3 78 -3 155q0 337 45 435q19 43 65 43q37 0 73.5 -23t50.5 -64q11 -34 11 -87q0 -6 -0.5 -38.5t-6 -96.5t-5.5 -114q0 -51 17 -63q40 -29 129 -29l250 -2q50 0 99 1q92 0 119.5 51t27.5 199 l1 150q0 31 -1 36q-2 16 -2 33q0 18 2 46t26 49q19 16 42 16q33 0 74 -19q54 -27 68 -58t15 -85t1 -107q0 -149 -8 -302q-13 -224 -13 -426l1 -158q1 -36 7 -84q10 -71 10 -141q-1 -70 -40 -106q-27 -26 -58 -26z" />
<glyph unicode="I" horiz-adv-x="735" d="M532 -1q-13 0 -140 10q-109 8 -125 8h-76q-57 0 -66 11q-28 37 -28 85q0 11 5 47.5t64 55.5q69 22 84 44q11 16 11 48l-1 361q0 243 4 412q0 67 -15 113.5t-68 48.5q-46 2 -55 13q-29 36 -29 84q0 11 5 47.5t63 56.5q33 12 97 12q16 0 82 -7q77 -8 156 -8l78 1 q44 0 71 -18.5t27 -77.5q0 -69 -35 -93.5t-86 -25.5q-27 0 -44 -6q-39 -13 -39 -110q0 -44 3 -127q12 -415 12 -493q0 -54 7 -119q15 -157 65 -157h19q44 0 71 -18.5t27 -77.5q0 -84 -53 -105q-40 -15 -91 -15z" />
<glyph unicode="J" horiz-adv-x="1191" d="M426 -6q-124 0 -182.5 19t-120.5 80q-51 50 -84 123q-46 99 -46 207q0 23 3 65.5t34 76.5q18 20 49 20q24 0 55 -12q69 -28 83 -77q8 -31 8 -65l-1 -68q0 -24 4 -54.5t32 -58.5q35 -34 81 -41q35 -4 126 -4q77 1 108 45q54 77 91 395q22 194 22 358q0 130 -31 177 q-23 33 -61 38q-24 3 -49 3l-78 -1q-81 0 -90 11q-29 37 -29 85q0 11 5 47.5t62 56.5q31 11 88 11q166 0 304 -22q114 -19 202 -19l160 2q40 0 65 -17q29 -19 29 -78q0 -108 -105 -117q-22 -2 -45 -2t-46 1.5t-44 1.5q-17 0 -29.5 1t-23.5 1q-44 0 -53 -14q-3 -5 -3 -17 q0 -25 11 -80q15 -74 15 -143t-4 -154q-13 -256 -45 -409q-64 -307 -307 -356q-82 -16 -160 -16z" />
<glyph unicode="K" horiz-adv-x="1092" d="M279 -95q-8 0 -40.5 4.5t-78.5 50.5q-50 49 -50 126q0 45 4 93t4 173q0 205 12 332.5t17 253.5q6 174 19 259q11 80 11 120q0 68 19 89q39 45 88 45q7 0 38.5 -4.5t72.5 -51.5t41 -116q0 -83 -20 -171q-22 -96 -22 -182q105 99 206 229q64 81 125 151q58 67 135 110 q32 18 60 18q54 0 92 -60q19 -29 19 -56q0 -49 -64 -123q-139 -162 -262 -280q-53 -49 -53 -85q0 -3 3 -24t38 -69q122 -169 196 -340q47 -107 98 -197q31 -54 51 -122q8 -28 8 -54q0 -39 -21 -74.5t-55 -35.5q-5 0 -27 3t-60 32q-79 59 -130 198q-23 61 -54 115l-36 59 q-46 75 -87 176q-56 137 -88 171q-14 15 -28 15q-28 0 -54 -45q-29 -50 -34 -115q-5 -56 -5 -211q0 -102 11 -194q5 -35 5 -63q0 -74 -26 -109q-32 -41 -78 -41z" />
<glyph unicode="L" horiz-adv-x="1017" d="M467 -25h-24q-83 0 -158 25.5t-120 120.5q-18 39 -22 93q-6 69 -6 255q0 88 1 175q4 186 4 240q0 130 -5 260q-3 70 -19 155q-5 22 -5 42q0 27 12 57q16 41 95 41q58 0 99.5 -52t52.5 -118q17 -107 19 -247l1 -135q0 -74 -5 -224q-5 -163 -5 -267q0 -131 15 -158 q23 -43 90 -45q190 0 306 31q31 9 59 9q82 0 147 -63q18 -17 18 -48q0 -24 -9.5 -44t-30.5 -41.5t-44 -25.5q-231 -36 -466 -36z" />
<glyph unicode="M" horiz-adv-x="1458" d="M1199 6q-33 0 -73 26q-62 40 -69 117q-3 32 -3 64q0 46 5 93q8 68 8 208q0 166 17 342q7 79 9 148q0 46 -9 46q-14 0 -56 -127q-109 -355 -178 -448q-44 -60 -89 -60q-17 0 -56 20t-93 116q-84 147 -173 423q-48 149 -71 149q-13 0 -13 -93q0 -63 7 -197q6 -103 6 -431 q0 -70 21 -153q16 -60 17 -113q0 -46 -19 -77q-16 -26 -52 -26q-9 0 -19 3q-57 13 -103.5 65.5t-59.5 107.5q-20 86 -20 242v73q0 102 -1 141q-7 240 -7 480l3 192q0 32 17 66t49 41q36 8 140 8q111 0 210 -231q67 -159 122 -314q69 -194 85 -202q24 19 102 258l76 235 q46 144 91.5 200t146.5 56q95 0 125 -66.5t31 -149.5q0 -155 -24 -475q-8 -116 -8 -241q0 -61 3 -126q3 -70 3 -139q0 -68 -4 -134q-5 -76 -52 -105q-19 -12 -42 -12z" />
<glyph unicode="N" horiz-adv-x="1377" d="M337 -20q-5 0 -35.5 2t-80.5 48.5t-58 119.5q-9 85 -9 183q0 41 -1 78q-9 543 -23 893v15q0 122 124 122q124 -10 177 -80q49 -67 83 -160q43 -119 78 -178q27 -46 78 -116q69 -94 122 -201q61 -125 144 -232q26 -33 40 -33l10 1q13 2 13 83q0 96 -4 180q-3 77 -3 181 q0 198 -14 370q-1 12 -1 51q0 37 11.5 76t85.5 39q131 0 145 -156q5 -49 5 -126q0 -243 -1 -310.5t-1 -132.5q0 -282 16 -394q7 -48 7 -94q0 -100 -54 -173q-25 -32 -62 -32q-125 0 -290 237l-25 34q-149 199 -239 347q-146 240 -164 256q-8 7 -14 7q-10 0 -10 -30 q0 -36 5 -87q11 -125 12 -305q1 -88 4 -176q2 -39 10 -83q10 -63 10 -107q0 -38 -16 -69q-25 -48 -75 -48z" />
<glyph unicode="O" d="M613 182q189 0 247 173q45 134 45 336q0 60 -7.5 151.5t-45.5 170.5q-24 49 -74.5 104.5t-111.5 82.5q-25 11 -50 11q-71 0 -130 -90q-62 -95 -98 -212q-18 -56 -57 -198q-29 -106 -29 -205q0 -58 16 -125.5t77 -118.5q95 -80 218 -80zM606 -20q-164 0 -299 91 q-244 165 -254 430l-1 51q0 123 28 240q75 316 176 462q122 176 320 176q128 0 233 -75q91 -66 142 -117q83 -72 125 -157t64 -193.5t22 -264.5q0 -35 -3.5 -155.5t-57.5 -244.5q-29 -68 -82 -122q-119 -121 -413 -121z" />
<glyph unicode="P" horiz-adv-x="1014" d="M431 740q52 0 131 32q199 80 199 245q0 34 -9 87.5t-57 89.5q-13 10 -26.5 14.5t-30 6t-42 1.5t-46.5 1l-33 1q-133 0 -152 -34q-10 -18 -10 -49q0 -46 5 -94q5 -41 5 -102q0 -66 1.5 -112.5t16 -66.5t48.5 -20zM347 4q-24 0 -58 15q-114 49 -129 208q-5 51 -5 100l1 218 q0 126 -12 255q-8 89 -11 181q-2 75 -10 150q-8 80 -8 158q0 73 28 102.5t80 29.5t101.5 -7t117.5 -7q28 0 55.5 1t58.5 1q187 0 263 -31q51 -22 101 -103q75 -125 75 -267q0 -123 -71 -223q-162 -229 -442 -244q-66 -3 -79 -23q-9 -14 -9 -43q0 -14 2 -30.5t3 -37.5 q5 -124 15 -247q2 -19 2 -37q0 -27 -5.5 -60.5t-33.5 -50.5q-12 -8 -30 -8z" />
<glyph unicode="Q" horiz-adv-x="1302" d="M617 180q75 0 75 33q0 1 -1 19t-43 67q-35 41 -63 61q-83 61 -83 109q0 18 12 31q32 34 85 34q56 0 112 -17.5t79.5 -43.5t34.5 -50q17 -38 34 -38q16 0 24 43q20 119 20 235q0 272 -56 360q-36 55 -108 130q-53 58 -116 58q-47 0 -92 -40q-54 -49 -94 -134t-58 -156 q-14 -53 -49 -169q-28 -94 -28 -189q0 -140 52 -210q98 -132 263 -133zM1209 -158q-13 0 -27 3q-80 17 -129 53.5t-104 91.5q-30 30 -60 30q-25 0 -54 -8q-119 -32 -225 -32q-92 0 -204 33.5t-246 194.5q-109 132 -109 358q0 138 68 370l16 57q69 257 223 370q90 66 221 66 q130 0 197 -51q25 -20 53 -41q77 -58 140 -117q72 -66 110 -149t59 -177q23 -101 23 -274q0 -316 -76 -426q-12 -18 -12 -26q0 -9 78 -62q39 -27 71 -57.5t54 -84.5q13 -31 13 -56q0 -28 -18 -45q-23 -21 -62 -21z" />
<glyph unicode="R" horiz-adv-x="1184" d="M474 741q79 0 206 57q66 30 93 60q69 78 69 207q0 56 -18 102q-24 61 -77 75q-71 18 -199 18h-27q-97 -1 -114 -46q-12 -31 -12 -79t3 -99q0 -79 -1 -157q0 -26 4 -64t41 -65q12 -9 32 -9zM308 -31q-67 0 -130 58q-41 38 -46 90q-4 40 -4 81q0 101 11 209q16 150 16 366 q0 221 -13 355q-11 114 -11 188q0 124 85 140q38 7 78 7q23 0 47 -2t63 -2l70 1l163 -4q204 -4 295 -73q156 -118 156 -345q0 -158 -87 -277q-45 -61 -108 -106q-56 -40 -56 -67q0 -1 1 -15.5t38 -58.5l16 -20q211 -284 211 -415q0 -66 -76 -66q-55 0 -102.5 48t-77.5 101 q-49 94 -108 181q-119 176 -258 176q-65 0 -77 -53q-9 -37 -9 -76l1 -78q0 -70 -2 -182q-4 -161 -86 -161z" />
<glyph unicode="S" horiz-adv-x="1353" d="M451 -7q-176 0 -253 19q-65 16 -99 82q-7 13 -7 30q0 101 212 109q52 2 96 2q590 0 590 234l-3 28q-13 111 -140 112q-84 0 -215 -20q-122 -18 -210 -18q-82 0 -148 32q-103 49 -153 151q-47 98 -47 204q0 229 153 354q88 72 189 96q126 30 261 30q158 0 377 -52 q212 -51 212 -224q0 -74 -45 -97q-17 -9 -37 -9q-63 0 -148 85q-27 27 -61 46q-71 41 -237 41h-53q-45 0 -123 -19q-159 -38 -202 -190q-12 -41 -12 -80q0 -113 81 -138q36 -11 79 -11q64 0 161 19q105 21 199 21q27 0 92 -3.5t149.5 -48t121.5 -147.5q27 -76 27 -152 q0 -42 -15 -121.5t-105 -166.5q-178 -171 -516 -192q-88 -6 -171 -6z" />
<glyph unicode="T" horiz-adv-x="1232" d="M676 31q-2 0 -25.5 0.5t-63 26t-52.5 65.5q-7 22 -7 57q0 47 10 185q38 524 55 706q3 35 3 60q0 46 -14 59t-56 13q-19 0 -41.5 -2t-46 -2.5t-77.5 -2.5q-37 -2 -76 -2q-26 0 -72.5 1t-92.5 18.5t-75 49.5q-23 26 -23 54q0 6 4 26t66 40q73 23 166 23q42 0 85 -2.5 t88 -2.5q15 0 53 1.5t100 18.5q78 21 116 21q30 0 58 -6q36 -7 113 -7q176 2 317 2q140 -2 193 -78q23 -32 23 -61q0 -11 -7 -35q-9 -28 -103 -28l-327 2q-99 0 -117 -9q-34 -16 -40 -59q-3 -27 -3 -53q0 -17 1.5 -34t1.5 -31q0 -445 -35 -825q-11 -125 -36 -159 q-23 -30 -63 -30z" />
<glyph unicode="U" horiz-adv-x="1275" d="M1015 10q-38 0 -85 6q-78 9 -195 9l-174 -1q-85 0 -169.5 17.5t-168.5 118.5q-49 59 -61.5 135t-15.5 153q-4 96 -4 280q0 233 -24 488q-2 19 -2 40q0 31 5 74.5t35 73.5q17 16 45 16q23 0 53 -13q72 -34 88 -107q15 -66 15 -143q0 -43 2 -73q12 -157 12 -314 q0 -150 -2 -163q-3 -29 -3 -78q0 -24 1 -81t19 -130.5t65 -79.5q98 -10 193 -10l153 -1q67 0 81 19.5t14 64.5l-1 19q0 203 -2 303q-2 80 -2 161q0 149 7 302q1 24 1 56q1 60 6.5 123t28.5 99q26 42 68 43q38 0 74.5 -24.5t51.5 -63t15 -85.5q0 -60 -11 -136.5t-11 -173.5 q0 -536 21 -721q4 -37 4 -67q0 -56 -18.5 -92.5t-69.5 -41.5q-18 -2 -39 -2z" />
<glyph unicode="V" horiz-adv-x="1202" d="M765 12q-38 0 -88 32q-73 48 -120.5 136.5t-83.5 183.5q-27 69 -56 126q-84 166 -157 338q-67 160 -153 313q-82 148 -82 214q7 47 48 67q24 12 51 12q16 0 47 -7q55 -13 148 -223q27 -59 348 -687q10 -19 17 -19q5 0 7 8q75 274 170 506q62 152 75 198q15 50 37 95 q36 77 96 77q25 0 58 -14q64 -28 69 -89l1 -27q0 -83 -72 -242q-46 -102 -137 -390q-53 -168 -87 -374q-10 -58 -25 -114q-32 -120 -111 -120z" />
<glyph unicode="W" horiz-adv-x="1884" d="M1373 -96q-31 0 -71 9q-106 23 -134.5 85.5t-34.5 147.5q-12 164 -72 378q-23 82 -39 153q-7 37 -23 68q-30 -45 -73 -175q-20 -59 -40 -101q-91 -191 -134 -398q-9 -41 -23.5 -82t-45.5 -70q-5 -5 -23 -5q-75 0 -168 73q-79 61 -110 128q-43 91 -63 197q-6 31 -162 671 q-20 83 -44 150q-15 40 -29 84q-19 57 -19 102q0 86 86 86q37 0 73 -29q29 -24 43 -47q22 -34 72 -160q32 -82 76 -236q63 -225 126 -501q16 -71 31 -71q18 0 41 87q16 58 64 167q38 89 68 190q95 324 147 382q39 44 102 44q50 0 88 -29q50 -38 60 -69.5t10 -72t12 -88.5 q16 -65 41 -135q22 -62 49.5 -157.5t55.5 -186.5q18 -60 28 -60q14 0 31 68l41 157q116 446 195 668l24 71q21 65 62 107q23 24 59 24q25 0 55 -14q55 -24 78 -77q13 -32 13 -65q0 -40 -38 -141q-17 -45 -30 -91q-55 -188 -73 -265q-54 -233 -133 -451q-68 -185 -107 -360 q-22 -101 -65 -137q-26 -23 -77 -23z" />
<glyph unicode="X" horiz-adv-x="1512" d="M358 -114q-100 0 -169 66q-29 28 -29 65q0 57 73 138q18 20 60 77q47 63 105.5 129t137.5 185q8 13 19 26q54 67 54 108q0 53 -74 116q-59 52 -103 106q-52 64 -146 151q-59 55 -117 116q-15 16 -36 36q-33 31 -64 65q-46 50 -46 94q0 41 35 59.5t73 18.5q16 0 33 -5 q88 -24 170 -86t154 -139t130 -146q47 -56 82 -93t56 -38q54 0 112 95q47 78 104 141q45 50 102 104q88 83 127 131q69 84 126 84q31 0 70 -20q58 -31 58 -98q0 -50 -31.5 -94t-85.5 -96q-26 -25 -45 -46q-139 -154 -254 -326q-45 -68 -45 -108q0 -2 1 -23t65 -84 q52 -52 103 -113q70 -82 162 -159q67 -55 104 -107.5t37 -144.5q0 -167 -95 -167q-63 0 -141 85q-53 59 -129 170q-65 94 -128 176q-92 118 -144 118q-33 0 -70 -53q-127 -184 -237 -381q-42 -75 -86 -110q-29 -23 -78 -23z" />
<glyph unicode="Y" horiz-adv-x="1455" d="M736 -92q-35 0 -74 25q-64 43 -64 176q0 51 12 148q18 157 18 258q0 69 -10 146.5t-77 158.5q-71 86 -245 222q-52 40 -116 95q-159 136 -159 233q0 58 44 80q23 11 48 11t53 -11q67 -28 189 -139q36 -32 67 -57q140 -111 211 -183q36 -36 78 -60q21 -13 42 -13 q44 0 135 87q75 70 188 145q58 39 114 83t117 114.5t123 98.5q17 8 36 8q48 0 104 -53q45 -42 45 -84q0 -4 -3 -29.5t-46 -72.5q-160 -170 -358 -294q-53 -34 -129.5 -92t-139 -124.5t-74.5 -128.5q-6 -27 -6 -63q0 -70 8 -167q5 -59 5 -112q-5 -279 -38.5 -342.5 t-97.5 -63.5z" />
<glyph unicode="Z" horiz-adv-x="1490" d="M233 9q-112 0 -182 72q-29 30 -29 59q0 10 7 34q11 44 120 129q70 54 133 144q57 78 161 184q57 57 112 118q84 95 176 183.5t198 223.5q31 40 31 51q0 10 -49 10q-101 0 -196 -2q-56 -1 -117 -1q-138 0 -250 22q-167 32 -167 123q0 72 140 78q204 0 292 -8 q97 -10 202 -10q45 0 141 8q198 14 292 14q66 0 98 -9q111 -33 111 -117q0 -53 -55 -107q-32 -31 -70 -61q-174 -140 -306 -281l-103 -107q-452 -470 -452 -519q0 -11 27 -11l217 2q261 1 527 4q118 0 177 -45q42 -31 44 -90q0 -40 -29 -59q-39 -24 -134 -24 q-201 -3 -691 -3q-311 0 -376 -5z" />
<glyph unicode="[" horiz-adv-x="676" d="M284 -240l-42 1q-35 0 -87 29.5t-69.5 58.5t-17.5 88q1 518 7 694q4 132 4 262q0 250 -13 355q-16 122 -16 199q0 44 6.5 95t39.5 76q21 16 123 16h108l90 1q69 0 103 -4q27 -3 52 -26q42 -37 42 -73q0 -15 -11 -27q-29 -31 -101 -33h-47q-174 0 -192 -23q-7 -10 -7 -87 q16 -1006 16 -1307q0 -88 11 -113q9 -18 50 -18q38 0 110 14q36 7 52 7q65 0 106 -33q25 -21 25 -45q0 -17 -23.5 -49t-178.5 -48q-99 -10 -140 -10z" />
<glyph unicode="\" horiz-adv-x="698" d="M619 -58q-61 0 -96 105q-97 282 -214 514q-107 210 -190 429q-12 30 -31 70q-76 161 -76 234q0 25 8 46q20 48 49.5 63.5t42.5 15.5q30 0 56 -37q48 -67 124 -275q79 -213 192 -439q64 -129 117 -265q61 -156 89 -213q44 -90 44 -139q0 -18 -5 -36q-12 -40 -70 -64 q-22 -9 -40 -9z" />
<glyph unicode="]" horiz-adv-x="652" d="M435 -204q-24 0 -77.5 3t-125 24t-91.5 63q-5 10 -5 18q0 20 23.5 33t62.5 16l61 3q89 4 107 32q13 19 13 59q-2 75 -3 339q0 723 9 969q0 41 -0.5 59t-13.5 32q-21 22 -124 27q-154 8 -211 89q-10 14 -10 25q0 40 117 40q58 0 100 -2l156 -2q42 0 84 -7q94 -16 94 -191 v-8q-11 -854 -13 -1338q0 -19 1.5 -45t1.5 -54t-2 -71t-22 -72q-12 -18 -27 -25q-33 -16 -105 -16z" />
<glyph unicode="^" horiz-adv-x="1041" d="M219 782q-62 0 -120 39q-47 30 -47 69q0 37 59 144q55 99 88.5 147t107.5 138q42 55 73 85q42 41 116 41q63 0 114.5 -27t108.5 -94q127 -144 183 -217q52 -70 79 -156q10 -32 10 -59q0 -36 -15.5 -60.5t-46.5 -24.5q-88 0 -225 186q-40 55 -90 117q-54 66 -82 66 q-27 0 -122 -154q-19 -31 -43 -74q-72 -129 -93 -147.5t-55 -18.5z" />
<glyph unicode="_" horiz-adv-x="900" d="M764 -360h-20q-47 0 -60 1q-115 10 -287 10q-129 0 -207 8.5t-127 68.5q-13 16 -13 30q0 51 145 51q50 -3 214 -5q195 -2 233 -3q60 -2 119 -15t83 -69q6 -14 6 -26q0 -22 -22 -36t-64 -15z" />
<glyph unicode="`" horiz-adv-x="595" d="M466 1057q-32 0 -78 34q-33 23 -105 56q-42 19 -111 57q-92 50 -107 72.5t-15 35.5q0 6 14 31q20 37 53 57q26 17 82 17q23 0 51 -17q18 -10 62 -49t109 -89q24 -19 74 -50t50 -71q0 -39 -24 -61.5t-55 -22.5z" />
<glyph unicode="a" horiz-adv-x="1074" d="M915 -86q-37 0 -91 46q-58 50 -100 50q-22 0 -66 -12q-69 -19 -170 -19q-61 0 -144.5 12.5t-173.5 88.5q-65 56 -99 147q-27 73 -27 143q0 16 2 33q15 137 68 221.5t153 173.5q116 103 220 119q48 7 105 7q68 0 149 -9q194 -23 194 -206q0 -42 -3 -78q-2 -30 -2 -64 q0 -35 22 -318q9 -110 48 -212q4 -12 4 -25q0 -38 -23 -62q-36 -36 -66 -36zM589 192q117 3 117 58q0 81 -17 183q-12 72 -12 162l1 78q0 27 -14 34t-39 7q-52 0 -99 -30q-140 -93 -204 -208q-32 -56 -32 -118q0 -26 7 -53q24 -97 133 -109q42 -4 159 -4z" />
<glyph unicode="b" horiz-adv-x="1104" d="M309 -75q-52 0 -100 39t-55 110q-4 38 -4 75q0 23 5 95q5 90 5 163q0 32 -1.5 93t-23.5 191q-32 185 -32 384q0 106 3 182q2 62 19.5 119.5t88.5 57.5q60 0 97 -39.5t41 -95.5q3 -69 3 -94l-1 -60q-3 -95 -3 -180q0 -86 12 -104q16 -25 80 -26q76 0 122 3q30 2 52 2 q329 0 417 -274q18 -58 18 -111q0 -83 -51 -176t-185 -160q-92 -47 -185.5 -80t-183.5 -77q-74 -37 -138 -37zM438 214q32 0 142 59q24 13 39 20q86 38 127 81q43 46 43 149q0 99 -98 109q-23 2 -48 2h-16q-47 0 -93 1q-30 0 -70.5 -4.5t-51 -32t-10.5 -62.5q0 -32 3 -69 t3 -69q0 -31 -2 -44q-3 -36 -3 -62q0 -78 35 -78z" />
<glyph unicode="c" horiz-adv-x="906" d="M644 -46q-200 0 -324 44q-101 36 -160 109q-120 147 -120 317q0 74 22 134q73 202 214 287q119 72 288 72q31 0 65 -2q112 -6 165 -104q16 -28 16 -49q0 -20 -13 -33q-23 -23 -72 -23q-35 0 -82 6q-31 4 -59 4q-21 0 -53.5 -3.5t-98.5 -42.5q-83 -49 -119 -111 q-38 -67 -38 -166q0 -134 84 -196q66 -48 160 -48q28 0 59 5q41 6 67 39q42 52 114 52q58 0 94 -43q26 -30 26 -69q0 -27 -14 -58q-52 -110 -156 -119q-30 -2 -65 -2z" />
<glyph unicode="d" horiz-adv-x="1045" d="M457 92q57 0 115.5 29.5t85.5 94.5q30 73 30 213q0 168 -41 203q-30 25 -74 25q-85 0 -141 -55q-45 -45 -86 -127.5t-55 -169.5q-4 -24 -4 -47q0 -57 30 -97q49 -69 140 -69zM436 -103q-28 0 -92 9t-138 75q-152 140 -152 295q0 79 27.5 185t96.5 210.5t165 149.5 q63 30 138 41q23 4 45 4q50 0 95 -19q24 -11 36 -11q16 0 16 33q0 59 -20 176q-24 142 -24 223q0 163 102 163q24 0 59 -15.5t54.5 -61.5t24.5 -165q1 -32 9 -94q25 -194 26 -419q1 -240 13 -485q3 -55 3 -122t-18.5 -111.5t-52.5 -44.5q-37 0 -98 41q-34 22 -54 22 q-33 0 -72 -26q-80 -53 -189 -53z" />
<glyph unicode="e" horiz-adv-x="903" d="M301 461q18 0 53 25q94 64 210 190q29 32 29 47v9q0 13 -35 13q-36 0 -67 -14q-110 -49 -174 -153q-34 -56 -34 -88q0 -15 9 -26q3 -3 9 -3zM562 -11q-140 0 -242 13q-80 9 -137.5 52.5t-91.5 134.5q-35 94 -35 196q0 40 12 133.5t94 204.5q55 74 124 130q83 69 209 92 q39 8 75 8q79 0 139 -40q92 -62 92 -184q0 -79 -46 -142q-48 -67 -147 -143q-82 -64 -172 -107q-129 -63 -129 -107q0 -8 15 -28t99 -20q54 0 137 5q68 4 88.5 10.5t40.5 19.5q58 37 92 37q16 0 41.5 -10.5t36.5 -70.5q3 -13 3 -27q0 -49 -33.5 -90.5t-83.5 -51.5 q-72 -15 -181 -15z" />
<glyph unicode="f" horiz-adv-x="707" d="M351 -149h-7q-42 0 -84.5 23t-62.5 62q-17 34 -17 62t7 62t7 53q0 70 -7 138t-7.5 136t-19.5 91t-46 32q-15 5 -30.5 13.5t-28 26t-12.5 34.5q0 23 24 50q42 46 74 52q8 2 13 6q10 8 10 55v126q0 103 30.5 174.5t110.5 145t195 95.5q28 5 54 5q82 0 150 -52 q32 -24 57 -65q13 -22 13 -43q0 -19 -12 -36q-17 -23 -43 -23t-57 8q-36 9 -75 9q-36 0 -72 -27q-69 -52 -100 -146q-22 -66 -22 -127q0 -26 6 -51q14 -62 83 -66q32 -2 65 -15t49 -56q6 -15 6 -28q0 -30 -28 -56t-74 -28l-30 -1q-25 0 -41 -11.5t-16 -74.5q0 -55 16 -201 q14 -125 14 -184q0 -64 -27 -122q-20 -44 -65 -46z" />
<glyph unicode="g" horiz-adv-x="1071" d="M487 246q206 5 220 153q1 12 1 28q0 81 -22 212q-22 125 -62 125q-58 0 -137 -60q-70 -54 -122.5 -139.5t-52.5 -188.5q0 -78 49 -105q45 -25 126 -25zM426 -502q-74 0 -139.5 22t-146.5 98q-52 50 -85 120q-27 58 -27 120q0 98 82 98q101 0 138 -134q12 -46 36 -81 q36 -54 159 -54q105 0 196.5 62.5t107.5 217.5q2 23 2 43q0 14 -2 35q-5 51 -48 51q-28 0 -75 -15q-65 -20 -124 -20q-192 0 -318 116q-62 57 -80 125q-13 50 -13 106q0 95 29 159q23 51 59 103q194 277 549 293q50 0 83.5 -26.5t57.5 -85.5q57 -137 83 -370.5t26 -389.5 q0 -270 -120 -419.5t-375 -171.5q-29 -2 -55 -2z" />
<glyph unicode="h" horiz-adv-x="1013" d="M906 -104q-80 0 -151 56q-131 106 -131 283q0 71 4 137q4 59 4 113v21q0 92 -33 124q-46 46 -125 46q-123 0 -132 -72q-4 -29 -4 -78q0 -102 13 -201q6 -52 11 -107q2 -31 2 -103v-53q0 -45 -26 -98q-19 -40 -63 -40q-15 0 -33 6q-52 16 -83 60.5t-34 98.5q-2 24 -2 49 q0 51 3 104.5t4 100.5q7 628 21 794q17 209 67 253q24 21 55 21q73 0 105 -64q22 -44 22 -102q0 -68 -25 -194q-18 -95 -18 -136q0 -28 9 -45q14 -26 71 -26q36 0 76 4q31 3 59 3q39 0 85.5 -6t110 -53t77.5 -120q14 -67 14 -210q0 -17 -1.5 -41.5t-1.5 -57.5 q0 -49 4.5 -119.5t39.5 -120.5q16 -22 43 -45q40 -34 64 -73q9 -14 9 -29q0 -24 -26 -47q-36 -33 -84 -33z" />
<glyph unicode="i" horiz-adv-x="530" d="M348 -73q-38 0 -91 37q-73 51 -87 123q-10 50 -10 107q0 211 -25 414q-21 164 -21 189q0 43 16 72q18 34 79 34q136 0 165 -205q12 -80 16 -150q2 -36 5 -63q13 -119 19 -239q2 -37 6 -78q5 -54 5 -101v-16q-1 -124 -77 -124zM235 985l-25 1q-79 8 -122 58q-23 28 -23 66 q0 68 61 129q44 43 91 43q85 0 127 -84q26 -50 26 -98q0 -39 -28 -71q-41 -44 -107 -44z" />
<glyph unicode="j" horiz-adv-x="543" d="M7 -522q-146 0 -245 83q-89 74 -89 187q0 49 32 72q27 20 62 20q16 0 33 -2q46 -3 90 -82q40 -72 106 -72q15 0 33 4q111 22 147 123q31 87 31 192q0 114 -22 260q-18 126 -27 267q-4 76 -12 153q-3 34 -3 73q0 13 0.5 48t26.5 72q19 28 62 28q14 0 30 -4 q111 -25 126 -176q5 -56 6 -109q2 -177 26 -394q19 -171 19 -288q0 -132 -51 -240q-59 -126 -179 -176q-96 -39 -202 -39zM228 1012q-8 0 -46.5 4t-84.5 50q-29 30 -29 70t25 74.5t69 42.5q31 6 62 6q62 0 102 -33q51 -44 51 -90q0 -43 -48 -85q-43 -39 -101 -39z" />
<glyph unicode="k" horiz-adv-x="930" d="M790 -13q-61 0 -142 77q-74 70 -125 137q-18 24 -40 45q-50 47 -80 47q-13 0 -32 -18t-20 -105l2 -63q0 -19 -2.5 -48.5t-23.5 -50.5q-12 -12 -35 -12q-16 0 -36 8q-94 36 -111 118q-13 59 -13 122q0 25 2 50q1 14 1 95q0 118 -10 368q-11 295 -11 601q0 135 80 135 q22 0 51 -9q76 -25 93 -97q14 -61 14 -127q0 -57 2 -86q9 -114 9 -183q0 -45 -3 -96q-15 -216 -15 -293q0 -45 6.5 -58t19.5 -13q49 0 218 218q77 100 157 100q44 0 97 -32q44 -27 44 -91q0 -11 -3 -22q-16 -48 -53 -87.5t-78.5 -74.5t-72 -68.5t-30.5 -69.5q0 -45 93 -138 q49 -49 84 -104q37 -60 37 -103q0 -32 -26 -54q-22 -18 -48 -18z" />
<glyph unicode="l" horiz-adv-x="588" d="M403 -8q-104 0 -164 59q-90 86 -92 278q-1 69 -10.5 162.5t-9.5 237.5l1 227q0 112 -4 226q-1 14 -1 30q0 32 4.5 80t32.5 84q17 22 48 22q19 0 42 -10q66 -27 90.5 -95t24.5 -159q0 -75 -4 -150q-5 -84 -5 -376q3 -351 38 -391q11 -12 39 -17q34 -6 71.5 -25.5 t59.5 -71.5q8 -20 8 -36q0 -75 -169 -75z" />
<glyph unicode="m" horiz-adv-x="1288" d="M1065 -39q-4 0 -27.5 2.5t-64.5 34.5q-71 58 -71 136q0 20 3 39.5t5 48.5q8 114 19 228q9 88 9 173v17q0 106 -57 106q-29 0 -62 -23q-46 -33 -60 -77q-10 -34 -10 -100q0 -32 2 -67q3 -39 3 -114q-1 -67 -26 -107q-14 -23 -46 -23q-23 0 -55 13q-53 21 -83.5 63.5 t-30.5 98.5v7q3 90 3 144q0 32 -2 94t-37 119q-28 44 -61 44q-6 0 -29 -6q-30 -8 -34 -105q0 -43 10 -250q4 -94 4 -197q0 -81 -5 -163q-8 -132 -77 -132q-31 0 -77 24q-63 33 -75 77q-8 30 -8 67l1 38q6 75 6 306q0 185 -2 363q0 111 33 138q67 54 172 54l72 -1 q91 -2 200 -81q47 -34 81 -34q32 0 89 37q62 41 135 61q27 7 53 7q46 0 91 -22q57 -28 80 -87q29 -76 29 -196q0 -38 -2 -140q-8 -464 -46 -571q-16 -44 -52 -44z" />
<glyph unicode="n" horiz-adv-x="998" d="M783 -51q-23 0 -54 12q-47 18 -80 54.5t-33 85.5q0 18 11 77q19 97 21 234q0 66 -3 154l-1 46q-1 133 -44 163q-30 21 -70 21q-90 0 -155 -56q-24 -21 -24 -62q0 -47 9 -93q3 -18 7 -56q23 -202 23 -337q0 -208 -86 -208q-2 0 -28 2t-70 39t-52.5 87t-8.5 94q0 24 2 46 q2 33 2 75q0 119 -28 322q-26 191 -26 259q0 107 74 107q37 0 95 -26q49 -22 87 -22q41 0 91 13q61 15 132 15q97 0 170 -37q136 -70 136 -611q0 -161 -19 -302q-14 -96 -78 -96z" />
<glyph unicode="o" horiz-adv-x="927" d="M412 196l19 1q116 19 153 192q16 78 16 159q0 55 -5 110q-12 118 -73 154q-15 9 -35 9q-27 0 -62 -19q-62 -35 -85 -110q-25 -82 -25 -195q0 -161 13 -222q16 -79 84 -79zM460 13q-148 0 -250 82q-90 71 -110 179q-8 42 -8 97l1 183q1 114 25 212q57 229 349 240 q141 0 226 -69q156 -126 156 -425q0 -127 -30 -243q-66 -256 -359 -256z" />
<glyph unicode="p" horiz-adv-x="956" d="M416 246q20 0 47 10q123 48 162 248q16 86 16 116q0 129 -48 196q-34 45 -108 58h-9q-58 0 -69 -48q-8 -33 -8 -70v-75q0 -114 -20 -260q-13 -89 -13 -106q0 -69 50 -69zM250 -636q-21 0 -49 14q-86 41 -100 122q-8 47 -8 97q0 35 3 71q5 59 12 266q17 461 33 566 q20 127 20 260q0 223 33 290q17 36 48 41q18 4 38 4q106 0 234 -34q102 -27 178 -78q96 -64 136 -134.5t46 -154.5q2 -33 2 -70q0 -55 -3 -119q-19 -291 -215 -412q-58 -36 -98 -43q-19 -4 -134 -6q-68 -2 -82 -33q-10 -23 -10 -59q0 -13 1 -28.5t1 -67.5q0 -103 -4 -334 q-2 -111 -49 -148q-13 -10 -33 -10z" />
<glyph unicode="q" horiz-adv-x="1064" d="M479 263q119 0 161 28q29 20 31 61l1 36q0 24 -3 47q-5 48 -5 151q0 85 4 170q0 78 -20 111q-15 25 -58 25q-21 0 -48 -7q-88 -24 -129 -106.5t-66 -172.5q-38 -138 -38 -221q0 -14 2.5 -53t49.5 -56q37 -13 118 -13zM806 -556q-5 0 -34 1.5t-76 37.5q-59 44 -59 129 q0 72 15 178q16 118 16 180q0 47 -12 69q-17 30 -57 34q-15 1 -31 1q-25 0 -49.5 -2.5t-41.5 -2.5q-252 6 -349 113q-65 73 -65 213q0 157 70 357q117 333 410 333q96 0 166 -6q96 -9 141 -42q64 -49 64 -251v-644q0 -583 -46 -665q-18 -33 -62 -33z" />
<glyph unicode="r" horiz-adv-x="987" d="M244 -45q-21 0 -45 9q-107 40 -107 152q0 36 19 125q13 62 18 129q21 290 21 482q0 25 -1 51.5t-1 53.5q0 28 1 54q2 65 35 108q25 35 75 35q14 0 29 -4q50 -11 68.5 -42t24.5 -63q6 -27 16 -43q7 -10 22 -10q26 0 106 40q134 67 234 67q115 0 207 -59q44 -29 60 -72 q3 -6 3 -12q0 -14 -9 -37q-22 -54 -77 -54q-29 0 -68.5 9.5t-77.5 9.5q-74 0 -219 -66q-114 -52 -156 -123q-34 -57 -43.5 -146.5t-12.5 -172.5q-1 -36 -3 -66q-4 -50 -6 -102q-2 -56 -6 -111q-5 -68 -42 -113q-24 -29 -65 -29z" />
<glyph unicode="s" horiz-adv-x="1053" d="M394 -22q-67 0 -140 14.5t-153 87.5q-12 11 -22 24q-46 55 -46 97q0 10 8 39t60 40q11 2 22 2q43 0 89.5 -34t70.5 -49.5t46 -18.5q15 -1 95 -1q93 1 139 5q129 11 129 113q0 44 -47 58q-36 11 -111 13q-113 3 -173 26q-54 19 -109.5 69.5t-58.5 109.5v35q0 44 9 93 q30 172 110 256.5t256 84.5q79 0 175 -19q219 -44 259 -188l1 -12q0 -10 -6 -26q-15 -40 -58 -40q-44 0 -128 47q-92 52 -184 52q-21 0 -77 -8t-100 -112q-19 -47 -19 -82q0 -19 7.5 -52.5t80.5 -42.5q30 -3 63 -4q72 -3 144.5 -13.5t132 -44t89.5 -105.5q15 -38 15 -81 q0 -62 -36 -154t-132 -132q-85 -36 -319 -45q-51 -2 -82 -2z" />
<glyph unicode="t" horiz-adv-x="903" d="M607 -100q-39 0 -128.5 9t-167.5 64q-125 87 -138 238q-4 48 -4 97q0 126 12 258q9 100 9 154q0 38 -14 50.5t-36.5 16t-47 20t-42.5 67.5q-7 22 -7 39q0 58 95 63q52 2 64.5 21.5t14 59t12.5 114.5q19 133 50 163q26 27 65 27q47 0 94 -21q14 -6 33 -64q13 -41 13 -83 q0 -52 -16 -118q-10 -42 -10 -70q0 -18 5 -24.5t36 -6.5q11 0 22 1.5t22 1.5q14 0 32.5 -4t47.5 -34q33 -34 33 -70q0 -11 -7.5 -40t-75.5 -43q-42 -8 -69 -8t-42 -5t-22 -25.5t-7 -67.5q-1 -61 -7 -143q-11 -142 -11 -224q0 -88 20 -128q32 -63 87 -63l33 2q39 3 114 62 q59 46 100 46q33 0 74 -29q56 -40 56 -93q0 -4 -3 -36.5t-46.5 -83.5t-100.5 -70q-61 -20 -142 -20z" />
<glyph unicode="u" horiz-adv-x="1028" d="M862 -21q-53 0 -129 37q-39 20 -55 20q-13 0 -31 -8q-67 -31 -178 -31q-38 0 -110.5 8.5t-151.5 60.5t-95 150q-7 43 -7 91q0 36 2 75q3 61 3 111q2 404 33 477q16 40 72 61q25 9 48 9q39 0 79 -30q51 -39 51 -128q0 -64 -14 -153q-11 -67 -14 -119q-3 -63 -3 -321 q0 -108 84 -108q25 0 59 7q126 26 132 146q17 233 28.5 328t11.5 203v41q0 89 47 107q20 7 42 7q29 0 72.5 -20.5t61.5 -63.5q17 -39 17 -101q0 -103 -32 -296q-19 -115 -19 -216q0 -119 57 -209q17 -28 17 -49q0 -12 -3 -27q-10 -48 -47 -56q-13 -3 -28 -3z" />
<glyph unicode="v" horiz-adv-x="1106" d="M591 -48q-57 0 -135 47q-144 86 -213 225q-92 187 -165 585q-14 79 -14 159q0 63 22 107q16 34 56 34q24 0 55 -13q78 -33 95.5 -85t18.5 -118q2 -143 79 -422q71 -256 130 -256q11 0 19 13l2 1q53 84 162 432l54 168q73 216 122 267q40 40 87 40q9 0 42.5 -5.5 t63.5 -61.5q15 -28 15 -65q0 -59 -56 -186q-19 -43 -35 -86q-94 -244 -162 -496q-26 -96 -49 -135q-87 -149 -194 -149z" />
<glyph unicode="w" horiz-adv-x="1375" d="M490 -20q-72 0 -147 57q-120 89 -167 283q-26 107 -42 216q-8 53 -18 104q-42 214 -42 342l1 40q2 135 113 135q83 -13 111 -82t33 -144q4 -57 5 -105q1 -89 23 -200l31 -132q46 -197 69 -209q35 9 78 283q9 58 15 83q13 56 50 104q24 31 61 31q19 0 41 -11 q58 -28 78 -105t28 -154q31 -283 87 -283q69 0 86 411q2 61 6 104q11 137 14.5 275t100.5 138q148 0 153 -244l1 -83q0 -39 -2 -75q-1 -15 -2 -129q-2 -131 -10 -263q-7 -103 -40 -190t-121 -147q-53 -37 -114 -37q-99 0 -197 68q-49 34 -85 81q-14 18 -18 18q-12 0 -39 -69 q-9 -25 -21 -45t-43 -41q-35 -25 -77 -25z" />
<glyph unicode="x" horiz-adv-x="1130" d="M189 -136q-42 0 -93 27q-57 30 -57 75q22 66 77 137q59 76 124 149q59 67 93 116q37 54 37 97q0 54 -63 137l-58 78q-128 170 -148 223q-8 21 -8 39q0 72 91 83h9q59 0 106 -49.5t115 -153.5q88 -138 106 -153t35 -15q30 0 74 60q17 24 97 111q136 149 194 184 q36 23 75 23q13 0 46 -6.5t70 -48.5q23 -26 23 -55q0 -11 -8 -37q-15 -47 -107 -131q-319 -295 -319 -347q0 -44 78 -133q40 -45 69 -73q45 -43 82 -91q34 -44 34 -91l-1 -8q-9 -67 -79 -67q-25 0 -52 10q-68 27 -111 68.5t-80 91.5q-70 93 -103 93q-30 0 -79 -75 q-70 -107 -153 -203q-55 -65 -116 -65z" />
<glyph unicode="y" horiz-adv-x="904" d="M198 -582q-77 0 -169 18q-67 14 -108 48q-22 18 -22 48q0 26 17 59q22 44 54 51q16 3 33 3t35.5 -3t37.5 -3q32 0 75 12t94 102q34 59 81 167q113 262 113 380q0 39 -120 159q-27 26 -43 44q-114 133 -197 288q-23 43 -42 101q-12 34 -12 64q0 21 9.5 54.5t81.5 42.5h16 q48 0 87 -29q65 -48 130 -177l28 -52q84 -157 123 -157q36 0 72 222q11 73 31 137q30 98 105 98q19 0 40 -6q107 -33 107 -153q0 -47 -40 -181q-19 -65 -33 -134q-72 -344 -169 -681q-22 -75 -61 -171q-95 -234 -214 -309q-67 -42 -140 -42z" />
<glyph unicode="z" horiz-adv-x="1141" d="M949 -108q-113 0 -723 61q-172 17 -172 185q0 23 11 76.5t66 98.5q137 111 273 188q143 82 295 205q85 69 85 93q0 23 -60 23q-38 0 -149 -10q-139 -13 -214 -13q-218 0 -218 116q0 18 9 33q25 45 91 56q116 19 385 19q289 0 412 -79q61 -39 61 -108q0 -151 -289 -309 q-342 -186 -442 -334q-10 -15 -10 -27q0 -42 132 -46q11 0 104 -8q113 -10 252 -10q98 0 156.5 -15t82.5 -96q4 -13 4 -24q0 -75 -142 -75z" />
<glyph unicode="{" horiz-adv-x="1081" d="M676 -257q-139 0 -260 60q-130 62 -181 144q-39 63 -39 162q0 30 3 62q25 221 25 324q0 70 -8 135q-6 44 -29.5 68.5t-55.5 44.5q-81 50 -81 91q0 38 74 89q85 62 114 146q21 63 33 145q20 116 82 228t176 160q96 34 222 50q65 8 114 8q45 0 74.5 -7.5t56.5 -31.5 q35 -31 35 -67q0 -68 -158 -68h-45q-136 -8 -207.5 -60t-105 -135t-55.5 -182q-34 -141 -64 -199t-30 -97q0 -25 9 -54q36 -107 44.5 -175.5t8.5 -180.5q0 -103 -12 -190q-15 -108 -15 -148q0 -9 1.5 -34t31.5 -56q67 -61 158 -61h16q20 0 47 2.5t56 2.5q15 0 43.5 -1 t50.5 -18q46 -40 46 -79q0 -30 -45 -53q-58 -25 -130 -25z" />
<glyph unicode="|" horiz-adv-x="322" d="M206 -195l-10 1q-84 18 -104 90q-15 57 -15 122q5 166 5 358q0 470 -15 758l-10 219q-7 122 -7 148q0 28 2 48q8 61 46 61q31 0 67.5 -29t55.5 -65q20 -42 26 -180q0 -11 1 -19q11 -233 11 -488q0 -118 -1 -235.5t-1 -235.5q0 -153 8 -238q7 -70 7 -142l-1 -47 q0 -126 -65 -126z" />
<glyph unicode="}" horiz-adv-x="1082" d="M214 -257q-44 0 -73 7.5t-55 32.5q-36 32 -36 67q0 30 26 45q36 22 132 22h15q155 0 238 61q71 52 104.5 135t55.5 182q33 136 64 198q30 56 30 97q0 25 -9 54q-36 107 -44.5 175.5t-8.5 180.5q1 104 13 190l6 61q8 51 8 88q0 9 -1 33.5t-32 56.5q-67 61 -157 61 q-26 0 -61.5 -2.5t-70.5 -2.5q-8 0 -34 0.5t-48 18.5q-46 40 -46 78q0 30 45 54q59 25 132 25q135 0 259 -60q129 -63 180 -144q39 -63 39 -163q0 -31 -5 -80q-22 -196 -22 -312q0 -66 7 -128q6 -45 29.5 -69t54 -43t60.5 -45q23 -26 23 -48q0 -37 -75 -89q-21 -16 -39 -31 q-53 -51 -74 -114t-34 -145q-19 -116 -81.5 -228.5t-175.5 -159.5q-97 -34 -223 -50q-67 -9 -116 -9z" />
<glyph unicode="~" horiz-adv-x="1123" d="M779 501q-29 0 -95.5 17.5t-181.5 160.5q-84 103 -142 103q-22 0 -40 -14q-30 -38 -65 -71q-49 -47 -101 -47q-27 0 -62 18t-42 66q2 47 51 98q61 65 90 84q117 103 223 103q105 0 216 -178q84 -134 142 -134q19 0 60.5 37.5t64.5 86.5q13 27 28 52q25 44 60 58q9 4 18 4 q26 0 49 -34q21 -38 21 -80q0 -27 -15 -78t-62.5 -114.5t-88.5 -94.5q-61 -43 -128 -43z" />
<glyph unicode="&#xa1;" horiz-adv-x="503" d="M289 1032q29 0 60 -13q59 -37 59 -90q0 -2 -1 -30.5t-51 -74.5q-57 -49 -109 -49q-21 0 -43 7q-73 31 -73 105q0 35 21 69q34 47 88 67q24 9 49 9zM288 716q27 0 51 -19q34 -35 34 -109q0 -68 -10 -141q-2 -10 -2 -18q-37 -291 -40 -518l1 -97q0 -86 -10 -156 q-18 -79 -66 -115q-35 -26 -70 -26q-14 0 -44.5 9t-47.5 83q-4 21 -4 61q0 117 15 311q8 110 19 207q20 172 20 261l-2 65q0 49 11 87q14 37 48 69q49 46 97 46z" />
<glyph unicode="&#xa2;" horiz-adv-x="1102" d="M438 296q23 52 47 104q54 104 99 205q-75 -48 -109 -106q-36 -63 -40 -160q0 -23 3 -43zM576 107q47 -18 105 -18q28 0 59 4q41 7 68 39q41 53 113 53q58 0 94 -43q26 -30 26 -69q0 -27 -13 -58q-53 -110 -157 -119q-30 -2 -65 -2q-182 0 -303 35q-28 -74 -55 -151 q-35 -105 -95 -105q-18 0 -41 8q-58 25 -70 65q-4 18 -4 36q0 49 43 139q19 37 51 115q-5 5 -10 11q-120 147 -120 317q0 74 21 134q74 202 215 287q105 63 249 71q71 193 114 259q29 35 58 35q14 0 43 -15.5t50 -63.5q8 -21 8 -46q0 -66 -63 -204q37 -25 61 -69 q14 -29 14 -50q0 -20 -13 -33q-23 -23 -72 -23q-27 0 -62 4q-73 -182 -164 -357q-44 -89 -85 -186z" />
<glyph unicode="&#xa3;" horiz-adv-x="1044" d="M486 573q3 -53 3 -126q0 -56 -16 -118.5t-16 -80.5q0 -11 34 -11l368 7q47 0 88 -21q47 -24 47 -83t-50.5 -79.5t-135.5 -25.5q-373 -20 -472 -20q-80 0 -129 20.5t-72 97.5q-4 12 -4 25q0 71 56 167q21 36 21 152q0 48 -2 91l-11 -1q-145 0 -145 51q0 14 10 33 q52 57 130 66h3q-2 16 -5 31q-10 53 -10 87q0 135 69 272q57 114 126.5 181t197.5 67q192 0 281 -57q51 -33 51 -81q0 -25 -19 -50q-50 -69 -130 -69q-53 0 -89 23q-42 27 -75 27q-18 0 -39 -8q-63 -23 -93 -81q-36 -69 -36 -149q0 -67 37 -186q127 2 225 9q13 3 60 3h20 q42 -1 64 -15t22 -36q0 -12 -5 -26q-25 -56 -84 -69.5t-119 -13.5q-30 -2 -156 -3z" />
<glyph unicode="&#xa5;" horiz-adv-x="951" d="M295 706q-26 67 -54 124q-74 143 -132.5 268.5t-58.5 185.5q10 41 48 59q24 12 51 12q15 0 46 -7t62 -51q57 -98 232 -441q11 -18 18 -18q5 0 7 7q20 89 69 239q26 78 32 98q14 50 35 96q37 77 97 77q25 0 58 -14q64 -29 70 -90l1 -25q0 -66 -62 -268q-50 -151 -89 -241 q5 1 10 1q13 3 60 3h20q42 -1 64 -15t22 -36q0 -12 -5 -26q-25 -56 -84 -69.5t-119 -13.5q-10 -1 -31 -1q-1 -5 -3 -9q-11 -41 -27 -67v-31q55 3 103 6q13 3 60 3h20q42 -1 64 -15t22 -36q0 -12 -5 -26q-25 -56 -84 -69.5t-119 -13.5q-16 -1 -59 -2q2 -35 6 -69 q10 -72 10 -109q0 -126 -118 -162q-22 -4 -40 -4q-45 0 -69 34q-33 47 -33 112q0 57 2 115q2 41 2 80q-66 -1 -133 -3l-15 -1q-145 0 -145 51q0 14 10 33q52 57 130 65.5t139 8.5h17v61q-15 16 -32 44q-52 -1 -104 -3l-15 -1q-145 0 -145 51q0 14 10 33q52 57 130 66 q28 3 54 4z" />
<glyph unicode="&#xa6;" horiz-adv-x="322" d="M206 655h-10q-84 8 -104 39q-15 24 -15 52q5 72 5 155q0 202 -15 325l-10 94q-7 53 -7 64q0 12 2 21q8 26 46 26q31 0 67.5 -12.5t55.5 -27.5q20 -19 26 -78q0 -5 1 -8q11 -100 11 -210q0 -51 -1 -101.5t-1 -100.5q0 -66 8 -103q7 -30 7 -61l-1 -20q0 -54 -65 -54z M206 -637h-10q-84 8 -104 39q-15 24 -15 52q5 72 5 155q0 202 -15 325l-10 94q-7 53 -7 64q0 12 2 21q8 26 46 26q31 0 67.5 -12.5t55.5 -27.5q20 -19 26 -78q0 -5 1 -8q11 -100 11 -210q0 -51 -1 -101.5t-1 -100.5q0 -66 8 -103q7 -30 7 -61l-1 -20q0 -54 -65 -54z" />
<glyph unicode="&#xa7;" horiz-adv-x="1054" d="M553 -257q-79 0 -175 19q-219 44 -260 188l-1 9q0 11 7 29q15 40 58 40q44 0 128 -47q92 -52 184 -52q21 0 77 8t102 111q17 48 17 83q0 19 -7.5 52.5t-80.5 42.5q-30 3 -63 4q-72 3 -144.5 13.5t-132 44t-92.5 104.5q-12 40 -12 82q0 158 138 291q-102 68 -106 148 l-1 25q0 49 12 103q28 172 108 256.5t256 84.5q79 0 175 -19q219 -44 260 -188l1 -9q0 -11 -7 -29q-15 -40 -58 -40q-44 0 -128 47q-92 52 -184 52q-21 0 -77 -8t-102 -111q-17 -48 -17 -83q0 -19 7.5 -52.5t80.5 -42.5q30 -3 63 -4q72 -3 144.5 -13.5t132 -44t92.5 -104.5 q12 -40 12 -82q0 -158 -138 -291q102 -68 106 -148l1 -25q0 -49 -12 -103q-28 -172 -108 -256.5t-256 -84.5zM584 418q105 91 107 215q0 47 -49 63q-35 10 -108 11q-105 -91 -107 -215q0 -47 49 -63q35 -10 108 -11z" />
<glyph unicode="&#xa8;" horiz-adv-x="821" d="M219 1113l-14 1q-79 10 -122 60q-23 28 -23 65q0 69 61 129q45 44 91 44q85 0 127 -84q26 -50 26 -98q0 -39 -28 -71q-23 -25 -60 -36q-30 -10 -58 -10zM615 1113l-14 1q-79 10 -122 60q-23 28 -23 65q0 69 61 129q44 44 91 44q85 0 127 -84q26 -50 26 -98q0 -39 -28 -71 q-23 -25 -60 -36q-30 -10 -58 -10z" />
<glyph unicode="&#xa9;" horiz-adv-x="1411" d="M705 96q284 0 371 202q68 156 68 392q0 69 -11 175.5t-69 198.5q-36 57 -111.5 122t-167.5 96q-38 13 -75 13q-183 0 -327.5 -190.5t-144.5 -630.5q0 -68 24 -146.5t116 -138.5q143 -93 327 -93zM686 -20q-187 0 -342 91q-278 165 -290 430l-1 51q0 123 32 240 q86 316 201 462q139 176 366 176q146 0 266 -75q104 -66 162 -117q95 -72 143 -157t73 -193.5t25 -264.5q0 -35 -4 -155.5t-66 -244.5q-33 -68 -93 -122q-136 -121 -472 -121zM789 305q-140 0 -228 30q-70 27 -111 77q-84 104 -84 222q0 52 15 94q51 142 150 201 q83 50 202 50q22 0 45 -1q79 -4 117 -72q10 -20 10 -35q0 -14 -9 -23q-16 -16 -51 -16q-24 0 -57 4q-22 3 -42 3q-14 0 -36.5 -2.5t-69.5 -29.5q-58 -35 -83 -78.5t-28 -111.5q0 -97 60 -141q47 -34 112 -34q20 0 42 3q28 5 47 27q29 37 79 37q41 0 66 -30q18 -21 18 -48 q0 -19 -9 -41q-37 -77 -110 -83q-20 -2 -45 -2z" />
<glyph unicode="&#xab;" horiz-adv-x="1346" d="M713 829q0 -34 -17 -55q-20 -21 -149 -93q-43 -23 -74 -42q-122 -75 -149 -105q-5 -9 -5 -18q0 -28 68 -78q60 -53 114 -94q126 -92 170 -161q17 -38 17 -64q0 -31 -24.5 -46t-60.5 -15q-27 0 -59 9q-86 28 -156 80.5t-135 113.5l-80 71q-69 55 -96 106t-27 114 q0 75 41 117q30 31 66 57l40 31q69 59 117 92.5t149 84.5q109 65 144 65q39 -5 67.5 -48.5t33.5 -76.5t5 -45zM1297 829q0 -34 -17 -55q-20 -21 -149 -93q-43 -23 -74 -42q-122 -75 -149 -105q-5 -9 -5 -18q0 -28 68 -78q60 -53 114 -94q126 -92 170 -161q17 -38 17 -64 q0 -31 -24.5 -46t-60.5 -15q-27 0 -59 9q-86 28 -156 80.5t-135 113.5l-80 71q-69 55 -96.5 106t-27.5 114q0 75 42 117q30 31 66 57l40 31q69 59 117 92.5t149 84.5q109 65 144 65q39 -5 67.5 -48.5t33.5 -76.5t5 -45z" />
<glyph unicode="&#xad;" horiz-adv-x="409" d="M205 372q-150 0 -176 4q-32 4 -72 28t-61 56q-9 13 -9 26q0 16 18 30q33 27 284 27q100 0 147 -10q66 -13 87 -63q7 -16 7 -30q0 -29 -30 -47q-34 -21 -195 -21z" />
<glyph unicode="&#xae;" horiz-adv-x="1409" d="M702 96q284 0 371 202q68 156 68 392q0 69 -11 175.5t-69 198.5q-36 57 -111.5 122t-167.5 96q-38 13 -75 13q-183 0 -327.5 -190.5t-144.5 -630.5q0 -68 24 -146.5t116 -138.5q143 -93 327 -93zM683 -20q-187 0 -342 91q-278 165 -290 430l-1 51q0 123 32 240 q86 316 201 462q139 176 366 176q146 0 266 -75q104 -66 162 -117q95 -72 143 -157t73 -193.5t25 -264.5q0 -35 -4 -155.5t-66 -244.5q-33 -68 -93 -122q-136 -121 -472 -121zM928 318q-51 0 -176 213q-20 35 -51 79q-23 33 -23 67q0 11 6 39q5 22 70 54q60 31 60 65l-1 17 q-1 17 -20 34q-23 12 -51 12q-62 0 -110 -37q-15 -17 -15 -45q0 -33 6 -65q21 -168 21 -276q0 -69 -12 -112q-16 -33 -48 -33q-1 0 -19.5 1.5t-49 27t-38.5 60.5q-4 35 -4 66q0 17 1 32q2 24 2 53q0 83 -20 225q-18 134 -18 182q0 74 52 74q26 0 65 -19q35 -14 62 -14 q29 0 64 9q43 11 92 11q68 0 119 -26t68 -107q12 -28 12 -65q0 -24 -9 -73.5t-98 -107.5q47 -82 99 -141q28 -31 34 -42q13 -22 13 -45q0 -41 -33 -80q-24 -33 -50 -33z" />
<glyph unicode="&#xb0;" horiz-adv-x="690" d="M383 697q-159 0 -241 94q-102 117 -102 316q0 314 362 314q93 0 147 -30q101 -59 101 -230q0 -51 -6 -89q-36 -214 -121 -328q-38 -41 -102 -46zM319 863q19 0 43.5 24.5t47 88t34.5 125.5t12 89q-8 63 -68 86q-33 13 -57 13q-86 0 -93 -165q-6 -61 -6 -91q0 -25 3 -70.5 t45 -83.5q21 -16 39 -16z" />
<glyph unicode="&#xb1;" horiz-adv-x="872" d="M464 223q-20 0 -60 23q-60 34 -79 69q-13 27 -13 71q2 51 7 101q0 19 -4.5 47.5t-48.5 44.5q-39 11 -68 11t-53 -4q-20 -4 -41 -4q-15 0 -42 4t-84 46q-29 28 -29 47q0 32 71 43q37 6 114 9q20 0 37 3q74 5 97.5 5t24 17t0.5 74q-3 70 -3 101q0 62 7 119q4 13 17 20 q24 13 57 13q88 0 107 -68q17 -61 17 -134q1 -44 5 -75q13 -55 70 -66q41 -7 80 -7q43 0 97 2q37 0 63 -3q32 -3 55 -28q24 -42 24 -69q0 -13 -13 -31.5t-86 -19.5q-43 -1 -94 -1l-92 -1l-40 2q-14 0 -35.5 -2t-33.5 -21q-8 -19 -8 -221q2 -41 2 -61q0 -56 -25 -56zM104 0 q-15 0 -42 4t-82 49q-31 25 -31 44q0 32 71 43q37 6 114 8q20 1 37 3q40 3 155 3q62 0 324 -3l115 1q26 0 45 -2q32 -3 51 -31q28 -39 28 -66q0 -13 -13 -31.5t-86 -19.5q-43 -1 -94 -1l-498 7q-29 0 -53 -4q-20 -4 -41 -4z" />
<glyph unicode="&#xb2;" horiz-adv-x="590" d="M325 685q10 1 23 2q17 1 36 1q37 0 68 -14q45 -21 46 -67q0 -49 -42.5 -65t-101.5 -20q-81 -11 -147 -11q-56 0 -116.5 14.5t-79.5 72.5q-3 10 -3 19q0 50 76 116q23 21 73 70q20 20 41 39q89 74 138 147q22 37 22 79q0 44 -20 79q-24 44 -63 44q-14 0 -34 -12 q-23 -14 -60 -22q-76 0 -120 55q-15 20 -15 40q0 37 40 68q68 35 201 35q95 0 145.5 -45t87.5 -117q48 -85 48 -170q0 -22 -7 -56q-11 -58 -105 -159q-16 -17 -32 -36q-31 -32 -62 -57q-24 -19 -37 -30z" />
<glyph unicode="&#xb3;" horiz-adv-x="628" d="M129 507q-33 4 -79 30q-62 34 -62 75q0 36 63 59q32 11 95 23.5t125 30t86 39.5q19 25 19 52q0 13 -6.5 23.5t-48.5 10.5t-81.5 8t-77.5 43q-22 26 -22 48q0 37 61 68q18 11 39 21q43 20 77 45t45 65q1 6 1 13q0 40 -72 42q-27 0 -57 -2q-24 -2 -48 -2q-25 0 -63.5 3.5 t-82.5 35.5q-29 26 -29 50q0 82 192 82q29 0 99 -4q161 -9 229 -108q40 -59 40 -123q0 -55 -34 -103q-31 -36 -69 -62q46 -23 73 -59q56 -76 56 -145q0 -28 -16.5 -72.5t-91.5 -82.5q-62 -29 -175.5 -64.5t-184.5 -39.5z" />
<glyph unicode="&#xb4;" horiz-adv-x="595" d="M129 1057q-31 0 -55 22.5t-24 61.5q0 40 50 71t74 50q65 50 106 92q47 36 65 46q28 17 51 17q56 0 82 -17q33 -20 54 -56q13 -26 13 -32q0 -13 -13 -35q-17 -23 -109 -74q-69 -37 -111 -56q-72 -33 -105 -56q-46 -34 -78 -34z" />
<glyph unicode="&#xb5;" horiz-adv-x="1044" d="M275 -627q-23 0 -47 9q-57 22 -73 63q-31 77 -33 496q0 52 -3 115q-2 41 -2 144t2 144q3 63 3 115q2 419 33 496q16 41 73 63q24 9 47 9q39 0 79 -32q51 -40 51 -132q0 -67 -14 -159q-11 -70 -14 -124q-3 -65 -3 -333q0 -112 84 -112q25 0 59 7q126 27 132 152 q17 246 28 338q12 101 12 256q0 93 47 111q20 8 42 8q29 0 72.5 -21.5t61.5 -66.5q17 -41 17 -105q0 -107 -32 -307q-19 -119 -19 -225q0 -123 56 -216q18 -30 18 -51q0 -13 -3 -29q-10 -49 -47 -58q-13 -3 -28 -3q-54 0 -129 39q-39 20 -55 20q-13 0 -31 -8 q-67 -32 -178 -32q-37 0 -107 9l4 -133q2 -54 13 -124q14 -92 14 -160q0 -91 -51 -132q-40 -31 -79 -31z" />
<glyph unicode="&#xb6;" horiz-adv-x="924" d="M793 -194q-6 0 -11 2q-84 16 -104 88q-13 49 -13 114q3 174 3 366q0 470 -15 758l-16 326q-102 0 -177 -7q22 -165 22 -624q0 -118 -1.5 -235.5t-1.5 -235.5q0 -153 8 -238q7 -70 7 -189q0 -125 -64 -125q-6 0 -11 2q-84 16 -104 88q-13 48 -13 111q3 177 3 369 q0 265 -5 472q-50 0 -137 99q-113 130 -113 257v104q0 40 68 184q29 61 133 104q71 30 101 30q192 -14 284 -14q75 0 156.5 -5.5t81.5 -66.5q0 -57 -54 -71q25 -133 25 -640q0 -118 -1 -235.5t-1 -235.5q0 -153 8 -238q6 -61 6 -189q0 -125 -64 -125z" />
<glyph unicode="&#xb7;" horiz-adv-x="508" d="M161 637q-82 0 -128 42q-34 34 -34 82v4q18 93 133 93q29 0 58 -9q91 -23 93 -119q-1 -58 -50 -79q-33 -14 -72 -14z" />
<glyph unicode="&#xb8;" horiz-adv-x="543" d="M250 -540q-32 0 -58 1q-142 5 -142 87q0 41 31 62q19 13 51 13q16 0 26 -2q23 -5 36 -5h56q48 0 62 13.5t14 30.5q0 29 -49 36l-55 4q-56 4 -56 71v12q9 122 30 164q31 62 65 94q24 23 45 23q66 0 69 -81q0 -42 -47 -132l-2 -3q81 0 125 -61q19 -26 29.5 -44.5 t11.5 -54.5l1 -46q0 -113 -154 -166q-48 -16 -89 -16z" />
<glyph unicode="&#xb9;" horiz-adv-x="372" d="M229 488q-39 3 -83.5 31t-53.5 62q-3 18 -3 76l2 365l-1 41q-2 54 -2 116q0 65 13 92q26 35 71 35q11 0 44.5 -6.5t63.5 -50.5q23 -42 23 -159q0 -50 -4 -184q-4 -112 -4 -200q0 -47 6 -94q3 -20 3 -47q0 -76 -75 -77z" />
<glyph unicode="&#xbb;" horiz-adv-x="1346" d="M50 829q0 12 5 45t33.5 76.5t67.5 48.5q35 0 144 -65q101 -51 149 -84.5t117 -92.5l40 -31q36 -26 66 -57q41 -42 41 -117q0 -63 -27 -114t-96 -106l-80 -71q-65 -61 -135 -113.5t-156 -80.5q-33 -9 -59 -9q-36 0 -60.5 15t-24.5 46q0 26 17 64q44 69 170 161 q54 41 113 94q68 50 68 78q0 9 -4 18q-28 30 -149 105q-31 19 -74 42q-129 72 -149 93q-17 21 -17 55zM633 829q0 12 5 45t33.5 76.5t67.5 48.5q36 0 144 -65q101 -51 149 -84.5t117 -92.5l40 -31q36 -26 66 -57q42 -42 42 -117q0 -63 -27.5 -114t-96.5 -106l-80 -71 q-65 -61 -135 -113.5t-156 -80.5q-32 -9 -58 -9q-36 0 -60.5 15t-24.5 46q0 26 16 64q45 69 170 161q54 41 114 94q68 50 68 78q0 9 -5 18q-27 30 -149 105q-31 19 -74 42q-128 72 -149 93q-17 21 -17 55z" />
<glyph unicode="&#xbc;" horiz-adv-x="1629" d="M295 488q-39 3 -83.5 31t-53.5 62q-3 18 -3 76l2 365l-1 41q-2 54 -2 116q0 65 13 92q26 35 71 35q11 0 44.5 -6.5t63.5 -50.5q23 -42 23 -159q0 -50 -4 -184q-4 -112 -4 -200q0 -47 6 -94q3 -20 3 -47q0 -76 -75 -77zM204 -51q-19 0 -51 14t-54 53q-11 19 -11 37 q0 20 12 40q91 127 180 254q162 232 330 461q81 113 144 233q66 126 160 259q20 29 39 63q22 40 44 69q37 40 77 40q11 0 42 -8t53 -65q8 -27 8 -52q0 -55 -43 -118q-222 -357 -352 -537q-87 -118 -171 -237q-106 -151 -216 -298q-14 -18 -38 -54q-87 -125 -111 -142 q-20 -12 -42 -12zM1154 471q9 1 36 1q39 0 141 7q21 1 26.5 11t7.5 41q2 2 3 32q2 41 10 90q-21 -22 -59 -50q-22 -15 -84 -62q-66 -52 -81 -70zM1418 0q-23 0 -51 13q-70 35 -70 113q0 38 23 112q17 49 17 70q0 12 -3 14q-30 0 -78 -5q-37 -3 -89 -3l-73 1q-41 0 -82 -2 q-26 0 -61.5 4.5t-66.5 27t-31 68.5q0 37 29 72q21 24 47 47.5t67 66.5q193 208 304 208q47 0 75 -26l3 -1q24 -28 29 -51q24 36 66 36q58 0 95 -47q22 -27 23 -54q0 -69 -16 -144q-12 -59 -19 -135q-6 -69 -26 -173l-16 -90q-12 -85 -57 -111q-17 -11 -39 -11z" />
<glyph unicode="&#xbd;" horiz-adv-x="1417" d="M295 488q-39 3 -83.5 31t-53.5 62q-3 18 -3 76l2 365l-1 41q-2 54 -2 116q0 65 13 92q26 35 71 35q11 0 44.5 -6.5t63.5 -50.5q23 -42 23 -159q0 -50 -4 -184q-4 -112 -4 -200q0 -47 6 -94q3 -20 3 -47q0 -76 -75 -77zM204 -51q-19 0 -51 14t-54 53q-11 19 -11 37 q0 20 12 40q91 127 180 254q162 232 330 461q81 113 144 233q66 126 160 259q20 29 39 63q22 40 44 69q37 40 77 40q11 0 42 -8t53 -65q8 -27 8 -52q0 -55 -43 -118q-222 -357 -352 -537q-87 -118 -171 -237q-106 -151 -216 -298q-14 -18 -38 -54q-87 -125 -111 -142 q-20 -12 -42 -12zM1152 174q10 1 23 2q17 1 36 1q37 0 68 -14q45 -21 46 -67q0 -49 -42.5 -65t-101.5 -20q-81 -11 -147 -11q-56 0 -116.5 14.5t-79.5 72.5q-3 10 -3 19q0 50 76 116q23 21 73 70q20 20 41 39q89 74 138 147q22 37 22 79q0 44 -20 79q-24 44 -63 44 q-14 0 -34 -12q-23 -14 -60 -22q-76 0 -120 55q-15 20 -15 40q0 37 40 68q68 35 201 35q95 0 145.5 -45t87.5 -117q48 -85 48 -170q0 -22 -7 -56q-11 -58 -105 -159q-16 -17 -32 -36q-31 -32 -62 -57q-24 -19 -37 -30z" />
<glyph unicode="&#xbe;" horiz-adv-x="1819" d="M129 507q-33 4 -79 30q-62 34 -62 75q0 36 63 59q32 11 95 23.5t125 30t86 39.5q19 25 19 52q0 13 -6.5 23.5t-48.5 10.5t-81.5 8t-77.5 43q-22 26 -22 48q0 37 61 68q18 11 39 21q43 20 77 45t45 65q1 6 1 13q0 40 -72 42q-27 0 -57 -2q-24 -2 -48 -2q-25 0 -63.5 3.5 t-82.5 35.5q-29 26 -29 50q0 82 192 82q29 0 99 -4q161 -9 229 -108q40 -59 40 -123q0 -55 -34 -103q-31 -36 -69 -62q46 -23 73 -59q56 -76 56 -145q0 -28 -16.5 -72.5t-91.5 -82.5q-62 -29 -175.5 -64.5t-184.5 -39.5zM394 -51q-19 0 -51 14t-54 53q-11 19 -11 37 q0 20 12 40q91 127 180 254q162 232 330 461q81 113 144 233q66 126 160 259q20 29 39 63q22 40 44 69q37 40 77 40q11 0 42 -8t53 -65q8 -27 8 -52q0 -55 -43 -118q-222 -357 -352 -537q-87 -118 -171 -237q-106 -151 -216 -298q-14 -18 -38 -54q-87 -125 -111 -142 q-20 -12 -42 -12zM1344 471q9 1 36 1q39 0 141 7q21 1 26.5 11t7.5 41q2 2 3 32q2 41 10 90q-21 -22 -59 -50q-22 -15 -84 -62q-66 -52 -81 -70zM1608 0q-23 0 -51 13q-70 35 -70 113q0 38 23 112q17 49 17 70q0 12 -3 14q-30 0 -78 -5q-37 -3 -89 -3l-73 1q-41 0 -82 -2 q-26 0 -61.5 4.5t-66.5 27t-31 68.5q0 37 29 72q21 24 47 47.5t67 66.5q193 208 304 208q47 0 75 -26l3 -1q24 -28 29 -51q24 36 66 36q58 0 95 -47q22 -27 23 -54q0 -69 -16 -144q-12 -59 -19 -135q-6 -69 -26 -173l-16 -90q-12 -85 -57 -111q-17 -11 -39 -11z" />
<glyph unicode="&#xbf;" horiz-adv-x="968" d="M828 750q98 0 119 -71q10 -31 10 -64q0 -29 -11.5 -79t-40.5 -97q-51 -76 -116 -114t-137 -65q-124 -47 -204 -110q-84 -64 -122 -125q-23 -38 -23 -95q0 -35 9 -77q27 -110 110 -110q98 0 188 104q64 73 125 73q22 0 49 -6q111 -36 111 -122q0 -59 -64 -116 q-74 -62 -182 -105.5t-206 -45.5q-168 2 -273 134q-90 114 -105 274q-2 24 -2 47q0 130 70 234q61 80 152 131t185 87q86 31 127 67.5t75 124.5q49 126 156 126zM742 1032q96 0 150 -48q40 -41 40 -97v-5q-20 -109 -156 -109q-35 0 -69 10q-107 28 -109 141q1 68 59 92 q39 16 85 16z" />
<glyph unicode="&#xc0;" d="M746 698q56 0 56 35q0 49 -66 221q-26 66 -37.5 89t-25.5 23q-4 0 -9 -2q-18 -18 -40.5 -65t-42 -97.5t-28.5 -77.5q-7 -23 -7 -40q0 -25 18.5 -39.5t67.5 -24.5q13 -2 20 -5q58 -17 94 -17zM172 -11q-32 0 -75 15q-70 27 -85 70q-8 20 -8 42q0 54 55 153q19 37 67 153 q113 262 197 512q46 155 114 301l24 55q29 77 72 120q39 40 129 40q110 -3 150 -69q35 -58 51 -136q23 -90 64 -176q19 -41 35 -83q80 -205 137 -420q47 -206 114 -369q26 -53 30 -116q0 -48 -45 -74q-25 -10 -50 -10q-43 0 -91 32q-107 73 -153 303l-15 68q-19 71 -53 90 q-40 21 -86 21q-74 9 -131 30l-44 13q-38 11 -64 11q-22 0 -38 -11q-12 -12 -39 -77q-49 -119 -107 -289l-22 -60q-46 -139 -133 -139zM709 1520q-32 0 -78 34q-32 23 -105 56q-42 19 -111 56q-92 51 -109 74q-12 22 -12 35q0 6 12 32q21 36 54 56q26 17 83 17q23 0 50 -17 q18 -10 65 -46q41 -42 107 -92q24 -19 74 -50t50 -71q0 -39 -24.5 -61.5t-55.5 -22.5z" />
<glyph unicode="&#xc1;" d="M746 698q56 0 56 35q0 49 -66 221q-26 66 -37.5 89t-25.5 23q-4 0 -9 -2q-18 -18 -40.5 -65t-42 -97.5t-28.5 -77.5q-7 -23 -7 -40q0 -25 18.5 -39.5t67.5 -24.5q13 -2 20 -5q58 -17 94 -17zM172 -11q-32 0 -75 15q-70 27 -85 70q-8 20 -8 42q0 54 55 153q19 37 67 153 q113 262 197 512q46 155 114 301l24 55q29 77 72 120q39 40 129 40q110 -3 150 -69q35 -58 51 -136q23 -90 64 -176q19 -41 35 -83q80 -205 137 -420q47 -206 114 -369q26 -53 30 -116q0 -48 -45 -74q-25 -10 -50 -10q-43 0 -91 32q-107 73 -153 303l-15 68q-19 71 -53 90 q-40 21 -86 21q-74 9 -131 30l-44 13q-38 11 -64 11q-22 0 -38 -11q-12 -12 -39 -77q-49 -119 -107 -289l-22 -60q-46 -139 -133 -139zM538 1520q-31 0 -55 22.5t-24 61.5q0 40 49.5 71t74.5 50q65 50 106 92q47 36 65 46q27 17 51 17q56 0 82 -17q33 -20 54 -56 q13 -26 13 -32q0 -13 -13 -35q-17 -23 -109 -74q-69 -37 -111 -56q-73 -33 -105 -56q-46 -34 -78 -34z" />
<glyph unicode="&#xc2;" horiz-adv-x="1269" d="M750 698q56 0 56 35q0 49 -66 221q-26 66 -37.5 89t-25.5 23q-4 0 -9 -2q-18 -18 -40.5 -65t-42 -97.5t-28.5 -77.5q-7 -23 -7 -40q0 -25 18.5 -39.5t67.5 -24.5q13 -2 20 -5q58 -17 94 -17zM176 -11q-32 0 -75 15q-70 27 -85 70q-8 20 -8 42q0 54 55 153q19 37 67 153 q113 262 197 512q46 155 114 301l24 55q29 77 72 120q39 40 129 40q110 -3 150 -69q35 -58 51 -136q23 -90 64 -176q19 -41 35 -83q80 -205 137 -420q47 -206 114 -369q26 -53 30 -116q0 -48 -45 -74q-25 -10 -50 -10q-43 0 -91 32q-107 73 -153 303l-15 68q-19 71 -53 90 q-40 21 -86 21q-74 9 -131 30l-44 13q-38 11 -64 11q-22 0 -38 -11q-12 -12 -39 -77q-49 -119 -107 -289l-22 -60q-46 -139 -133 -139zM924 1520q-32 0 -78 34q-33 23 -105 56q-42 19 -114 57q-71 -38 -113 -57q-72 -33 -105 -56q-46 -34 -78 -34q-31 0 -55 22.5t-24 61.5 q0 40 50 71q105 65 180 142q47 36 65 46q28 17 81 17q52 0 80 -17q18 -10 65 -46q75 -77 180 -142q50 -31 50 -71q0 -39 -24 -61.5t-55 -22.5z" />
<glyph unicode="&#xc3;" d="M746 698q56 0 56 35q0 49 -66 221q-26 66 -37.5 89t-25.5 23q-4 0 -9 -2q-18 -18 -40.5 -65t-42 -97.5t-28.5 -77.5q-7 -23 -7 -40q0 -25 18.5 -39.5t67.5 -24.5q13 -2 20 -5q58 -17 94 -17zM172 -11q-32 0 -75 15q-70 27 -85 70q-8 20 -8 42q0 54 55 153q19 37 67 153 q113 262 197 512q46 155 114 301l24 55q29 77 72 120q39 40 129 40q110 -3 150 -69q35 -58 51 -136q23 -90 64 -176q19 -41 35 -83q80 -205 137 -420q47 -206 114 -369q26 -53 30 -116q0 -48 -45 -74q-25 -10 -50 -10q-43 0 -91 32q-107 73 -153 303l-15 68q-19 71 -53 90 q-40 21 -86 21q-74 9 -131 30l-44 13q-38 11 -64 11q-22 0 -38 -11q-12 -12 -39 -77q-49 -119 -107 -289l-22 -60q-46 -139 -133 -139zM841 1547h-20q-190 0 -304 86q-29 22 -48 22q-26 0 -64 -72q-30 -16 -52 -16q-66 0 -75 76v5q0 32 59 100q36 41 92 58q9 3 22 3 q65 0 226 -74q78 -36 108 -36q33 0 50 69q12 46 55 46q79 -3 79 -67v-40q0 -46 -41 -103t-87 -57z" />
<glyph unicode="&#xc4;" d="M746 698q56 0 56 35q0 49 -66 221q-26 66 -37.5 89t-25.5 23q-4 0 -9 -2q-18 -18 -40.5 -65t-42 -97.5t-28.5 -77.5q-7 -23 -7 -40q0 -25 18.5 -39.5t67.5 -24.5q13 -2 20 -5q58 -17 94 -17zM172 -11q-32 0 -75 15q-70 27 -85 70q-8 20 -8 42q0 54 55 153q19 37 67 153 q113 262 197 512q46 155 114 301l24 55q29 77 72 120q39 40 129 40q110 -3 150 -69q35 -58 51 -136q23 -90 64 -176q19 -41 35 -83q80 -205 137 -420q47 -206 114 -369q26 -53 30 -116q0 -48 -45 -74q-25 -10 -50 -10q-43 0 -91 32q-107 73 -153 303l-15 68q-19 71 -53 90 q-40 21 -86 21q-74 9 -131 30l-44 13q-38 11 -64 11q-22 0 -38 -11q-12 -12 -39 -77q-49 -119 -107 -289l-22 -60q-46 -139 -133 -139zM432 1576l-13 1q-79 10 -122 60q-24 28 -24 65q0 69 62 129q44 44 91 44q84 0 127 -84q25 -50 25 -98q0 -39 -27 -71q-23 -25 -60 -36 q-31 -10 -59 -10zM828 1576l-14 1q-79 10 -122 60q-23 28 -23 65q0 69 61 129q45 44 91 44q85 0 127 -84q26 -50 26 -98q0 -39 -28 -71q-23 -25 -60 -36q-30 -10 -58 -10z" />
<glyph unicode="&#xc5;" d="M746 698q56 0 56 35q0 49 -66 221q-26 66 -37.5 89t-25.5 23q-4 0 -9 -2q-18 -18 -40.5 -65t-42 -97.5t-28.5 -77.5q-7 -23 -7 -40q0 -25 18.5 -39.5t67.5 -24.5q13 -2 20 -5q58 -17 94 -17zM172 -11q-32 0 -75 15q-70 27 -85 70q-8 20 -8 42q0 54 55 153q19 37 67 153 q113 262 197 512q46 155 114 301l24 55q29 77 72 120q39 40 129 40q110 -3 150 -69q35 -58 51 -136q23 -90 64 -176q19 -41 35 -83q80 -205 137 -420q47 -206 114 -369q26 -53 30 -116q0 -48 -45 -74q-25 -10 -50 -10q-43 0 -91 32q-107 73 -153 303l-15 68q-19 71 -53 90 q-40 21 -86 21q-74 9 -131 30l-44 13q-38 11 -64 11q-22 0 -38 -11q-12 -12 -39 -77q-49 -119 -107 -289l-22 -60q-46 -139 -133 -139zM667 1499h-54q-32 0 -104 36.5t-78 63.5q-12 56 -12 112q0 76 69.5 147.5t147.5 71.5q81 0 116 -42q77 -91 77 -177v-32q0 -89 -94 -158 q-28 -22 -68 -22zM644 1638q43 0 45 76q0 52 -52 84q-77 0 -77 -83q0 -13 47 -76q18 -1 37 -1z" />
<glyph unicode="&#xc6;" horiz-adv-x="1622" d="M746 698l14 1q2 35 2 68q0 80 -14 209q-15 137 -15 224l1 36q-136 -292 -152 -334q-20 -51 -29 -78q-7 -23 -7 -40q0 -25 18.5 -39.5t67.5 -24.5q13 -2 20 -5q58 -17 94 -17zM1122 -39q-37 0 -115.5 2.5t-168.5 48.5t-103 164q-1 26 -1 54q0 158 9 282q-70 9 -124 29 l-44 13q-38 11 -64 11q-22 0 -38 -11q-12 -12 -39 -77q-49 -119 -107 -289l-22 -60q-46 -139 -133 -139q-32 0 -75 15q-70 27 -85 70q-8 20 -8 42q0 54 55 153q19 37 67 153q113 262 197 512q46 155 114 301l24 55q29 77 72 120q39 40 129 40q104 -3 119 -63q42 40 130 47 q48 4 99 4q36 0 73 -2l101 -1q50 2 83 2q61 0 149.5 -5t145.5 -44q52 -44 52 -94q0 -4 -3 -34t-88 -40q-64 0 -155 10q-136 13 -203 13q-94 0 -120 -20q-24 -36 -27 -176q-1 -40 -3 -66q-7 -51 -7 -76q0 -16 2.5 -48.5t51.5 -43.5q26 -2 51 -2q38 0 74 5q44 6 90 6 q6 0 35 -1t87 -28q45 -22 80 -69q19 -25 19 -51q0 -22 -14 -44q-25 -29 -77 -33q-31 -3 -63 -3q-19 0 -39.5 1.5t-38.5 1.5q-84 0 -164 5q-9 1 -26 1q-52 0 -66 -20.5t-20 -106.5q-12 -94 -12 -171q0 -34 4.5 -79.5t32.5 -62.5q25 -12 67 -12q50 0 136 11t160 11 q72 0 119 -27q57 -39 57 -85q0 -6 -5 -36t-89 -48q-47 -6 -115 -6l-60 -2q-95 -7 -163 -7z" />
<glyph unicode="&#xc7;" horiz-adv-x="1171" d="M586 -16q-29 5 -61 12q-123 24 -254 130q-163 131 -186 295q-10 101 -10 212l1 57q0 76 -1 113q0 87 13.5 202.5t74.5 198.5q110 125 260 173.5t310 65.5q47 7 91 7q47 0 110.5 -12.5t122.5 -99.5q35 -57 35 -109t-36 -74q-14 -8 -34 -8q-59 0 -148 58q-43 26 -80 26 q-28 0 -91 -10q-191 -31 -275 -110t-102 -205q-13 -94 -13 -213q0 -60 0.5 -118t7 -127t35.5 -118q64 -90 178 -124q69 -20 133 -20q112 0 166 51q28 26 46.5 56t43.5 52t72 26q43 0 83.5 -27t59.5 -68q9 -19 9 -39q0 -22 -12 -46q-39 -68 -98 -120.5t-133 -75.5 q-73 -19 -148 -23q-11 -29 -31 -67l-2 -3q81 0 125 -61q19 -26 29.5 -44.5t11.5 -54.5l1 -46q0 -113 -154 -166q-48 -16 -89 -16q-32 0 -59 1q-141 5 -141 87q0 41 31 62q19 13 51 13q15 0 26 -2q23 -5 36 -5h56q48 0 62 13.5t14 30.5q0 29 -49 36l-55 4q-57 4 -57 71l1 12 q7 101 23 147z" />
<glyph unicode="&#xc8;" horiz-adv-x="1015" d="M515 -39q-37 0 -115 2.5t-168 48.5t-103 164q-2 26 -2 54q0 233 20 393q9 75 9 144q0 80 -14 209q-9 82 -13 172q-3 8 -3 52q0 46 9 110t70 100q48 20 100 24q48 4 98 4q37 0 74 -2l101 -1q50 2 83 2q60 0 149 -5t146 -44q51 -44 51 -94q0 -4 -2.5 -34t-87.5 -40h-14 q-51 0 -141 10q-136 13 -204 13q-94 0 -119 -20q-24 -36 -27 -176q-1 -40 -3 -66q-7 -51 -7 -76q0 -16 2.5 -48.5t51.5 -43.5q26 -2 51 -2q37 0 74 5q44 6 89 6q7 0 36 -1t87 -28q45 -22 80 -69q19 -25 19 -51q0 -22 -14 -44q-25 -29 -77 -33q-32 -3 -63 -3q-19 0 -39.5 1.5 t-38.5 1.5q-84 0 -164 5q-9 1 -27 1q-51 0 -65 -20.5t-20 -106.5q-12 -94 -12 -171q0 -34 4.5 -79.5t32.5 -62.5q25 -12 67 -12q50 0 136 11t159 11t120 -27q56 -39 56 -85q0 -6 -4.5 -36t-88.5 -48q-47 -6 -115 -6l-60 -2q-95 -7 -164 -7zM653 1520q-33 0 -78 34 q-33 23 -105 56q-42 19 -111 56q-92 51 -109 74q-13 22 -13 35q0 6 13 32q21 36 54 56q26 17 82 17q23 0 51 -17q18 -10 65 -46q40 -42 106 -92q24 -19 74 -50t50 -71q0 -39 -24 -61.5t-55 -22.5z" />
<glyph unicode="&#xc9;" horiz-adv-x="1015" d="M515 -39q-37 0 -115 2.5t-168 48.5t-103 164q-2 26 -2 54q0 233 20 393q9 75 9 144q0 80 -14 209q-9 82 -13 172q-3 8 -3 52q0 46 9 110t70 100q48 20 100 24q48 4 98 4q37 0 74 -2l101 -1q50 2 83 2q60 0 149 -5t146 -44q51 -44 51 -94q0 -4 -2.5 -34t-87.5 -40h-14 q-51 0 -141 10q-136 13 -204 13q-94 0 -119 -20q-24 -36 -27 -176q-1 -40 -3 -66q-7 -51 -7 -76q0 -16 2.5 -48.5t51.5 -43.5q26 -2 51 -2q37 0 74 5q44 6 89 6q7 0 36 -1t87 -28q45 -22 80 -69q19 -25 19 -51q0 -22 -14 -44q-25 -29 -77 -33q-32 -3 -63 -3q-19 0 -39.5 1.5 t-38.5 1.5q-84 0 -164 5q-9 1 -27 1q-51 0 -65 -20.5t-20 -106.5q-12 -94 -12 -171q0 -34 4.5 -79.5t32.5 -62.5q25 -12 67 -12q50 0 136 11t159 11t120 -27q56 -39 56 -85q0 -6 -4.5 -36t-88.5 -48q-47 -6 -115 -6l-60 -2q-95 -7 -164 -7zM481 1520q-31 0 -55 22.5 t-24 61.5q0 40 50 71t74 50q65 50 106 92q47 36 65 46q28 17 51 17q56 0 82 -17q33 -20 54 -56q13 -26 13 -32q0 -13 -13 -35q-17 -23 -109 -74q-69 -37 -111 -56q-72 -33 -105 -56q-46 -34 -78 -34z" />
<glyph unicode="&#xca;" horiz-adv-x="1015" d="M515 -39q-37 0 -115 2.5t-168 48.5t-103 164q-2 26 -2 54q0 233 20 393q9 75 9 144q0 80 -14 209q-9 82 -13 172q-3 8 -3 52q0 46 9 110t70 100q48 20 100 24q48 4 98 4q37 0 74 -2l101 -1q50 2 83 2q60 0 149 -5t146 -44q51 -44 51 -94q0 -4 -2.5 -34t-87.5 -40h-14 q-51 0 -141 10q-136 13 -204 13q-94 0 -119 -20q-24 -36 -27 -176q-1 -40 -3 -66q-7 -51 -7 -76q0 -16 2.5 -48.5t51.5 -43.5q26 -2 51 -2q37 0 74 5q44 6 89 6q7 0 36 -1t87 -28q45 -22 80 -69q19 -25 19 -51q0 -22 -14 -44q-25 -29 -77 -33q-32 -3 -63 -3q-19 0 -39.5 1.5 t-38.5 1.5q-84 0 -164 5q-9 1 -27 1q-51 0 -65 -20.5t-20 -106.5q-12 -94 -12 -171q0 -34 4.5 -79.5t32.5 -62.5q25 -12 67 -12q50 0 136 11t159 11t120 -27q56 -39 56 -85q0 -6 -4.5 -36t-88.5 -48q-47 -6 -115 -6l-60 -2q-95 -7 -164 -7zM863 1520q-32 0 -78 34 q-33 23 -105 56q-42 19 -114 57q-71 -38 -113 -57q-72 -33 -105 -56q-46 -34 -78 -34q-31 0 -55 22.5t-24 61.5q0 40 50 71q105 65 180 142q47 36 65 46q28 17 81 17q52 0 80 -17q18 -10 65 -46q76 -77 180 -142q50 -31 50 -71q0 -39 -24 -61.5t-55 -22.5z" />
<glyph unicode="&#xcb;" horiz-adv-x="1015" d="M515 -39q-37 0 -115 2.5t-168 48.5t-103 164q-2 26 -2 54q0 233 20 393q9 75 9 144q0 80 -14 209q-9 82 -13 172q-3 8 -3 52q0 46 9 110t70 100q48 20 100 24q48 4 98 4q37 0 74 -2l101 -1q50 2 83 2q60 0 149 -5t146 -44q51 -44 51 -94q0 -4 -2.5 -34t-87.5 -40h-14 q-51 0 -141 10q-136 13 -204 13q-94 0 -119 -20q-24 -36 -27 -176q-1 -40 -3 -66q-7 -51 -7 -76q0 -16 2.5 -48.5t51.5 -43.5q26 -2 51 -2q37 0 74 5q44 6 89 6q7 0 36 -1t87 -28q45 -22 80 -69q19 -25 19 -51q0 -22 -14 -44q-25 -29 -77 -33q-32 -3 -63 -3q-19 0 -39.5 1.5 t-38.5 1.5q-84 0 -164 5q-9 1 -27 1q-51 0 -65 -20.5t-20 -106.5q-12 -94 -12 -171q0 -34 4.5 -79.5t32.5 -62.5q25 -12 67 -12q50 0 136 11t159 11t120 -27q56 -39 56 -85q0 -6 -4.5 -36t-88.5 -48q-47 -6 -115 -6l-60 -2q-95 -7 -164 -7zM376 1576l-14 1q-79 10 -122 60 q-23 28 -23 65q0 69 61 129q44 44 91 44q85 0 127 -84q25 -50 25 -98q0 -39 -27 -71q-23 -25 -60 -36q-31 -10 -58 -10zM771 1576l-13 1q-79 10 -122 60q-24 28 -24 65q0 69 62 129q44 44 91 44q84 0 127 -84q25 -50 25 -98q0 -39 -27 -71q-23 -25 -60 -36q-31 -10 -59 -10z " />
<glyph unicode="&#xcc;" horiz-adv-x="724" d="M532 -1q-13 0 -140 10q-109 8 -125 8l-37 -1l-39 1q-57 0 -66 11q-28 37 -28 85q0 11 5 47.5t62 60.5q71 17 86 39q12 17 12 54q-1 21 -2 355q0 243 5 408q0 68 -15.5 116t-68.5 52q-46 0 -56 10q-28 37 -28 85q0 11 5 47.5t62 60.5q34 8 98 8q16 0 82 -6q86 -10 173 -10 l61 2q44 0 71.5 -19t27.5 -81q-2 -66 -36.5 -90t-85.5 -25q-27 0 -44 -5q-39 -14 -39 -111q0 -44 3 -127q12 -415 12 -493q0 -54 7 -119q15 -158 66 -158l18 1q44 0 71.5 -19t27.5 -81q-3 -81 -54 -100q-40 -16 -91 -16zM473 1520q-32 0 -78 34q-33 23 -105 56 q-42 19 -111 56q-92 51 -109 74q-13 22 -13 35q0 6 13 32q21 36 54 56q26 17 82 17q23 0 51 -17q18 -10 65 -46q41 -42 106 -92q24 -19 74 -50t50 -71q0 -39 -24 -61.5t-55 -22.5z" />
<glyph unicode="&#xcd;" horiz-adv-x="724" d="M492 -1q-13 0 -140 10q-109 8 -125 8l-37 -1l-39 1q-57 0 -66 11q-28 37 -28 85q0 11 5 47.5t62 60.5q71 17 86 39q12 17 12 54q-1 21 -2 355q0 243 5 408q0 68 -15.5 116t-68.5 52q-46 0 -56 10q-28 37 -28 85q0 11 5 47.5t62 60.5q34 8 98 8q16 0 82 -6q86 -10 173 -10 l61 2q44 0 71.5 -19t27.5 -81q-2 -66 -36.5 -90t-85.5 -25q-27 0 -44 -5q-39 -14 -39 -111q0 -44 3 -127q12 -415 12 -493q0 -54 7 -119q15 -158 66 -158l18 1q44 0 71.5 -19t27.5 -81q-3 -81 -54 -100q-40 -16 -91 -16zM261 1520q-31 0 -55 22.5t-24 61.5q0 40 50 71t74 50 q65 50 106 92q47 36 65 46q28 17 51 17q56 0 82 -17q33 -20 54 -56q13 -26 13 -32q0 -13 -13 -35q-17 -23 -109 -74q-69 -37 -111 -56q-72 -33 -105 -56q-46 -34 -78 -34z" />
<glyph unicode="&#xce;" horiz-adv-x="722" d="M532 -1q-13 0 -140 10q-109 8 -125 8l-37 -1l-39 1q-57 0 -66 11q-28 37 -28 85q0 11 5 47.5t62 60.5q71 17 86 39q12 17 12 54q-1 21 -2 355q0 243 5 408q0 68 -15.5 116t-68.5 52q-46 0 -56 10q-28 37 -28 85q0 11 5 47.5t62 60.5q34 8 98 8q16 0 82 -6q86 -10 173 -10 l61 2q44 0 71.5 -19t27.5 -81q-2 -66 -36.5 -90t-85.5 -25q-27 0 -44 -5q-39 -14 -39 -111q0 -44 3 -127q12 -415 12 -493q0 -54 7 -119q15 -158 66 -158l18 1q44 0 71.5 -19t27.5 -81q-3 -81 -54 -100q-40 -16 -91 -16zM684 1520q-32 0 -78 34q-33 23 -105 56 q-42 19 -114 57q-71 -38 -113 -57q-72 -33 -105 -56q-46 -34 -78 -34q-31 0 -55 22.5t-24 61.5q0 40 50 71q104 65 180 142q47 36 65 46q28 17 81 17q52 0 80 -17q18 -10 65 -46q75 -77 180 -142q50 -31 50 -71q0 -39 -24 -61.5t-55 -22.5z" />
<glyph unicode="&#xcf;" horiz-adv-x="717" d="M552 -1q-13 0 -140 10q-109 8 -125 8l-37 -1l-39 1q-57 0 -66 11q-28 37 -28 85q0 11 5 47.5t62 60.5q71 17 86 39q12 17 12 54q-1 21 -2 355q0 243 5 408q0 68 -15.5 116t-68.5 52q-46 0 -56 10q-28 37 -28 85q0 11 5 47.5t62 60.5q34 8 98 8q16 0 82 -6q86 -10 173 -10 l61 2q44 0 71.5 -19t27.5 -81q-2 -66 -36.5 -90t-85.5 -25q-27 0 -44 -5q-39 -14 -39 -111q0 -44 3 -127q12 -415 12 -493q0 -54 7 -119q15 -158 66 -158l18 1q44 0 71.5 -19t27.5 -81q-3 -81 -54 -100q-40 -16 -91 -16zM216 1576l-14 1q-79 10 -122 60q-23 28 -23 65 q0 69 61 129q44 44 91 44q85 0 127 -84q26 -50 26 -98q0 -39 -28 -71q-23 -25 -60 -36q-31 -10 -58 -10zM611 1576l-13 1q-79 10 -122 60q-24 28 -24 65q0 69 62 129q44 44 91 44q85 0 127 -84q25 -50 25 -98q0 -39 -27 -71q-23 -25 -60 -36q-31 -10 -59 -10z" />
<glyph unicode="&#xd0;" horiz-adv-x="1338" d="M181 763l1 139q0 166 -3 333q0 30 2.5 78t28.5 81q68 63 191 70q30 2 60 2q94 0 206.5 -20t194.5 -45q154 -50 243.5 -168.5t126.5 -270.5q45 -166 45 -294q0 -37 -6 -102.5t-51 -141.5q-217 -341 -550 -496q-75 -32 -140 -32q-28 0 -84.5 13.5t-146.5 86.5 q-75 59 -93 124q-16 58 -16 136q-7 212 -9 354q-31 2 -66 6q-78 8 -130 65q-10 19 -10 33q0 50 145 50h15q23 -1 46 -1zM431 759q108 -2 136 -4q60 0 119 -13t84 -69q5 -14 5 -26q0 -22 -22 -36t-64 -15h-20q-47 0 -60 3q-80 6 -180 8l-1 -95l1 -154q6 -194 117 -194 q19 0 63.5 13t124.5 79q67 59 133 142q147 185 147 319q0 1 -0.5 37.5t-18.5 121.5q-31 164 -70.5 230t-111.5 94t-196 43q-45 6 -78 6q-43 0 -76 -14t-39 -59q-3 -21 -3 -48q0 -31 4 -68q6 -80 6 -216v-85z" />
<glyph unicode="&#xd1;" horiz-adv-x="1370" d="M333 -20q-5 0 -35.5 2t-80.5 48.5t-60 119.5q-7 85 -7 183q0 41 -1 78q-9 543 -23 893v15q0 122 124 122h13q114 -13 163.5 -80t81.5 -161q45 -118 80 -177q27 -46 80 -114q67 -96 120 -203q61 -125 143 -233q28 -33 42 -33l9 1q13 3 13 84q0 96 -4 180q-3 77 -3 181 q0 198 -11 370q-4 12 -4 51q0 37 11.5 76.5t89.5 41.5q127 -3 141 -159q5 -49 5 -95l-1 -31l1 -176q0 -67 -1 -134.5t-1 -132.5q0 -282 15 -394q8 -48 8 -94q0 -33 -4 -65q-15 -61 -50 -108q-25 -32 -62 -32q-125 0 -289 237l-25 35q-150 198 -240 346q-146 240 -163 257 q-9 6 -15 6q-10 0 -10 -30q0 -36 6 -87q10 -125 11 -305q1 -88 4 -176q2 -39 10 -83q10 -63 10 -107q0 -38 -15 -70q-26 -47 -76 -47zM901 1547h-20q-190 0 -304 86q-29 22 -48 22q-26 0 -64 -72q-30 -16 -52 -16q-66 0 -75 76v5q0 32 59 100q36 41 92 58q9 3 22 3 q65 0 226 -74q78 -36 108 -36q33 0 50 69q12 46 55 46q79 -3 79 -67v-40q0 -46 -41 -103t-87 -57z" />
<glyph unicode="&#xd2;" horiz-adv-x="1255" d="M615 182q189 0 250 172q42 135 42 337q0 60 -7.5 151.5t-45.5 170.5q-24 49 -74.5 104.5t-111.5 82.5q-25 11 -50 11q-71 0 -130 -90q-62 -95 -98 -212q-18 -56 -56 -198q-30 -106 -30 -205q0 -58 16 -125.5t75 -121.5q97 -77 220 -77zM608 -20q-164 0 -299 91 q-244 165 -255 430l-1 43q0 127 31 248q73 316 171 464q125 174 323 174q128 0 233 -75q73 -53 134 -109q4 -4 9 -7q82 -73 124 -158t64 -193.5t22 -264.5q0 -35 -3.5 -155.5t-55.5 -245.5q-31 -67 -84 -121q-119 -121 -413 -121zM694 1520q-32 0 -78 34q-32 23 -105 56 q-42 19 -111 56q-92 51 -109 74q-13 22 -13 35q0 6 13 32q21 36 54 56q26 17 83 17q23 0 50 -17q18 -10 65 -46q41 -42 107 -92q24 -19 74 -50t50 -71q0 -39 -24.5 -61.5t-55.5 -22.5z" />
<glyph unicode="&#xd3;" horiz-adv-x="1255" d="M615 182q189 0 250 172q42 135 42 337q0 60 -7.5 151.5t-45.5 170.5q-24 49 -74.5 104.5t-111.5 82.5q-25 11 -50 11q-71 0 -130 -90q-62 -95 -98 -212q-18 -56 -56 -198q-30 -106 -30 -205q0 -58 16 -125.5t75 -121.5q97 -77 220 -77zM608 -20q-164 0 -299 91 q-244 165 -255 430l-1 43q0 127 31 248q73 316 171 464q125 174 323 174q128 0 233 -75q73 -53 134 -109q4 -4 9 -7q82 -73 124 -158t64 -193.5t22 -264.5q0 -35 -3.5 -155.5t-55.5 -245.5q-31 -67 -84 -121q-119 -121 -413 -121zM523 1520q-31 0 -55 22.5t-24 61.5 q0 40 49.5 71t74.5 50q65 50 106 92q47 36 65 46q27 17 51 17q56 0 82 -17q33 -20 54 -56q13 -26 13 -32q0 -13 -13 -35q-17 -23 -109 -74q-69 -37 -111 -56q-73 -33 -105 -56q-46 -34 -78 -34z" />
<glyph unicode="&#xd4;" horiz-adv-x="1255" d="M615 182q189 0 250 172q42 135 42 337q0 60 -7.5 151.5t-45.5 170.5q-24 49 -74.5 104.5t-111.5 82.5q-25 11 -50 11q-71 0 -130 -90q-62 -95 -98 -212q-18 -56 -56 -198q-30 -106 -30 -205q0 -58 16 -125.5t75 -121.5q97 -77 220 -77zM608 -20q-164 0 -299 91 q-244 165 -255 430l-1 43q0 127 31 248q73 316 171 464q125 174 323 174q128 0 233 -75q73 -53 134 -109q4 -4 9 -7q82 -73 124 -158t64 -193.5t22 -264.5q0 -35 -3.5 -155.5t-55.5 -245.5q-31 -67 -84 -121q-119 -121 -413 -121zM905 1520q-32 0 -78 34q-33 23 -105 56 q-42 19 -114 57q-71 -38 -113 -57q-72 -33 -105 -56q-46 -34 -78 -34q-31 0 -55 22.5t-24 61.5q0 40 50 71q105 65 180 142q47 36 65 46q28 17 81 17q52 0 80 -17q18 -10 65 -46q75 -77 180 -142q50 -31 50 -71q0 -39 -24 -61.5t-55 -22.5z" />
<glyph unicode="&#xd5;" horiz-adv-x="1255" d="M615 182q189 0 250 172q42 135 42 337q0 60 -7.5 151.5t-45.5 170.5q-24 49 -74.5 104.5t-111.5 82.5q-25 11 -50 11q-71 0 -130 -90q-62 -95 -98 -212q-18 -56 -56 -198q-30 -106 -30 -205q0 -58 16 -125.5t75 -121.5q97 -77 220 -77zM608 -20q-164 0 -299 91 q-244 165 -255 430l-1 43q0 127 31 248q73 316 171 464q125 174 323 174q128 0 233 -75q73 -53 134 -109q4 -4 9 -7q82 -73 124 -158t64 -193.5t22 -264.5q0 -35 -3.5 -155.5t-55.5 -245.5q-31 -67 -84 -121q-119 -121 -413 -121zM826 1547h-20q-190 0 -304 86 q-29 22 -48 22q-26 0 -64 -72q-30 -16 -52 -16q-66 0 -75 76v5q0 32 59 100q36 41 92 58q9 3 22 3q65 0 226 -74q78 -36 108 -36q33 0 50 69q12 46 55 46q79 -3 79 -67v-40q0 -46 -41 -103t-87 -57z" />
<glyph unicode="&#xd6;" horiz-adv-x="1255" d="M615 182q189 0 250 172q42 135 42 337q0 60 -7.5 151.5t-45.5 170.5q-24 49 -74.5 104.5t-111.5 82.5q-25 11 -50 11q-71 0 -130 -90q-62 -95 -98 -212q-18 -56 -56 -198q-30 -106 -30 -205q0 -58 16 -125.5t75 -121.5q97 -77 220 -77zM608 -20q-164 0 -299 91 q-244 165 -255 430l-1 43q0 127 31 248q73 316 171 464q125 174 323 174q128 0 233 -75q73 -53 134 -109q4 -4 9 -7q82 -73 124 -158t64 -193.5t22 -264.5q0 -35 -3.5 -155.5t-55.5 -245.5q-31 -67 -84 -121q-119 -121 -413 -121zM417 1576l-13 1q-79 10 -122 60 q-24 28 -24 65q0 69 62 129q44 44 91 44q84 0 127 -84q25 -50 25 -98q0 -39 -27 -71q-23 -25 -60 -36q-31 -10 -59 -10zM813 1576l-14 1q-79 10 -122 60q-23 28 -23 65q0 69 61 129q45 44 91 44q85 0 127 -84q26 -50 26 -98q0 -39 -28 -71q-23 -25 -60 -36q-30 -10 -58 -10z " />
<glyph unicode="&#xd7;" horiz-adv-x="872" d="M107 330q-47 0 -47 29q0 23 28 61q22 30 87 101q60 70 77 86q9 10 9 18t-58 62q-155 144 -155 175q0 28 33 61q40 40 80 40q22 0 44 -12q55 -31 107 -83q66 -64 102 -64q25 0 50 17q47 33 129 122q26 27 47.5 44t51.5 17q85 -14 85 -66q0 -33 -206 -232q-33 -31 -33 -52 q0 -5 2 -11q7 -23 193 -205q28 -28 28 -44q0 -22 -65 -39q-40 -12 -70 -12q-50 0 -94 46l-69 73q-38 41 -59 41q-18 0 -40 -12q-56 -29 -91 -79q-23 -33 -59 -59q-26 -19 -107 -23z" />
<glyph unicode="&#xd8;" horiz-adv-x="1254" d="M362 -58q-18 0 -41 9q-58 24 -69 64q-5 18 -5 36q0 24 10 57q-194 157 -203 393l-1 51q0 123 28 240q75 316 176 462q122 176 320 176q121 0 221 -66q6 11 13 19q28 36 57 36q14 0 43 -15.5t49 -63.5q9 -21 9 -46t-9 -61q77 -71 117 -152q42 -85 64 -193.5t22 -264.5 q0 -35 -3.5 -155.5t-57.5 -244.5q-29 -68 -82 -122q-119 -121 -413 -121q-87 0 -167 26q-31 -64 -78 -64zM345 317l34 86q53 136 118 265q113 226 192 439l25 67q-55 37 -97 37q-71 0 -130 -90q-62 -95 -98 -212q-18 -56 -57 -198q-29 -106 -29 -205q0 -58 16 -125 q8 -34 26 -64zM614 182q189 0 247 173q45 134 45 336q0 60 -7 152q-7 79 -37 150l-1 -3q-83 -219 -189 -429q-86 -169 -160 -364q48 -15 102 -15z" />
<glyph unicode="&#xd9;" horiz-adv-x="1270" d="M1014 10q-38 0 -85 6q-78 9 -195 9q-58 0 -165 -2q-89 0 -176 18t-174 117q-46 61 -58.5 137t-13.5 153q-6 96 -6 280q0 233 -24 488q-2 19 -2 40q0 31 5 74.5t35 73.5q17 16 45 16q23 0 54 -10q71 -37 87 -110q15 -66 15 -143q0 -43 2 -73q12 -157 12 -314 q0 -150 -4 -162q-1 -30 -1 -79q0 -24 1 -81t19 -130.5t65 -82.5q98 -7 193 -7l153 -1q67 0 81 19.5t14 64.5l-1 19v101q0 102 -2 202q-2 80 -2 161q0 149 7 302q1 24 1 56q1 60 6.5 123t26.5 101q28 40 70 41q38 0 74.5 -24.5t51.5 -63t15 -85.5q0 -60 -11 -136.5 t-11 -173.5q0 -536 21 -721q4 -37 4 -67q0 -56 -18.5 -92.5t-69.5 -41.5q-18 -2 -39 -2zM714 1520q-32 0 -78 34q-32 23 -105 56q-42 19 -111 56q-92 51 -109 74q-13 22 -13 35q0 6 13 32q21 36 54 56q26 17 82 17q24 0 51 -17q18 -10 65 -46q41 -42 106 -92 q25 -19 74.5 -50t49.5 -71q0 -39 -24 -61.5t-55 -22.5z" />
<glyph unicode="&#xda;" horiz-adv-x="1270" d="M1014 10q-38 0 -85 6q-78 9 -195 9q-58 0 -165 -2q-89 0 -176 18t-174 117q-46 61 -58.5 137t-13.5 153q-6 96 -6 280q0 233 -24 488q-2 19 -2 40q0 31 5 74.5t35 73.5q17 16 45 16q23 0 54 -10q71 -37 87 -110q15 -66 15 -143q0 -43 2 -73q12 -157 12 -314 q0 -150 -4 -162q-1 -30 -1 -79q0 -24 1 -81t19 -130.5t65 -82.5q98 -7 193 -7l153 -1q67 0 81 19.5t14 64.5l-1 19v101q0 102 -2 202q-2 80 -2 161q0 149 7 302q1 24 1 56q1 60 6.5 123t26.5 101q28 40 70 41q38 0 74.5 -24.5t51.5 -63t15 -85.5q0 -60 -11 -136.5 t-11 -173.5q0 -536 21 -721q4 -37 4 -67q0 -56 -18.5 -92.5t-69.5 -41.5q-18 -2 -39 -2zM542 1520q-31 0 -55 22.5t-24 61.5q0 40 50 71t74 50q66 50 106 92q47 36 65 46q28 17 51 17q57 0 82 -17q33 -20 54 -56q13 -26 13 -32q0 -13 -13 -35q-17 -23 -109 -74 q-69 -37 -111 -56q-72 -33 -105 -56q-45 -34 -78 -34z" />
<glyph unicode="&#xdb;" horiz-adv-x="1270" d="M1014 10q-38 0 -85 6q-78 9 -195 9q-58 0 -165 -2q-89 0 -176 18t-174 117q-46 61 -58.5 137t-13.5 153q-6 96 -6 280q0 233 -24 488q-2 19 -2 40q0 31 5 74.5t35 73.5q17 16 45 16q23 0 54 -10q71 -37 87 -110q15 -66 15 -143q0 -43 2 -73q12 -157 12 -314 q0 -150 -4 -162q-1 -30 -1 -79q0 -24 1 -81t19 -130.5t65 -82.5q98 -7 193 -7l153 -1q67 0 81 19.5t14 64.5l-1 19v101q0 102 -2 202q-2 80 -2 161q0 149 7 302q1 24 1 56q1 60 6.5 123t26.5 101q28 40 70 41q38 0 74.5 -24.5t51.5 -63t15 -85.5q0 -60 -11 -136.5 t-11 -173.5q0 -536 21 -721q4 -37 4 -67q0 -56 -18.5 -92.5t-69.5 -41.5q-18 -2 -39 -2zM925 1520q-32 0 -78 34q-33 23 -105 56q-42 19 -114 57q-71 -38 -113 -57q-72 -33 -105 -56q-46 -34 -78 -34q-31 0 -55 22.5t-24 61.5q0 40 50 71q105 65 180 142q47 36 65 46 q28 17 81 17q52 0 80 -17q18 -10 65 -46q75 -77 180 -142q50 -31 50 -71q0 -39 -24 -61.5t-55 -22.5z" />
<glyph unicode="&#xdc;" horiz-adv-x="1270" d="M1014 10q-38 0 -85 6q-78 9 -195 9q-58 0 -165 -2q-89 0 -176 18t-174 117q-46 61 -58.5 137t-13.5 153q-6 96 -6 280q0 233 -24 488q-2 19 -2 40q0 31 5 74.5t35 73.5q17 16 45 16q23 0 54 -10q71 -37 87 -110q15 -66 15 -143q0 -43 2 -73q12 -157 12 -314 q0 -150 -4 -162q-1 -30 -1 -79q0 -24 1 -81t19 -130.5t65 -82.5q98 -7 193 -7l153 -1q67 0 81 19.5t14 64.5l-1 19v101q0 102 -2 202q-2 80 -2 161q0 149 7 302q1 24 1 56q1 60 6.5 123t26.5 101q28 40 70 41q38 0 74.5 -24.5t51.5 -63t15 -85.5q0 -60 -11 -136.5 t-11 -173.5q0 -536 21 -721q4 -37 4 -67q0 -56 -18.5 -92.5t-69.5 -41.5q-18 -2 -39 -2zM437 1576l-14 1q-79 10 -122 60q-23 28 -23 65q0 69 61 129q45 44 91 44q85 0 127 -84q26 -50 26 -98q0 -39 -28 -71q-23 -25 -60 -36q-30 -10 -58 -10zM833 1576l-14 1 q-79 10 -122 60q-23 28 -23 65q0 69 61 129q44 44 91 44q85 0 127 -84q26 -50 26 -98q0 -39 -28 -71q-23 -25 -60 -36q-30 -10 -58 -10z" />
<glyph unicode="&#xdd;" horiz-adv-x="1446" d="M742 -92q-35 0 -74 25q-64 43 -64 176q0 51 13 148q17 157 17 258q0 69 -10 146.5t-77 158.5q-71 86 -245 222q-52 40 -116 95q-158 135 -163 230q3 61 48 83q23 11 48 11t53 -11q67 -28 189 -139q36 -32 67 -57q140 -111 212 -182q35 -37 77 -61q21 -13 42 -13 q22 0 45 13q41 27 90 74q75 70 188 145q58 39 114 83t118 112q60 73 122 101q17 8 36 8q48 0 105 -51q44 -44 44 -86q0 -4 -3 -29.5t-46 -72.5q-160 -170 -358 -294q-53 -34 -129.5 -92t-139 -124.5t-76.5 -127.5q-4 -28 -4 -64q0 -70 9 -167q5 -69 7 -119q-8 -272 -40 -338 q-35 -61 -99 -61zM736 1520q-31 0 -55 22.5t-24 61.5q0 40 50 71t74 50q65 50 106 92q47 36 65 46q28 17 51 17q56 0 82 -17q33 -20 54 -56q13 -26 13 -32q0 -13 -13 -35q-17 -23 -109 -74q-69 -37 -111 -56q-73 -33 -105 -56q-46 -34 -78 -34z" />
<glyph unicode="&#xde;" horiz-adv-x="1110" d="M516 540q52 0 131 32q199 80 199 245q0 34 -9 87.5t-57 89.5q-13 10 -26 15q-23 7 -72 8h-88q-126 0 -144 -33q-10 -18 -10 -49q0 -46 5 -94q5 -41 5 -102q0 -66 1.5 -112.5t16 -66.5t48.5 -20zM432 -196q-24 0 -59 15q-113 49 -128 208q-5 51 -5 100l1 218 q0 126 -12 255q-8 89 -11 181q-2 75 -9 150q-5 44 -5 99q0 44 4 94q2 40 2 71q0 58 -8 85q-16 48 -69 50q-46 2 -55 13q-29 36 -29 84q0 11 5 47.5t63 56.5q33 12 97 12q16 0 82 -7q77 -8 156 -8l78 1q44 0 71 -18.5t27 -77.5q0 -69 -35 -93.5t-86 -25.5q-27 0 -44 -6 q-36 -12 -39 -96q45 -5 103 -5q28 0 55.5 1t58.5 1q188 0 263 -31q51 -22 100 -103q76 -125 76 -267q0 -123 -71 -223q-162 -229 -442 -244q-66 -3 -79 -23q-9 -14 -9 -43q0 -14 2 -30.5t3 -37.5q5 -124 15 -247q2 -19 2 -37q0 -27 -5.5 -60.5t-33.5 -50.5q-12 -8 -30 -8z " />
<glyph unicode="&#xdf;" horiz-adv-x="1256" d="M342 -148q-51 0 -92.5 22.5t-61.5 61.5q-17 34 -17 62t7 62t7 53q0 70 -7 138t-7.5 136t-19.5 91t-46 32q-15 5 -30.5 13.5t-28 26t-12.5 34.5q0 23 24 50q42 46 74 52q8 2 13 6q10 8 10 55v126q0 103 30.5 174.5t106.5 150.5q93 95 233 95q176 0 256 -84q33 -35 33 -100 q0 -78 -66.5 -249.5t-66.5 -205.5q0 -19 7.5 -52.5t80.5 -42.5q30 -3 63 -4q72 -3 144.5 -13.5t132 -44t89.5 -105.5q16 -38 16 -81q0 -62 -36.5 -154t-132.5 -132q-85 -36 -319 -45q-40 -2 -82 -2q-117 0 -117 104q0 97 147 97q87 0 139 5q129 11 129 113q0 44 -47 58 q-36 11 -111 13q-113 3 -173 25q-54 20 -109.5 70.5t-58.5 109.5v34q0 48 83 265q45 118 45 172q0 45 -32 45q-55 0 -105 -56t-50 -242q0 -26 18 -387q11 -136 18 -201q14 -125 14 -184q0 -64 -27 -122q-20 -44 -65 -45z" />
<glyph unicode="&#xe0;" horiz-adv-x="1066" d="M906 -86q-37 0 -90 47q-59 49 -101 49q-22 0 -66 -12q-69 -19 -170 -19q-61 0 -144.5 12.5t-174.5 87.5q-64 57 -98 148q-27 73 -27 143q0 16 2 33q15 137 68 221.5t154 172.5q115 104 219 120q48 7 105 7q68 0 149 -10q91 -10 142.5 -60.5t51.5 -144.5q0 -42 -2 -78 q-3 -30 -3 -64q0 -35 23 -318q8 -110 47 -212q4 -12 4 -25q0 -38 -21 -64q-38 -34 -68 -34zM580 192q44 1 90 15q10 4 15 8.5t8.5 13.5t3.5 21q0 81 -16 183q-13 72 -13 162q0 34 2 74q0 30 -14.5 37.5t-39.5 7.5q-52 0 -99 -30q-140 -93 -204 -208q-32 -56 -32 -118 q0 -26 6 -53q25 -97 134 -108q42 -5 105 -5h54zM601 1057q-32 0 -78 34q-32 23 -105 56q-42 19 -111 56q-92 51 -109 74q-13 22 -13 35q0 6 13 32q21 36 54 56q26 17 82 17q24 0 51 -17q18 -10 65 -46q41 -42 106 -92q24 -19 74 -50t50 -71q0 -39 -24 -61.5t-55 -22.5z" />
<glyph unicode="&#xe1;" horiz-adv-x="1065" d="M903 -86q-37 0 -90 47q-59 49 -101 49q-22 0 -66 -12q-69 -19 -170 -19q-61 0 -144.5 12.5t-174.5 87.5q-64 57 -98 148q-27 73 -27 143q0 16 2 33q15 137 68 221.5t154 172.5q115 104 219 120q48 7 105 7q68 0 149 -10q91 -10 142.5 -60.5t51.5 -144.5q0 -42 -2 -78 q-3 -30 -3 -64q0 -35 23 -318q8 -110 47 -212q4 -12 4 -25q0 -38 -21 -64q-38 -34 -68 -34zM577 192q44 1 90 15q10 4 15 8.5t8.5 13.5t3.5 21q0 81 -16 183q-13 72 -13 162q0 34 2 74q0 30 -14.5 37.5t-39.5 7.5q-52 0 -99 -30q-140 -93 -204 -208q-32 -56 -32 -118 q0 -26 6 -53q25 -97 134 -108q42 -5 105 -5h54zM426 1057q-31 0 -55 22.5t-24 61.5q0 40 50 71t74 50q66 50 106 92q47 36 65 46q28 17 51 17q57 0 82 -17q33 -20 54 -56q13 -26 13 -32q0 -13 -13 -35q-17 -23 -109 -74q-69 -37 -111 -56q-72 -33 -105 -56q-45 -34 -78 -34z " />
<glyph unicode="&#xe2;" horiz-adv-x="1078" d="M916 -86q-37 0 -90 47q-59 49 -101 49q-22 0 -66 -12q-69 -19 -170 -19q-61 0 -144.5 12.5t-174.5 87.5q-64 57 -98 148q-27 73 -27 143q0 16 2 33q15 137 68 221.5t154 172.5q115 104 219 120q48 7 105 7q68 0 149 -10q91 -10 142.5 -60.5t51.5 -144.5q0 -42 -2 -78 q-3 -30 -3 -64q0 -35 23 -318q8 -110 47 -212q4 -12 4 -25q0 -38 -21 -64q-38 -34 -68 -34zM590 192q44 1 90 15q10 4 15 8.5t8.5 13.5t3.5 21q0 81 -16 183q-13 72 -13 162q0 34 2 74q0 30 -14.5 37.5t-39.5 7.5q-52 0 -99 -30q-140 -93 -204 -208q-32 -56 -32 -118 q0 -26 6 -53q25 -97 134 -108q42 -5 105 -5h54zM822 1057q-32 0 -78 34q-33 23 -105 56q-42 19 -114 57q-71 -38 -113 -57q-72 -33 -105 -56q-46 -34 -78 -34q-31 0 -55 22.5t-24 61.5q0 40 50 71q105 65 180 142q47 36 65 46q28 17 81 17q52 0 80 -17q18 -10 65 -46 q75 -77 180 -142q50 -31 50 -71q0 -39 -24 -61.5t-55 -22.5z" />
<glyph unicode="&#xe3;" horiz-adv-x="1073" d="M911 -86q-37 0 -90 47q-59 49 -101 49q-22 0 -66 -12q-69 -19 -170 -19q-61 0 -144.5 12.5t-174.5 87.5q-64 57 -98 148q-27 73 -27 143q0 16 2 33q15 137 68 221.5t154 172.5q115 104 219 120q48 7 105 7q68 0 149 -10q91 -10 142.5 -60.5t51.5 -144.5q0 -42 -2 -78 q-3 -30 -3 -64q0 -35 23 -318q8 -110 47 -212q4 -12 4 -25q0 -38 -21 -64q-38 -34 -68 -34zM585 192q44 1 90 15q10 4 15 8.5t8.5 13.5t3.5 21q0 81 -16 183q-13 72 -13 162q0 34 2 74q0 30 -14.5 37.5t-39.5 7.5q-52 0 -99 -30q-140 -93 -204 -208q-32 -56 -32 -118 q0 -26 6 -53q25 -97 134 -108q42 -5 105 -5h54zM738 1084h-20q-190 0 -304 86q-29 22 -48 22q-26 0 -64 -72q-30 -16 -52 -16q-66 0 -75 76v5q0 32 59 100q36 41 92 58q9 3 22 3q65 0 226 -74q78 -36 108 -36q33 0 50 69q12 46 55 46q79 -3 79 -67v-40q0 -46 -41 -103 t-87 -57z" />
<glyph unicode="&#xe4;" horiz-adv-x="1073" d="M911 -86q-37 0 -90 47q-59 49 -101 49q-22 0 -66 -12q-69 -19 -170 -19q-61 0 -144.5 12.5t-174.5 87.5q-64 57 -98 148q-27 73 -27 143q0 16 2 33q15 137 68 221.5t154 172.5q115 104 219 120q48 7 105 7q68 0 149 -10q91 -10 142.5 -60.5t51.5 -144.5q0 -42 -2 -78 q-3 -30 -3 -64q0 -35 23 -318q8 -110 47 -212q4 -12 4 -25q0 -38 -21 -64q-38 -34 -68 -34zM585 192q44 1 90 15q10 4 15 8.5t8.5 13.5t3.5 21q0 81 -16 183q-13 72 -13 162q0 34 2 74q0 30 -14.5 37.5t-39.5 7.5q-52 0 -99 -30q-140 -93 -204 -208q-32 -56 -32 -118 q0 -26 6 -53q25 -97 134 -108q42 -5 105 -5h54zM329 1113l-14 1q-79 10 -122 60q-23 28 -23 65q0 69 61 129q45 44 91 44q85 0 127 -84q26 -50 26 -98q0 -39 -28 -71q-23 -25 -60 -36q-30 -10 -58 -10zM725 1113l-14 1q-79 10 -122 60q-23 28 -23 65q0 69 61 129 q44 44 91 44q85 0 127 -84q26 -50 26 -98q0 -39 -28 -71q-23 -25 -60 -36q-30 -10 -58 -10z" />
<glyph unicode="&#xe5;" horiz-adv-x="1067" d="M905 -86q-37 0 -90 47q-59 49 -101 49q-22 0 -66 -12q-69 -19 -170 -19q-61 0 -144.5 12.5t-174.5 87.5q-64 57 -98 148q-27 73 -27 143q0 16 2 33q15 137 68 221.5t154 172.5q115 104 219 120q48 7 105 7q68 0 149 -10q91 -10 142.5 -60.5t51.5 -144.5q0 -42 -2 -78 q-3 -30 -3 -64q0 -35 23 -318q8 -110 47 -212q4 -12 4 -25q0 -38 -21 -64q-38 -34 -68 -34zM579 192q44 1 90 15q10 4 15 8.5t8.5 13.5t3.5 21q0 81 -16 183q-13 72 -13 162q0 34 2 74q0 30 -14.5 37.5t-39.5 7.5q-52 0 -99 -30q-140 -93 -204 -208q-32 -56 -32 -118 q0 -26 6 -53q25 -97 134 -108q42 -5 105 -5h54zM557 1036h-54q-31 0 -103.5 36.5t-77.5 63.5q-13 56 -13 112q0 76 70 147.5t147 71.5q81 0 117 -42q76 -91 76 -177v-32q0 -89 -93 -158q-28 -22 -69 -22zM534 1175q44 0 46 76q0 52 -53 84q-77 0 -77 -83q0 -13 47 -76 q19 -1 37 -1z" />
<glyph unicode="&#xe6;" horiz-adv-x="1549" d="M570 192q44 1 90 15q10 4 15 8.5t8.5 13.5t3.5 21q0 81 -16 183q-13 72 -13 162q0 34 2 74q0 30 -14.5 37.5t-39.5 7.5q-52 0 -99 -30q-140 -93 -204 -208q-32 -56 -32 -118q0 -26 6 -53q25 -97 134 -108q42 -5 105 -5h54zM949 461q18 0 53 25q94 64 211 190q28 32 28 47 v9q0 13 -35 13q-36 0 -67 -14q-110 -49 -174 -153q-35 -56 -35 -88q0 -15 10 -26q3 -3 9 -3zM984 0q-2 -30 -20 -52q-38 -34 -68 -34q-37 0 -90 47q-59 49 -101 49q-22 0 -66 -12q-69 -19 -170 -19q-61 0 -144.5 12.5t-174.5 87.5q-64 57 -98 148q-27 73 -27 143q0 16 2 33 q15 137 68 221.5t154 172.5q115 104 219 120q48 7 105 7q68 0 149 -10q91 -10 143 -60q16 -17 27 -37q21 19 42 36q83 69 209 92q39 8 75 8q79 0 142 -37q89 -65 89 -187q0 -79 -46 -142q-48 -67 -145 -147q-84 -60 -174 -103q-47 -23 -77 -41q-52 -39 -52 -66q0 -8 15 -28 t99 -20q54 0 136 6q69 3 89.5 9.5t40.5 19.5q58 37 92 37q16 0 41.5 -10.5t37.5 -70.5q2 -13 2 -27q0 -49 -33.5 -90.5t-83.5 -53.5q-72 -13 -181 -13q-129 0 -226 11z" />
<glyph unicode="&#xe7;" horiz-adv-x="899" d="M362 -20q-31 7 -58 16q-100 38 -159 111q-120 147 -120 317q0 74 21 134q74 202 215 287q119 72 288 72q31 0 65 -3q112 -5 167 -102q14 -29 14 -50q0 -20 -13 -33q-23 -23 -72 -23q-35 0 -82 6q-31 4 -59 4q-21 0 -53.5 -3.5t-98.5 -41.5q-83 -50 -119 -112.5 t-40 -159.5q0 -139 86 -202q66 -48 160 -48q28 0 59 4q41 7 68 39q41 53 113 53q58 0 94 -43q26 -30 26 -69q0 -27 -13 -58q-53 -110 -157 -119q-30 -2 -65 -2q-54 0 -102 3q-10 -25 -26 -55l-2 -3q81 0 125 -61q19 -26 29.5 -44.5t11.5 -54.5l1 -46q0 -113 -154 -166 q-48 -16 -89 -16q-32 0 -59 1q-141 6 -141 87q0 41 31 62q19 14 51 14q15 0 26 -3q23 -5 36 -5h56q48 0 62 13.5t14 30.5q0 29 -49 36l-55 4q-57 4 -57 72l1 11q7 99 23 146z" />
<glyph unicode="&#xe8;" horiz-adv-x="901" d="M301 461q18 0 53 25q94 64 211 190q28 32 28 47v9q0 13 -35 13q-36 0 -67 -14q-110 -49 -174 -153q-34 -56 -34 -88q0 -15 9 -26q3 -3 9 -3zM562 -11q-140 0 -242 13q-80 9 -137.5 52.5t-92.5 133.5q-34 95 -34 197q0 40 12 133.5t92 205.5q57 73 126 129q83 69 209 92 q39 8 75 8q79 0 142 -37q89 -65 89 -187q0 -79 -46 -142q-48 -67 -145 -147q-84 -60 -174 -103q-47 -23 -77 -41q-52 -39 -52 -66q0 -8 15 -28t99 -20q54 0 137 6q68 3 88.5 9.5t40.5 19.5q58 37 92 37q16 0 41.5 -10.5t37.5 -70.5q2 -13 2 -27q0 -49 -33.5 -90.5 t-83.5 -53.5q-72 -13 -181 -13zM544 1057q-33 0 -78 34q-33 23 -105 56q-42 19 -111 56q-92 51 -109 74q-13 22 -13 35q0 6 13 32q21 36 54 56q26 17 82 17q23 0 51 -17q18 -10 65 -46q40 -42 106 -92q24 -19 74 -50t50 -71q0 -39 -24 -61.5t-55 -22.5z" />
<glyph unicode="&#xe9;" horiz-adv-x="890" d="M290 461q18 0 53 25q94 64 211 190q28 32 28 47v9q0 13 -35 13q-36 0 -67 -14q-110 -49 -174 -153q-34 -56 -34 -88q0 -15 9 -26q3 -3 9 -3zM551 -11q-140 0 -242 13q-80 9 -137.5 52.5t-92.5 133.5q-34 95 -34 197q0 40 12 133.5t92 205.5q57 73 126 129q83 69 209 92 q39 8 75 8q79 0 142 -37q89 -65 89 -187q0 -79 -46 -142q-48 -67 -145 -147q-84 -60 -174 -103q-47 -23 -77 -41q-52 -39 -52 -66q0 -8 15 -28t99 -20q54 0 137 6q68 3 88.5 9.5t40.5 19.5q58 37 92 37q16 0 41.5 -10.5t37.5 -70.5q2 -13 2 -27q0 -49 -33.5 -90.5 t-83.5 -53.5q-72 -13 -181 -13zM361 1057q-31 0 -55 22.5t-24 61.5q0 40 50 71t74 50q65 50 106 92q47 36 65 46q28 17 51 17q56 0 82 -17q33 -20 54 -56q13 -26 13 -32q0 -13 -13 -35q-17 -23 -109 -74q-69 -37 -111 -56q-73 -33 -105 -56q-46 -34 -78 -34z" />
<glyph unicode="&#xea;" horiz-adv-x="937" d="M312 461q18 0 53 25q94 64 211 190q28 32 28 47v9q0 13 -35 13q-36 0 -67 -14q-110 -49 -174 -153q-34 -56 -34 -88q0 -15 9 -26q3 -3 9 -3zM573 -11q-140 0 -242 13q-80 9 -137.5 52.5t-92.5 133.5q-34 95 -34 197q0 40 12 133.5t92 205.5q57 73 126 129q83 69 209 92 q39 8 75 8q79 0 142 -37q89 -65 89 -187q0 -79 -46 -142q-48 -67 -145 -147q-84 -60 -174 -103q-47 -23 -77 -41q-52 -39 -52 -66q0 -8 15 -28t99 -20q54 0 137 6q68 3 88.5 9.5t40.5 19.5q58 37 92 37q16 0 41.5 -10.5t37.5 -70.5q2 -13 2 -27q0 -49 -33.5 -90.5 t-83.5 -53.5q-72 -13 -181 -13zM765 1057q-32 0 -78 34q-33 23 -105 56q-42 19 -114 57q-71 -38 -113 -57q-72 -33 -105 -56q-46 -34 -78 -34q-31 0 -55 22.5t-24 61.5q0 40 50 71q105 65 180 142q47 36 65 46q28 17 81 17q52 0 80 -17q18 -10 65 -46q76 -77 180 -142 q50 -31 50 -71q0 -39 -24 -61.5t-55 -22.5z" />
<glyph unicode="&#xeb;" horiz-adv-x="912" d="M312 461q18 0 53 25q94 64 211 190q28 32 28 47v9q0 13 -35 13q-36 0 -67 -14q-110 -49 -174 -153q-34 -56 -34 -88q0 -15 9 -26q3 -3 9 -3zM573 -11q-140 0 -242 13q-80 9 -137.5 52.5t-92.5 133.5q-34 95 -34 197q0 40 12 133.5t92 205.5q57 73 126 129q83 69 209 92 q39 8 75 8q79 0 142 -37q89 -65 89 -187q0 -79 -46 -142q-48 -67 -145 -147q-84 -60 -174 -103q-47 -23 -77 -41q-52 -39 -52 -66q0 -8 15 -28t99 -20q54 0 137 6q68 3 88.5 9.5t40.5 19.5q58 37 92 37q16 0 41.5 -10.5t37.5 -70.5q2 -13 2 -27q0 -49 -33.5 -90.5 t-83.5 -53.5q-72 -13 -181 -13zM277 1113l-13 1q-79 10 -122 60q-23 28 -23 65q0 69 61 129q44 44 91 44q85 0 127 -84q25 -50 25 -98q0 -39 -27 -71q-23 -25 -60 -36q-31 -10 -59 -10zM673 1113l-14 1q-79 10 -122 60q-23 28 -23 65q0 69 61 129q45 44 92 44q84 0 126 -84 q26 -50 26 -98q0 -39 -28 -71q-23 -25 -60 -36q-30 -10 -58 -10z" />
<glyph unicode="&#xec;" horiz-adv-x="571" d="M389 -73q-38 0 -93 34q-71 54 -85 126q-11 54 -11 113l1 39q0 166 -27 369q-19 164 -19 189q0 43 16 72q19 35 83 35q132 -3 162 -206q11 -80 15 -150q2 -36 5 -63q13 -119 19 -239q2 -37 6 -78q6 -63 7 -117q-3 -124 -79 -124zM397 1057q-32 0 -78 34q-32 23 -105 56 q-42 19 -111 56q-92 51 -109 74q-13 22 -13 35q0 6 13 32q21 36 54 56q26 17 83 17q23 0 50 -17q18 -10 65 -46q41 -42 106 -92q25 -19 75 -50t50 -71q0 -39 -24.5 -61.5t-55.5 -22.5z" />
<glyph unicode="&#xed;" horiz-adv-x="536" d="M330 -73q-38 0 -93 34q-71 54 -85 126q-11 54 -11 113l1 39q0 166 -27 369q-19 164 -19 189q0 43 16 72q19 35 83 35q132 -3 162 -206q11 -80 15 -150q2 -36 5 -63q13 -119 19 -239q2 -37 6 -78q6 -63 7 -117q-3 -124 -79 -124zM167 1057q-31 0 -55.5 22.5t-24.5 61.5 q0 40 50 71t74 50q66 50 107 92q47 36 65 46q27 17 50 17q57 0 83 -17q33 -20 54 -56q13 -26 13 -32q0 -13 -13 -35q-17 -23 -109 -74q-69 -37 -111 -56q-73 -33 -105 -56q-46 -34 -78 -34z" />
<glyph unicode="&#xee;" horiz-adv-x="675" d="M423 -73q-38 0 -93 34q-71 54 -85 126q-11 54 -11 113l1 39q0 166 -27 369q-19 164 -19 189q0 43 16 72q19 35 83 35q132 -3 162 -206q11 -80 15 -150q2 -36 5 -63q13 -119 19 -239q2 -37 6 -78q6 -63 7 -117q-3 -124 -79 -124zM642 1057q-32 0 -78 34q-33 23 -105 56 q-42 19 -114 57q-71 -38 -113 -57q-72 -33 -105 -56q-46 -34 -78 -34q-31 0 -55 22.5t-24 61.5q0 40 50 71q105 65 180 142q47 36 65 46q28 17 81 17q52 0 80 -17q18 -10 65 -46q75 -77 180 -142q50 -31 50 -71q0 -39 -24 -61.5t-55 -22.5z" />
<glyph unicode="&#xef;" horiz-adv-x="632" d="M409 -73q-38 0 -93 34q-71 54 -85 126q-11 54 -11 113l1 39q0 166 -27 369q-19 164 -19 189q0 43 16 72q19 35 83 35q132 -3 162 -206q11 -80 15 -150q2 -36 5 -63q13 -119 19 -239q2 -37 6 -78q6 -63 7 -117q-3 -124 -79 -124zM140 1113l-14 1q-79 10 -122 60 q-23 28 -23 65q0 69 61 129q45 44 91 44q85 0 127 -84q26 -50 26 -98q0 -39 -28 -71q-23 -25 -60 -36q-30 -10 -58 -10zM536 1113l-14 1q-79 10 -122 60q-23 28 -23 65q0 69 61 129q44 44 91 44q85 0 127 -84q26 -50 26 -98q0 -39 -28 -71q-23 -25 -60 -36q-30 -10 -58 -10z " />
<glyph unicode="&#xf0;" horiz-adv-x="1053" d="M447 92q57 0 115.5 29.5t88.5 93.5q27 74 27 214q0 168 -38 206q-33 22 -77 22q-85 0 -142 -54q-44 -46 -85 -128.5t-55 -169.5q-4 -24 -4 -47q0 -57 26 -100q53 -66 144 -66zM862 1135q2 -18 4 -40q27 -194 27 -419q2 -240 13 -485q4 -55 4 -122t-14 -111 q-23 -45 -57 -45q-37 0 -98 41q-35 23 -56 26q-34 -6 -70 -31q-80 -52 -189 -52q-28 0 -92 9t-138 75q-49 45 -92.5 108t-56.5 130q-3 28 -3 57q0 79 27.5 185t96.5 210.5t165 150.5q63 29 138 40q23 4 45 4q50 0 95 -19q24 -11 36 -11q16 0 16 33q0 59 -19 176 q-9 51 -15 95l-121 2q-22 0 -40 -4q-15 -4 -31 -4q-11 0 -31 4t-62 49q-23 25 -23 44q0 32 53 43q28 6 86 8q15 1 28 3q30 3 116 3h15q4 84 35 116q25 27 67 27q24 0 59 -15.5t56 -61.5q10 -24 15 -69l81 1q19 0 34 -2q24 -3 38 -31q21 -39 21 -66q0 -13 -9.5 -31.5 t-64.5 -19.5q-32 -1 -70 -1h-19z" />
<glyph unicode="&#xf1;" horiz-adv-x="997" d="M775 -51q-23 0 -54 12q-47 18 -80 54.5t-33 85.5q0 18 11 77q19 97 21 234q0 66 -4 154l-1 46q0 133 -41 166q-32 18 -72 18q-90 0 -157 -53q-22 -24 -22 -65q0 -47 9 -93q3 -18 7 -56q23 -202 23 -337q0 -99 -17 -161q-24 -47 -69 -47q-2 0 -28 2t-70 39t-55 86 q-6 51 -6 95q0 24 2 46q2 33 2 75q0 119 -28 322q-26 191 -26 259q0 107 74 107q37 0 94 -28q50 -20 88 -20q41 0 91 13q61 15 132 15q97 0 169.5 -37t97.5 -152q39 -213 39 -459q0 -161 -20 -302q-13 -96 -77 -96zM697 1084h-20q-190 0 -304 86q-29 22 -48 22 q-26 0 -64 -72q-30 -16 -52 -16q-66 0 -75 76v5q0 32 59 100q36 41 92 58q9 3 22 3q65 0 226 -74q78 -36 108 -36q33 0 50 69q12 46 55 46q79 -3 79 -67v-40q0 -46 -41 -103t-87 -57z" />
<glyph unicode="&#xf2;" horiz-adv-x="923" d="M411 194l16 1q116 21 153 194q16 78 16 159q0 55 -6 110q-11 118 -72 154q-15 9 -35 9q-27 0 -63 -17q-61 -37 -84 -112q-25 -82 -25 -195q0 -161 13 -222q16 -81 87 -81zM456 13q-148 0 -250 82q-90 71 -112 179q-7 47 -7 109l3 171q0 114 24 211.5t97.5 162t223.5 79.5 h24q144 0 230 -70q156 -126 156 -425q0 -127 -30 -243q-66 -256 -359 -256zM552 1057q-32 0 -78 34q-33 23 -105 56q-42 19 -111 56q-92 51 -109 74q-13 22 -13 35q0 6 13 32q21 36 54 56q26 17 82 17q23 0 51 -17q18 -10 65 -46q41 -42 106 -92q24 -19 74 -50t50 -71 q0 -39 -24 -61.5t-55 -22.5z" />
<glyph unicode="&#xf3;" horiz-adv-x="910" d="M398 194l16 1q116 21 153 194q16 78 16 159q0 55 -6 110q-11 118 -72 154q-15 9 -35 9q-27 0 -63 -17q-61 -37 -84 -112q-25 -82 -25 -195q0 -161 13 -222q16 -81 87 -81zM443 13q-148 0 -250 82q-90 71 -112 179q-7 47 -7 109l3 171q0 114 24 211.5t97.5 162t223.5 79.5 h24q144 0 230 -70q156 -126 156 -425q0 -127 -30 -243q-66 -256 -359 -256zM367 1057q-31 0 -55 22.5t-24 61.5q0 40 50 71t74 50q65 50 106 92q47 36 65 46q28 17 51 17q56 0 82 -17q33 -20 54 -56q13 -26 13 -32q0 -13 -13 -35q-17 -23 -109 -74q-69 -37 -111 -56 q-72 -33 -105 -56q-46 -34 -78 -34z" />
<glyph unicode="&#xf4;" horiz-adv-x="923" d="M411 194l16 1q116 21 153 194q16 78 16 159q0 55 -6 110q-11 118 -72 154q-15 9 -35 9q-27 0 -63 -17q-61 -37 -84 -112q-25 -82 -25 -195q0 -161 13 -222q16 -81 87 -81zM456 13q-148 0 -250 82q-90 71 -112 179q-7 47 -7 109l3 171q0 114 24 211.5t97.5 162t223.5 79.5 h24q144 0 230 -70q156 -126 156 -425q0 -127 -30 -243q-66 -256 -359 -256zM763 1057q-32 0 -78 34q-33 23 -105 56q-42 19 -114 57q-71 -38 -113 -57q-72 -33 -105 -56q-46 -34 -78 -34q-31 0 -55 22.5t-24 61.5q0 40 50 71q104 65 180 142q47 36 65 46q28 17 81 17 q52 0 80 -17q18 -10 65 -46q75 -77 180 -142q50 -31 50 -71q0 -39 -24 -61.5t-55 -22.5z" />
<glyph unicode="&#xf5;" horiz-adv-x="923" d="M411 194l16 1q116 21 153 194q16 78 16 159q0 55 -6 110q-11 118 -72 154q-15 9 -35 9q-27 0 -63 -17q-61 -37 -84 -112q-25 -82 -25 -195q0 -161 13 -222q16 -81 87 -81zM456 13q-148 0 -250 82q-90 71 -112 179q-7 47 -7 109l3 171q0 114 24 211.5t97.5 162t223.5 79.5 h24q144 0 230 -70q156 -126 156 -425q0 -127 -30 -243q-66 -256 -359 -256zM684 1084h-20q-190 0 -304 86q-29 22 -48 22q-26 0 -64 -72q-30 -16 -52 -16q-66 0 -75 76v5q0 32 59 100q36 41 92 58q9 3 22 3q65 0 226 -74q78 -36 108 -36q33 0 50 69q12 46 54 46 q80 -3 80 -67v-40q0 -46 -41 -103t-87 -57z" />
<glyph unicode="&#xf6;" horiz-adv-x="930" d="M418 194l16 1q116 21 153 194q16 78 16 159q0 55 -6 110q-11 118 -72 154q-15 9 -35 9q-27 0 -63 -17q-61 -37 -84 -112q-25 -82 -25 -195q0 -161 13 -222q16 -81 87 -81zM463 13q-148 0 -250 82q-90 71 -112 179q-7 47 -7 109l3 171q0 114 24 211.5t97.5 162t223.5 79.5 h24q144 0 230 -70q156 -126 156 -425q0 -127 -30 -243q-66 -256 -359 -256zM282 1113l-14 1q-79 10 -122 60q-23 28 -23 65q0 69 61 129q44 44 91 44q85 0 127 -84q26 -50 26 -98q0 -39 -28 -71q-23 -25 -60 -36q-30 -10 -58 -10zM677 1113l-13 1q-79 10 -122 60 q-24 28 -24 65q0 69 62 129q44 44 91 44q85 0 127 -84q25 -50 25 -98q0 -39 -27 -71q-23 -25 -60 -36q-31 -10 -59 -10z" />
<glyph unicode="&#xf7;" horiz-adv-x="872" d="M104 582q-15 0 -42 4t-82 49q-31 25 -31 44q0 32 71 43q37 6 114 8q20 1 37 3q40 3 155 3q62 0 324 -3l115 1q26 0 45 -2q32 -3 51 -31q28 -39 28 -66q0 -13 -13 -31.5t-86 -19.5q-43 -1 -94 -1l-498 7q-29 0 -53 -4q-20 -4 -41 -4zM443 147q-97 0 -151 49q-40 40 -40 96 v6q21 108 156 108q35 0 69 -9q107 -28 109 -141q-1 -68 -59 -92q-39 -17 -84 -17zM443 912q-97 0 -151 48q-40 40 -40 97v5q21 109 156 109q35 0 69 -10q107 -28 109 -141q-1 -68 -59 -92q-39 -16 -84 -16z" />
<glyph unicode="&#xf8;" horiz-adv-x="909" d="M700 915q131 -129 131 -403q0 -127 -30 -243q-66 -256 -359 -256q-67 0 -124 17q-5 -13 -9 -26q-29 -86 -78 -86q-15 0 -33 7q-47 20 -57 53q-4 14 -4 30q0 37 33 106q-71 66 -90 160q-7 47 -7 109l3 171q0 114 24 211.5t97.5 162t223.5 79.5h24q56 0 103 -11 q28 66 48 97q23 29 47 29q11 0 35 -13t41 -52q6 -17 6 -37q0 -38 -25 -105zM298 422q20 45 41 89q81 158 141 309q-5 1 -11 1q-27 0 -63 -17q-61 -37 -84 -112q-25 -82 -25 -195q0 -41 1 -75zM579 627q-45 -103 -97 -204q-53 -107 -102 -228q8 -1 17 -1l16 1q116 21 153 194 q16 78 16 159q0 40 -3 79z" />
<glyph unicode="&#xf9;" horiz-adv-x="1011" d="M846 -21q-24 0 -60 10.5t-68 28.5q-40 18 -56 18q-13 0 -31 -8q-67 -31 -178 -31q-38 0 -110.5 8.5t-151.5 60.5t-97 150q-5 43 -5 91q0 36 3 75q2 61 2 111q2 404 33 477q16 40 72 62q25 8 48 8q39 0 79 -30q51 -39 51 -128q0 -64 -15 -153q-10 -67 -14 -119 q-2 -63 -2 -321q0 -108 84 -108q25 0 59 8q126 25 131 145q2 14 8 82q0 7 4 50q4 89 16 194q13 97 13 205v41q0 89 47 107q20 7 42 7q29 0 72.5 -20.5t64.5 -62.5q14 -40 14 -102q0 -103 -32 -296q-19 -115 -19 -216q0 -119 56 -209q18 -28 18 -49q0 -12 -3 -27 q-10 -48 -47 -56q-13 -3 -28 -3zM593 1095q-33 0 -78 34q-33 23 -105 56q-42 19 -111 56q-92 51 -109 74q-13 21 -13 35q0 6 13 32q21 36 54 56q26 16 82 16q23 0 51 -16q18 -10 65 -46q41 -43 106 -93q24 -18 74 -49t50 -72q0 -38 -24 -60.5t-55 -22.5z" />
<glyph unicode="&#xfa;" horiz-adv-x="1015" d="M850 -21q-24 0 -60 10.5t-68 28.5q-40 18 -56 18q-13 0 -31 -8q-67 -31 -178 -31q-38 0 -110.5 8.5t-151.5 60.5t-97 150q-5 43 -5 91q0 36 3 75q2 61 2 111q2 404 33 477q16 40 72 62q25 8 48 8q39 0 79 -30q51 -39 51 -128q0 -64 -15 -153q-10 -67 -14 -119 q-2 -63 -2 -321q0 -108 84 -108q25 0 59 8q126 25 131 145q2 14 8 82q0 7 4 50q4 89 16 194q13 97 13 205v41q0 89 47 107q20 7 42 7q29 0 72.5 -20.5t64.5 -62.5q14 -40 14 -102q0 -103 -32 -296q-19 -115 -19 -216q0 -119 56 -209q18 -28 18 -49q0 -12 -3 -27 q-10 -48 -47 -56q-13 -3 -28 -3zM425 1127q-31 0 -55.5 23t-24.5 61q0 40 50 71.5t75 49.5q65 50 106 92q47 36 65 46q27 17 50 17q57 0 83 -17q33 -20 54 -56q13 -25 13 -31q0 -14 -13 -36q-17 -23 -109 -74q-69 -37 -111 -56q-73 -32 -105 -56q-46 -33 -78 -34z" />
<glyph unicode="&#xfb;" horiz-adv-x="1025" d="M853 -21q-24 0 -60 10.5t-68 28.5q-40 18 -56 18q-13 0 -31 -8q-67 -31 -178 -31q-38 0 -110.5 8.5t-151.5 60.5t-97 150q-5 43 -5 91q0 36 3 75q2 61 2 111q2 404 33 477q16 40 72 62q25 8 48 8q39 0 79 -30q51 -39 51 -128q0 -64 -15 -153q-10 -67 -14 -119 q-2 -63 -2 -321q0 -108 84 -108q25 0 59 8q126 25 131 145q2 14 8 82q0 7 4 50q4 89 16 194q13 97 13 205v41q0 89 47 107q20 7 42 7q29 0 72.5 -20.5t64.5 -62.5q14 -40 14 -102q0 -103 -32 -296q-19 -115 -19 -216q0 -119 56 -209q18 -28 18 -49q0 -12 -3 -27 q-10 -48 -47 -56q-13 -3 -28 -3zM811 1119q-32 0 -78 34q-33 23 -105 56q-42 19 -114 57q-71 -38 -113 -57q-72 -33 -105 -56q-46 -34 -78 -34q-31 0 -55 22.5t-24 61.5q0 40 50 71q105 64 180 142q47 36 65 46q28 17 81 17q52 0 80 -17q18 -10 65 -46q75 -78 180 -142 q50 -31 50 -71q0 -39 -24 -61.5t-55 -22.5z" />
<glyph unicode="&#xfc;" horiz-adv-x="1011" d="M846 -21q-24 0 -60 10.5t-68 28.5q-40 18 -56 18q-13 0 -31 -8q-67 -31 -178 -31q-38 0 -110.5 8.5t-151.5 60.5t-97 150q-5 43 -5 91q0 36 3 75q2 61 2 111q2 404 33 477q16 40 72 62q25 8 48 8q39 0 79 -30q51 -39 51 -128q0 -64 -15 -153q-10 -67 -14 -119 q-2 -63 -2 -321q0 -108 84 -108q25 0 59 8q126 25 131 145q2 14 8 82q0 7 4 50q4 89 16 194q13 97 13 205v41q0 89 47 107q20 7 42 7q29 0 72.5 -20.5t64.5 -62.5q14 -40 14 -102q0 -103 -32 -296q-19 -115 -19 -216q0 -119 56 -209q18 -28 18 -49q0 -12 -3 -27 q-10 -48 -47 -56q-13 -3 -28 -3zM316 1146l-14 1q-79 10 -122 60q-23 28 -23 66q0 68 61 129q45 43 91 43q85 0 127 -84q26 -50 26 -98q0 -39 -28 -71q-23 -25 -60 -36q-30 -10 -58 -10zM712 1146l-14 1q-79 10 -122 60q-23 28 -23 66q0 68 61 129q44 43 91 43q85 0 127 -84 q26 -50 26 -98q0 -39 -28 -71q-23 -25 -60 -36q-31 -10 -58 -10z" />
<glyph unicode="&#xfd;" horiz-adv-x="867" d="M160 -582q-5 0 -46 1t-122 20q-68 11 -109 45q-22 18 -22 48q0 26 16 60q23 43 55 50q16 3 33 3t35.5 -3t37.5 -3q32 0 75 12t95 101q33 60 80 168q113 262 113 380q0 39 -120 159q-27 26 -43 44q-114 133 -196 289q-24 42 -43 100q-12 34 -12 64q0 21 9.5 54.5 t81.5 43.5h13q50 0 90 -30q65 -48 129 -178l28 -52q85 -156 124 -156q36 0 72 222q11 73 31 137q30 98 105 98q19 0 40 -5q107 -34 107 -154q0 -47 -40 -181q-19 -65 -34 -134q-71 -344 -168 -681q-22 -75 -61 -171q-95 -234 -212 -312q-69 -39 -142 -39zM254 1104 q-31 0 -55 23t-24 61q0 41 49.5 72t74.5 49q65 50 106 92q47 36 65 46q27 17 51 17q56 0 82 -17q33 -20 54 -56q13 -25 13 -31q0 -14 -13 -36q-17 -23 -109 -74q-69 -37 -111 -56q-73 -32 -105 -56q-46 -33 -78 -34z" />
<glyph unicode="&#xfe;" horiz-adv-x="956" d="M418 246q20 0 47 10q123 48 161 248q17 86 17 116q0 249 -173 249q-51 0 -61 -43q-8 -33 -8 -70v-75q0 -114 -20 -260q-13 -89 -13 -106q0 -69 50 -69zM252 -636q-21 0 -49 14q-86 41 -100 122q-8 47 -8 97q0 35 3 71q5 59 12 266q17 461 33.5 568t16.5 190l-1 51 q0 443 -3 534q-1 14 -1 30q0 32 4.5 80t32.5 84q17 22 48 22q19 0 42 -10q66 -27 90.5 -95t24.5 -159q0 -71 -4 -142q183 -28 300 -104q97 -64 137 -134.5t46 -154.5q2 -33 2 -70q0 -55 -4 -119q-17 -291 -214 -412q-58 -36 -98 -43q-18 -3 -134 -6q-68 -2 -82 -33 q-10 -23 -10 -59q0 -13 1 -28.5t1 -67.5q0 -103 -4 -334q-2 -111 -49 -148q-13 -10 -33 -10z" />
<glyph unicode="&#xff;" horiz-adv-x="927" d="M220 -582q-5 0 -46 1t-122 20q-68 11 -109 45q-22 18 -22 48q0 26 16 60q23 43 55 50q16 3 33 3t35.5 -3t37.5 -3q32 0 75 12t95 101q33 60 80 168q113 262 113 380q0 39 -120 159q-27 26 -43 44q-114 133 -196 289q-24 42 -43 100q-12 34 -12 64q0 21 9.5 54.5 t81.5 43.5h13q50 0 90 -30q65 -48 129 -178l28 -52q85 -156 124 -156q36 0 72 222q11 73 31 137q30 98 105 98q19 0 40 -5q107 -34 107 -154q0 -47 -40 -181q-19 -65 -34 -134q-71 -344 -168 -681q-22 -75 -61 -171q-95 -234 -212 -312q-69 -39 -142 -39zM208 1113l-14 1 q-79 10 -122 60q-23 28 -23 65q0 69 61 129q45 44 91 44q85 0 127 -84q26 -50 26 -98q0 -39 -28 -71q-23 -25 -60 -36q-30 -10 -58 -10zM604 1113l-14 1q-79 10 -122 60q-23 28 -23 65q0 69 61 129q44 44 91 44q85 0 127 -84q26 -50 26 -98q0 -39 -28 -71q-23 -25 -60 -36 q-31 -10 -58 -10z" />
<glyph unicode="&#x2c6;" horiz-adv-x="851" d="M722 1057q-32 0 -78 34q-33 23 -105 56q-42 19 -114 57q-71 -38 -113 -57q-72 -33 -105 -56q-46 -34 -78 -34q-31 0 -55 22.5t-24 61.5q0 40 50 71q105 65 180 142q47 36 65 46q28 17 81 17q52 0 80 -17q18 -10 65 -46q75 -77 180 -142q50 -31 50 -71q0 -39 -24 -61.5 t-55 -22.5z" />
<glyph unicode="&#x2dc;" horiz-adv-x="792" d="M614 1084h-20q-190 0 -304 86q-29 22 -48 22q-26 0 -64 -72q-30 -16 -52 -16q-66 0 -75 76v5q0 32 59 100q36 41 92 58q9 3 22 3q65 0 226 -74q78 -36 108 -36q33 0 50 69q12 46 55 46q79 -3 79 -67v-40q0 -46 -41 -103t-87 -57z" />
<glyph unicode="&#x2000;" horiz-adv-x="965" />
<glyph unicode="&#x2001;" horiz-adv-x="1930" />
<glyph unicode="&#x2002;" horiz-adv-x="965" />
<glyph unicode="&#x2003;" horiz-adv-x="1930" />
<glyph unicode="&#x2004;" horiz-adv-x="643" />
<glyph unicode="&#x2005;" horiz-adv-x="482" />
<glyph unicode="&#x2006;" horiz-adv-x="321" />
<glyph unicode="&#x2007;" horiz-adv-x="321" />
<glyph unicode="&#x2008;" horiz-adv-x="241" />
<glyph unicode="&#x2009;" horiz-adv-x="386" />
<glyph unicode="&#x200a;" horiz-adv-x="107" />
<glyph unicode="&#x2010;" horiz-adv-x="409" d="M205 372q-150 0 -176 4q-32 4 -72 28t-61 56q-9 13 -9 26q0 16 18 30q33 27 284 27q100 0 147 -10q66 -13 87 -63q7 -16 7 -30q0 -29 -30 -47q-34 -21 -195 -21z" />
<glyph unicode="&#x2011;" horiz-adv-x="409" d="M205 372q-150 0 -176 4q-32 4 -72 28t-61 56q-9 13 -9 26q0 16 18 30q33 27 284 27q100 0 147 -10q66 -13 87 -63q7 -16 7 -30q0 -29 -30 -47q-34 -21 -195 -21z" />
<glyph unicode="&#x2012;" horiz-adv-x="409" d="M205 372q-150 0 -176 4q-32 4 -72 28t-61 56q-9 13 -9 26q0 16 18 30q33 27 284 27q100 0 147 -10q66 -13 87 -63q7 -16 7 -30q0 -29 -30 -47q-34 -21 -195 -21z" />
<glyph unicode="&#x2013;" horiz-adv-x="890" d="M487 372q-283 0 -332 4q-61 4 -136 28t-115 56q-17 13 -17 26q0 16 34 30q62 27 536 27q188 0 277 -10q124 -13 164 -63q13 -16 13 -30q0 -29 -57 -47q-64 -21 -367 -21z" />
<glyph unicode="&#x2014;" horiz-adv-x="1914" d="M1086 372q-565 0 -663 4q-121 4 -272 28t-230 56q-34 13 -34 26q0 16 68 30q124 27 1071 27q377 0 554 -10q249 -13 329 -63q26 -16 26 -30q0 -29 -113 -47q-128 -21 -736 -21z" />
<glyph unicode="&#x2018;" horiz-adv-x="370" d="M281 1492q34 0 34 -10q0 -11 -50 -43q-23 -16 -44 -33q-34 -28 -34 -57q0 -39 85 -80q36 -18 64.5 -40.5t30.5 -56.5q-2 -61 -54 -95q-64 -41 -141 -41q-79 0 -129 38q-46 35 -46 108q0 21 4 46q45 255 280 264z" />
<glyph unicode="&#x2019;" horiz-adv-x="370" d="M82 1036q-33 0 -33 10t50 43q23 16 44 33q34 27 34 56q0 40 -85 81q-36 18 -64.5 40.5t-30.5 56.5q2 61 54 95q64 41 141 41q79 0 129 -38q46 -35 46 -108q0 -21 -4 -46q-45 -255 -281 -264z" />
<glyph unicode="&#x201a;" horiz-adv-x="370" d="M82 -177q-33 0 -33 10t50 43q23 16 44 33q34 27 34 56q0 40 -85 81q-36 18 -64.5 40.5t-30.5 56.5q2 61 54 95q64 41 141 41q79 0 129 -38q46 -35 46 -108q0 -22 -4 -46q-45 -255 -281 -264z" />
<glyph unicode="&#x201c;" horiz-adv-x="888" d="M281 1492q34 0 34 -10q0 -11 -50 -43q-23 -16 -44 -33q-34 -28 -34 -57q0 -39 85 -80q36 -18 64.5 -40.5t30.5 -56.5q-2 -61 -54 -95q-64 -41 -141 -41q-79 0 -129 38q-46 35 -46 108q0 21 4 46q45 255 280 264zM799 1492q34 0 34 -10q0 -11 -50 -43q-23 -16 -44 -33 q-34 -28 -34 -57q0 -39 85 -80q36 -18 64.5 -40.5t30.5 -56.5q-2 -61 -54 -95q-64 -41 -141 -41q-79 0 -129 38q-46 35 -46 108q0 21 4 46q44 255 280 264z" />
<glyph unicode="&#x201d;" horiz-adv-x="888" d="M82 1036q-33 0 -33 10t50 43q23 16 44 33q34 27 34 56q0 40 -85 81q-36 18 -64.5 40.5t-30.5 56.5q2 61 54 95q64 41 141 41q79 0 129 -38q46 -35 46 -108q0 -21 -4 -46q-45 -255 -281 -264zM600 1036q-33 0 -33 10t50 43q23 16 44 33q34 27 34 56q0 40 -85 81 q-36 18 -64.5 40.5t-30.5 56.5q2 61 54 95q63 41 141 41q79 0 129 -38q46 -35 46 -108q0 -21 -4 -46q-45 -255 -281 -264z" />
<glyph unicode="&#x201e;" horiz-adv-x="888" d="M82 -228q-33 0 -33 10q0 11 50 43q23 16 44 33q34 28 34 56q0 40 -85 81q-36 18 -64.5 40.5t-30.5 56.5q2 61 54 95q64 41 141 41q79 0 129 -38q46 -35 46 -108q0 -21 -4 -46q-45 -255 -281 -264zM600 -228q-33 0 -33 10q0 11 50 43q23 16 44 33q34 28 34 56q0 40 -85 81 q-36 18 -64.5 40.5t-30.5 56.5q2 61 54 95q63 41 141 41q79 0 129 -38q46 -35 46 -108q0 -21 -4 -46q-45 -255 -281 -264z" />
<glyph unicode="&#x2022;" horiz-adv-x="958" d="M469 158q-148 0 -250 61q-90 53 -112 134q-7 35 -7 81l3 127q0 85 24 158t97.5 121t223.5 59h24q144 0 230 -52q156 -94 156 -317q0 -94 -30 -181q-66 -191 -359 -191z" />
<glyph unicode="&#x2026;" horiz-adv-x="2048" d="M190 -71q-97 0 -151 48q-40 40 -40 97v5q21 109 156 109q35 0 69 -10q107 -28 109 -141q-1 -68 -59 -92q-39 -16 -84 -16zM873 -71q-97 0 -151 48q-40 40 -40 97v5q21 109 156 109q35 0 69 -10q107 -28 109 -141q-1 -68 -59 -92q-39 -16 -84 -16zM1556 -71q-97 0 -151 48 q-40 40 -40 97v5q21 109 156 109q35 0 69 -10q107 -28 109 -141q-1 -68 -59 -92q-39 -16 -84 -16z" />
<glyph unicode="&#x202f;" horiz-adv-x="386" />
<glyph unicode="&#x2039;" horiz-adv-x="763" d="M713 829q0 -34 -17 -55q-20 -21 -149 -93q-43 -23 -74 -42q-122 -75 -149 -105q-5 -9 -5 -18q0 -28 68 -78q60 -53 114 -94q126 -92 170 -161q17 -38 17 -64q0 -31 -24.5 -46t-60.5 -15q-27 0 -59 9q-86 28 -156 80.5t-135 113.5l-80 71q-69 55 -96 106t-27 114 q0 75 41 117q30 31 66 57l40 31q69 59 117 92.5t149 84.5q109 65 144 65q39 -5 67.5 -48.5t33.5 -76.5t5 -45z" />
<glyph unicode="&#x203a;" horiz-adv-x="763" d="M50 829q0 12 5 45t33.5 76.5t67.5 48.5q35 0 144 -65q101 -51 149 -84.5t117 -92.5l40 -31q36 -26 66 -57q41 -42 41 -117q0 -63 -27 -114t-96 -106l-80 -71q-65 -61 -135 -113.5t-156 -80.5q-33 -9 -59 -9q-36 0 -60.5 15t-24.5 46q0 26 17 64q44 69 170 161 q54 41 113 94q68 50 68 78q0 9 -4 18q-28 30 -149 105q-31 19 -74 42q-129 72 -149 93q-17 21 -17 55z" />
<glyph unicode="&#x205f;" horiz-adv-x="482" />
<glyph unicode="&#x20ac;" horiz-adv-x="1033" d="M186 841q4 121 16 155q74 202 215 287q119 72 288 72q31 0 65 -3q112 -5 167 -102q14 -29 14 -50q0 -20 -13 -33q-23 -23 -72 -23q-35 0 -82 6q-31 4 -59 4q-21 0 -53.5 -3.5t-98.5 -41.5q-83 -50 -119 -112q-19 -34 -28 -151q124 1 220 8q13 3 60 3h20q42 -1 64 -15 t22 -36q0 -12 -5 -26q-25 -56 -84 -69.5t-119 -13.5q-33 -3 -185 -4q-1 -50 -1 -108q129 2 228 9q13 3 60 3h20q42 -1 64 -15t22 -36q0 -12 -5 -26q-25 -56 -84 -69.5t-119 -13.5q-32 -3 -180 -4q17 -168 76 -211q66 -48 160 -48q28 0 59 4q41 7 68 39q41 53 113 53 q58 0 94 -43q26 -30 26 -69q0 -27 -13 -58q-53 -110 -157 -119q-30 -2 -65 -2q-200 0 -325 42q-100 38 -159 110q-83 103 -108 299q-10 -1 -21 -1l-15 -1q-145 0 -145 51q0 14 10 33q52 57 130 66q16 1 31 3v108h-11l-15 -1q-145 0 -145 51q0 14 10 33q52 57 130 66 q17 1 34 3z" />
<glyph unicode="&#x2122;" horiz-adv-x="1314" d="M314 867h-11.5t-28 10t-23.5 26q-3 9 -3 23q0 19 4 74q17 210 25 283q1 14 1 24q0 18 -6 23t-25 5q-9 0 -19 -0.5t-20.5 -1t-34.5 -0.5q-17 -1 -35 -1q-11 0 -32 0.5t-42 7.5t-34 19q-10 11 -10 22q0 2 2 10t30 16q32 10 74 10q19 0 38.5 -1t39.5 -1q7 0 24 0.5t45 7.5 q35 8 52 8q14 0 26 -2q19 -4 55 -4q75 2 105 2l33 -1q64 0 88 -30q10 -13 10 -25q0 -4 -3 -14q-4 -12 -50 -12l-135 2q-52 0 -61 -4q-16 -6 -18 -24q-2 -10 -2 -21q0 -7 1 -13.5t1 -12.5q0 -178 -16 -330q-5 -50 -16 -63q-11 -12 -29 -12zM1165 867q-15 0 -33 9 q-27 17 -31 48q-1 12 -1 25q0 19 3 37q3 28 3 84q0 66 7 137q4 31 4 58v6q0 8 -2 12q0 1 -1 1q-7 0 -25 -48l-2 -6q-48 -139 -77 -177q-22 -23 -42 -23q-7 0 -25 8t-42.5 46.5t-44 85t-33.5 84.5q-12 34 -18 45q-9 14 -14 14q-6 0 -6 -37q0 -25 4 -79q3 -41 3 -131l-1 -41 q0 -28 10 -61q7 -24 7 -46q0 -18 -8 -30q-7 -11 -23 -11q-4 0 -9 1q-26 6 -47 27t-27 43q-9 36 -9 102l1 46q0 18 -1 34q-3 96 -3 192v77q1 13 9 26.5t22 16.5q16 3 43 3h20q17 0 34 -7q30 -22 60.5 -85.5t54.5 -125.5q31 -78 39 -81q10 7 46 103l34 94q20 58 40.5 80.5 t66.5 22.5q43 0 56.5 -27t13.5 -60v-25q0 -37 -10 -165q-4 -46 -4 -96q0 -25 1 -51q1 -28 1 -55t-1 -54q-3 -30 -24 -42q-9 -4 -19 -4z" />
<glyph unicode="&#x25fc;" horiz-adv-x="1030" d="M0 1030h1030v-1030h-1030v1030z" />
</font>
</defs>
</svg>
