<?xml version="1.0" standalone="no"?>
<!DOCTYPE svg PUBLIC "-//W3C//DTD SVG 1.1//EN" "http://www.w3.org/Graphics/SVG/1.1/DTD/svg11.dtd" >
<svg xmlns="http://www.w3.org/2000/svg" xmlns:xlink="http://www.w3.org/1999/xlink" version="1.1">
<metadata></metadata>
<defs>
<font id="kids_cornerregular" horiz-adv-x="384" >
<font-face units-per-em="1000" ascent="800" descent="-200" />
<missing-glyph horiz-adv-x="250" />
<glyph horiz-adv-x="250" />
<glyph horiz-adv-x="250" />
<glyph horiz-adv-x="333" />
<glyph unicode="&#xd;" horiz-adv-x="333" />
<glyph unicode=" "  horiz-adv-x="250" />
<glyph unicode="&#x09;" horiz-adv-x="250" />
<glyph unicode="&#xa0;" horiz-adv-x="250" />
<glyph unicode="!" horiz-adv-x="201" d="M103 179q3 1 10 1q23 0 31 -10q4 -5 4 -26q0 -30 -6 -37q-10 -14 -34 -14q-1 0 -3 0.5t-3 0.5q-10 2 -21 11q-12 9 -12 27q0 19 14 32q13 12 20 15zM74 703q9 6 23 6q12 0 19 -5q14 -11 18 -26t4 -63q0 -50 6 -178q1 -28 3 -58t3 -47t1 -18q0 -10 -12 -19.5t-24 -9.5 q-15 0 -28 9t-17 22q-12 36 -17 224q-1 28 -1 66q0 44 6 66q7 25 16 31z" />
<glyph unicode="&#x22;" horiz-adv-x="356" d="M246 627q13 5 18 5h1q5 0 16 -5t13 -9t2 -21q0 -14 -1 -22q-1 -9 -1 -25q0 -22 5 -50q5 -27 5 -31q0 -8 -5 -16q-9 -16 -20 -16q-5 0 -16 3q-26 7 -36 27.5t-13 73.5q-1 12 -1 29t8 33q8 18 25 24zM84 644q11 10 22 10q1 0 3.5 -0.5t4.5 -0.5q30 -3 30 -30q0 -15 -8 -42 q-8 -24 -8 -69t-11 -57q-11 -11 -23 -11q-10 0 -21 8q-20 16 -20 63q0 18 1 30q2 44 8.5 65t21.5 34z" />
<glyph unicode="&#x26;" horiz-adv-x="541" d="M291 197q0 5 -39 43t-44 40h-1q-11 0 -36.5 -35.5t-25.5 -51.5q0 -9 15 -21.5t35 -19.5q18 -7 25 -7q6 0 13 4q15 7 36.5 25t21.5 23zM240 529q-13 17 -19 17q-5 0 -16 -6q-25 -13 -25 -49q0 -23 10 -43q13 -25 23 -25q4 0 7 3q8 6 19 30t12 37q0 1 0.5 4t0.5 5 q0 11 -12 27zM424 115q-3 0 -25.5 12t-25.5 12q-5 0 -41 -31q-64 -56 -115 -56q-42 0 -80 21q-22 11 -45 33t-30 39q-8 21 -8 31q0 4 2 22q5 51 60 116q29 34 29 40q0 4 -15 23q-40 50 -40 117q0 24 8 45q28 62 84 82q12 5 36 5q32 0 56 -11q27 -14 46.5 -45t19.5 -69 q0 -11 -1 -16q-6 -52 -32 -75q-11 -11 -11 -17q0 -3 -13 -21.5t-13 -21.5t36 -41q33 -34 42 -34h1q11 4 37 55q4 10 22.5 21t29.5 11q9 0 19 -11t12 -24q1 -3 1 -8q0 -14 -22 -55q-24 -48 -24 -54q0 -4 23 -21t30 -35l9 -20l-13 -13q-8 -9 -12.5 -10.5t-14.5 0.5 q-16 4 -22 4z" />
<glyph unicode="'" horiz-adv-x="192" d="M75 636q10 10 23 10q4 0 18 -4q10 -4 13.5 -15.5t4.5 -43.5q0 -31 4 -67q2 -18 2 -23q0 -13 -5 -18.5t-19 -11.5q-8 -3 -16 -3q-34 0 -43 55q-3 16 -3 48q0 44 5 54q7 11 16 19z" />
<glyph unicode="(" horiz-adv-x="302" d="M171 659q19 20 27 20q5 0 15 -5q3 -2 11.5 -6t11.5 -5q8 -3 9 -6t0 -12q-2 -14 -27 -66q-19 -38 -47 -124q-26 -70 -26 -192q0 -38 4 -58q13 -73 33 -117q14 -29 14 -53q0 -16 -8 -24q-13 -13 -36 -13q-10 0 -18 5q-9 7 -22.5 25t-13.5 24t-11 26q-6 11 -28 100 q-7 25 -7 84q0 102 15 147q5 18 7 33q4 33 31 100q31 80 66 117z" />
<glyph unicode=")" horiz-adv-x="296" d="M75 652q12 5 18 5q18 0 36.5 -27t45.5 -94q68 -168 68 -262q0 -12 -2 -34q-17 -127 -91 -217q-13 -16 -19.5 -20.5t-17.5 -4.5q-8 0 -28 3q-4 0 -10 13.5t-6 20.5q0 6 24 45q54 86 60 173v13q0 51 -19 133q-3 13 -29.5 85.5t-39.5 102.5q-9 21 -9 39q0 10 3 14q3 5 16 12 z" />
<glyph unicode="," horiz-adv-x="210" d="M101 227q12 8 18 8q5 0 14 -5q26 -14 26 -70v-16q-1 -44 -17 -83q-14 -35 -27 -45q-8 -6 -11.5 -6t-12.5 5q-12 7 -21 7q-8 0 -14 11q-2 6 -2 9q0 9 11 38q13 35 13 80q0 35 4 46.5t19 20.5z" />
<glyph unicode="-" d="M236 351q14 4 30 4h2q28 0 45.5 -14t17.5 -33q0 -24 -26 -37q-12 -6 -67 -13t-62 -9q-16 -2 -28 -2q-44 0 -70 12q-14 6 -22 24q-5 12 -5 15q0 4 9 16q15 19 28.5 23.5t67.5 6.5q69 4 80 7z" />
<glyph unicode="." horiz-adv-x="219" d="M100 225q14 3 20 3q7 0 20 -5q17 -7 23 -27q3 -10 3 -20q0 -25 -18 -41t-41 -16q-11 0 -25 7q-29 17 -29 49q0 13 5 22q11 21 42 28z" />
<glyph unicode="/" horiz-adv-x="371" d="M259 622q13 11 21 11t21 -10.5t15 -19.5v-2q1 -2 1 -3q0 -15 -28 -84q-7 -18 -29.5 -76.5t-35.5 -88.5q-38 -85 -83 -215q-11 -31 -20 -41.5t-27 -10.5q-17 0 -30 13q-10 10 -10 17l4 20q7 32 29 91q43 115 46 121q9 18 13.5 30.5t11 30.5t15.5 40q24 58 28 70 q11 30 30 64.5t28 42.5z" />
<glyph unicode="0" horiz-adv-x="436" d="M236 534q-18 19 -26 19q-7 0 -17 -10q-18 -18 -23 -21q-16 -11 -29 -117q-5 -47 -5 -78q0 -57 12 -89q9 -24 25 -41t29 -17q50 0 75 55q20 43 20 131v15q-2 44 -18 79q-12 24 -12 34q0 4 1 5q4 5 -8 13q-11 8 -24 22zM204 639q2 1 9 1q33 0 55 -20q4 -4 24 -20 q10 -8 23 -26t13 -23q0 -1 -1 -1t0 -2t3 -5l4 -6q37 -49 47 -136q0 -2 0.5 -7.5t0.5 -9.5q0 -70 -14 -128q-21 -87 -82 -131q-33 -25 -65 -25q-19 0 -47 6q-31 6 -51 24q-15 12 -26 26q-25 34 -34 73q-6 27 -9 39q-3 13 -3 41q0 89 18 151q1 6 7.5 32.5t10 38t10 29 t13.5 28.5q5 7 38 25t56 26z" />
<glyph unicode="1" horiz-adv-x="194" d="M71 608q8 5 16 5q10 0 26 -13q10 -8 12.5 -16t7.5 -38q10 -73 10 -281q0 -61 -1 -83q-3 -61 -7.5 -75.5t-24.5 -24.5q-12 -6 -16 -6t-15 6q-16 9 -20 19q-8 22 -9 205v39q0 234 4 243q7 14 17 20z" />
<glyph unicode="2" horiz-adv-x="448" d="M157 638q9 2 27 2q61 0 108 -63q25 -33 25 -114q0 -33 -5 -52q-16 -71 -37 -99q-9 -11 -13 -23q-8 -20 -58 -97q-8 -13 -8 -17q0 -6 12 -6q10 0 17 1q23 3 46 3q94 0 115 -32q8 -13 2 -23t-4 -18v-3l1 -2q0 -9 -15 -12.5t-62 -5.5q-89 -5 -117 -8q-30 -3 -44 -3t-20 3 q-10 5 -20 5t-23.5 8.5t-20.5 18.5q-8 11 0 20q7 9 5 16q-1 2 -1 5q0 7 37 58q32 44 66.5 105.5t44.5 95.5q9 29 9 60q0 39 -12.5 67t-30.5 28q-20 0 -59 -34q-14 -13 -33 -13q-35 0 -35 27q0 11 8 27q14 27 41.5 49t53.5 26z" />
<glyph unicode="3" horiz-adv-x="458" d="M66 575q21 28 46.5 38.5t72.5 10.5q29 0 39.5 -2.5t34.5 -14.5q42 -21 59.5 -45.5t18.5 -61.5q0 -28 -14 -56q-17 -31 -27 -40q-12 -10 -12 -17q0 -4 16 -15q64 -43 90 -97q15 -33 15 -67t-14 -61q-13 -28 -20.5 -37t-26.5 -22q-49 -32 -94 -32q-56 0 -98 29 q-13 9 -45 42t-32 38q0 4 -8 14q-9 14 -11 25q-4 13 10 27q12 14 27 14q22 0 53 -36q42 -49 77 -64q13 -6 26 -6q19 0 40 13q31 21 31 56q0 23 -21 53q-22 31 -30 37q-30 20 -75 20h-7h-8q-46 0 -55 47q0 1 -0.5 3t-0.5 3q0 10 10.5 19.5t39.5 27.5q75 45 75 82q0 6 -3 12 q-8 17 -21.5 23t-43.5 6q-37 0 -53 -12q-16 -10 -32 -14q-2 0 -4 -0.5t-3 -0.5q-10 0 -22 12t-12 23t12 26z" />
<glyph unicode="4" horiz-adv-x="539" d="M236 235q2 0 4 2.5t1 4.5t-5 2q-7 0 -5.5 -4.5t5.5 -4.5zM319 341v13q0 104 -12 104q-7 0 -61.5 -70.5t-54.5 -79.5q0 -4 58 -8q30 -2 37 -2q23 0 28 8t5 35zM278 556q43 43 67 43q11 0 26.5 -11t20.5 -22q4 -13 6 -104q3 -145 9 -154q2 -4 16 -4q20 0 40.5 -13.5 t20.5 -25.5t-16 -23.5t-32 -14.5q-22 -4 -27 -12t-5 -44v-25q0 -17 1 -34t1.5 -27.5t0.5 -12.5q0 -7 -6 -15.5t-11 -8.5q-6 0 -8 -7q-3 -8 -25 -8q-16 0 -20 2t-9 11q-8 16 -9 107q0 55 -5 60q-3 4 -22 4q-15 0 -26 -1l-44 -3l-15 13q-11 9 -13.5 10t-7.5 -3q-8 -8 -52 -8 q-42 0 -57 7q-14 7 -18.5 15.5t-4.5 28.5q0 14 12.5 31.5t54.5 61.5q24 25 78 93t79 94z" />
<glyph unicode="5" horiz-adv-x="468" d="M295 633q12 4 43 4q35 0 50 -5q13 -5 22 -20q7 -13 0 -25q-14 -26 -39 -26q-10 0 -52 -8q-32 -8 -83 -14q-46 -6 -48 -8t-2 -11q0 -6 2 -24l4 -31l24 -1q78 -2 143 -68q20 -20 26 -34q17 -47 17 -80q0 -22 -6 -41q-11 -35 -39.5 -65.5t-62.5 -43.5q-51 -20 -86 -20 q-17 0 -45 9.5t-39 19.5q-13 9 -15 9q-4 0 -23.5 20t-26.5 30q-4 5 -4 11q0 10 16 14q5 1 5 9q0 3 -0.5 7.5t-0.5 6.5q0 6 3 7q2 1 7 1q30 0 52 -18q11 -9 24 -20q22 -18 62 -18q8 0 11 1q13 2 31.5 12.5t27.5 21.5q21 23 21 54q0 16 -17 40q-16 24 -45 39q-25 12 -39 12 q-13 0 -60 -6q-5 -1 -13 -1q-11 0 -23 11q-11 9 -15 29t-9 79q-1 12 -1 29q0 21 5 35q18 62 61 62h6h6q21 0 67 5.5t58 9.5z" />
<glyph unicode="6" horiz-adv-x="428" d="M264 344q-8 3 -18 3q-21 0 -33 -9q-13 -10 -35 -45l-24 -36l13 -18q20 -28 49 -28q6 0 9 1q13 3 28 17.5t22 29.5q8 19 8 39q0 40 -19 46zM169 629q17 13 29 13q9 0 30 -12.5t21 -17.5q0 -14 -34 -47q-29 -27 -59 -96q-9 -18 -9 -61q0 -14 3 -16q5 -2 16 11q12 12 17 12 t21 9q16 8 29 8q2 0 5.5 -0.5t6.5 -0.5q56 -5 92 -43.5t36 -93.5q0 -52 -31 -99.5t-77 -64.5q-28 -10 -55 -10q-29 0 -53 11q-76 36 -98 122q-7 24 -7 93q0 46 4 59q2 6 6 24.5t8.5 33.5t8.5 23q8 20 8 23q0 12 20 50q7 14 27.5 36.5t34.5 33.5z" />
<glyph unicode="7" horiz-adv-x="477" d="M212 627q2 2 38 2q39 0 63 -12q41 -18 53 -54q3 -9 3 -21q0 -20 -7 -30q-2 -3 -14 -34.5t-15 -43.5q-3 -10 9 -14q15 -5 27 -5q13 0 28 -9t21 -20q4 -8 4 -14q0 -22 -22 -37q-14 -9 -30 -9q-2 0 -32 2l-48 3l-11 -20q-11 -20 -11 -27t-20 -57t-28 -62q-6 -10 -18 -18.5 t-19 -8.5q-5 0 -20 13q-15 14 -15 25q0 1 0.5 5.5t0.5 7.5q2 24 22 83q16 45 16 60q0 4 -1 5q-6 6 -31 6q-27 0 -48 13q-23 13 -25 20q-1 2 -1 5q0 9 6.5 20.5t13.5 15.5q11 7 58 7q25 0 42 -3q7 -2 15 -2q6 0 13 8q9 13 13 26q1 4 18 40q12 23 12 34q0 16 -25 16 q-2 0 -6.5 -0.5t-7.5 -0.5q-8 -1 -40.5 -2.5t-49.5 -2.5q-44 -2 -45 -2q-18 0 -28 9q-15 12 -15 31q0 12 7 19q15 19 95 27z" />
<glyph unicode="8" horiz-adv-x="436" d="M228 314q-16 16 -24 16q-7 0 -26 -22t-24 -37q-6 -17 -6 -34q0 -50 37 -66q23 -11 43 -11q12 0 25 3q24 6 34 19q9 12 9 21q0 7 -1 13q-3 21 -15 36q-12 14 -12 22t-12 16t-28 24zM247 532q-10 8 -28 8q-45 0 -68 -26q-11 -13 -11 -17t11 -12q2 -1 14 -11t22.5 -17 t15.5 -7q11 0 31.5 26.5t20.5 39.5q0 8 -8 16zM167 610q14 5 53 5q34 0 49 -4q18 -6 40 -32q16 -19 19.5 -26.5t3.5 -24.5q0 -27 -7.5 -46t-30.5 -50l-27 -38l38 -37q56 -54 72 -112q6 -23 6 -43q0 -55 -40 -87.5t-109 -32.5q-3 0 -9 0.5t-10 0.5q-60 4 -100 45 q-24 25 -33 45.5t-10 53.5v11q0 32 10 58t37 63q16 21 16 28t-16 16q-65 39 -65 87q0 17 8.5 40.5t18.5 34.5q7 8 36.5 23.5t49.5 21.5z" />
<glyph unicode="9" horiz-adv-x="455" d="M261 537q-23 4 -36 4q-11 0 -27 -6q-33 -12 -49 -43q-12 -23 -12 -38q0 -10 7 -28q9 -21 17 -29t23 -12q5 -2 16 -2q27 0 57 29q18 16 36 44.5t18 39.5q0 10 -18 24.5t-32 16.5zM180 612q29 8 49 8q19 0 46 -8q22 -7 46.5 -22.5t36.5 -31.5q6 -7 15 -32.5t16 -33.5 q15 -16 15 -79q0 -19 -1 -30q-2 -47 -4 -127q-2 -95 -7 -102q-4 -8 1 -17q3 -6 3 -19q0 -34 -11 -48q-6 -9 -20 -17q-8 -5 -12 -5t-15 6q-23 13 -27.5 28.5t-4.5 83.5q0 76 2 126q2 30 2 33q0 16 -6 16q-5 0 -24 -14q-38 -27 -78 -27q-18 0 -44 7q-37 11 -68 51t-35 83 q-1 5 -1 15q0 53 35 96.5t91 59.5z" />
<glyph unicode=":" horiz-adv-x="214" d="M88 207q12 4 23 4q15 0 29 -14q10 -10 12.5 -16.5t2.5 -22.5q0 -17 -2 -22.5t-12 -15.5q-19 -19 -45 -19q-6 0 -14 2q-14 4 -22 19.5t-8 33.5q0 20 11 34q11 13 25 17zM56 456q0 18 15.5 32t35.5 14q10 0 22 -5q11 -6 22.5 -22t11.5 -25t-9 -22.5t-19 -20.5q-8 -5 -13 -5 q-4 0 -22 6q-44 15 -44 48z" />
<glyph unicode="?" horiz-adv-x="411" d="M96 119q0 17 20 38t42 21q11 0 20 -5q10 -6 21 -23l14 -19l-8 -22q-10 -34 -47 -41q-1 0 -3 -0.5t-3 -0.5q-19 0 -37.5 17t-18.5 35zM169 659q19 5 47 5q76 0 105 -35q36 -42 36 -104v-11q-5 -42 -33 -81t-70 -60q-50 -25 -50 -61q0 -14 -11.5 -35.5t-20.5 -23.5 q-6 -2 -14 -2q-11 0 -25 14q-15 15 -15 31q0 18 6 48.5t12 41.5q6 12 20.5 25.5t28.5 20.5q18 9 38.5 27.5t27.5 31.5t7 20q0 5 -3 16q-5 21 -16 29q-9 8 -26 8q-12 0 -20 -1q-27 -2 -37 -8.5t-30 -33.5q-5 -7 -26 -11q-5 -1 -12 -1q-6 0 -20 9q-13 10 -13 32q0 5 2 39 q1 8 21.5 27t36.5 26q26 11 54 17z" />
<glyph unicode="@" horiz-adv-x="624" d="M316 369q-6 9 -31 9q-10 0 -16 -3q-9 -5 -19 -29t-10 -40q0 -15 8 -28.5t16 -13.5q9 0 24.5 24.5t26.5 56.5q6 18 1 24zM206 584q40 31 99 31q54 0 111 -22q32 -11 47 -20.5t37 -31.5q69 -67 69 -178v-16q-5 -71 -48 -109q-34 -30 -72 -30q-23 0 -48 17q-18 13 -35 27 l-10 9l-20 -22q-21 -24 -44 -34q-20 -9 -25 -9t-20 5q-21 7 -29 7q-7 0 -19 13.5t-20 31.5q-10 21 -10 48q0 31 15 69q15 36 26 48t43 24q30 10 50 10q23 0 42 -11q22 -14 52 -79q24 -56 38 -67q11 -10 20 -10t19 9q24 18 24 72q0 66 -28 99q-11 15 -11 17q0 5 -29.5 24 t-45.5 24q-45 15 -73 15q-8 0 -26 -2q-27 -4 -44 -14.5t-49 -40.5q-33 -33 -47 -65q-10 -24 -12 -36.5t-2 -60.5q0 -43 2.5 -59t11.5 -47q25 -74 65 -108q15 -13 42.5 -25t41.5 -12t72.5 14.5t84.5 24.5q30 12 43 12q12 0 23 -9q11 -8 11 -25q0 -16 -8 -28q-6 -10 -28 -23 t-43 -18q-28 -8 -56 -15q-69 -19 -96 -19q-12 0 -19 1q-50 4 -104 43q-22 16 -44 41.5t-30 43.5q-2 4 -6 12.5t-5 10.5q-37 71 -37 183q0 37 6 64q11 55 40 99q16 24 47 55t39 31q7 0 22 11z" />
<glyph unicode="A" horiz-adv-x="562" d="M100 133q0 6 -7 6q-6 0 -6 -6q0 -7 6 -7q7 0 7 7zM301 491q-15 56 -23 56q-4 0 -18 -27t-14 -35q0 -7 -6 -17q-5 -8 -33 -90q-9 -26 -5 -30q3 -3 52 -7q51 -4 67 -7q19 -3 22 4q1 2 1 5q0 6 -23 81q-15 49 -20 67zM413 437q0 -8 6.5 -23t6.5 -21q0 -9 6 -21q6 -13 17 -48 q10 -34 19 -61t12 -40q8 -28 18 -53q8 -20 8 -30q0 -4 -2 -14q-10 -34 -42 -34q-16 0 -27 7q-21 15 -49 102q-16 47 -17 49q-3 3 -14 3q-13 0 -23 -1h-18q-38 0 -77 3q-36 3 -49 3q-14 0 -19 -5q-10 -10 -26 -84q-7 -29 -22 -46.5t-31 -17.5t-28 19q-9 15 -9 34q0 16 6 43 q2 9 7 31t6 29q11 52 65 190q40 102 67 148t56 60q11 5 31 5q19 0 34 -5t15 -14q0 -6 10 -16q11 -11 20 -46q2 -6 6 -19.5t7 -23t5 -14.5q8 -26 8 -32q0 -8 8.5 -29t8.5 -28z" />
<glyph unicode="B" horiz-adv-x="465" d="M241 334q-18 7 -52 7q-31 0 -39.5 -6.5t-8.5 -34.5q0 -18 1 -30q2 -44 5 -61q2 -10 39.5 -29.5t60.5 -21.5h10q30 0 46.5 16t16.5 43q0 22 -12 49q-10 22 -29.5 41t-37.5 27zM242 524q-2 20 -18.5 36.5t-39.5 16.5q-10 0 -29.5 -9t-21.5 -14v-7q0 -8 2 -54q2 -35 4 -46.5 t8 -11.5q4 0 19 10q18 14 36 24q40 22 40 48v7zM174 649q8 5 24 5q27 0 50 -10q68 -31 81 -107q3 -15 3 -24q0 -10 -6 -25q-9 -24 -28 -43q-21 -23 -21 -29q0 -8 23 -17q46 -20 78.5 -74t32.5 -107q0 -16 -3 -30q-4 -17 -18.5 -43t-23.5 -34q-22 -19 -57 -32t-59 -13 q-14 0 -19 5t-19 5q-13 0 -43.5 14.5t-30.5 20.5q0 7 -11 7q-13 0 -32.5 7.5t-27.5 15.5q-7 8 -9 23t-4 81q-4 104 -4 214q0 121 7 130q9 13 41.5 32.5t49.5 21.5q20 2 26 6z" />
<glyph unicode="C" horiz-adv-x="560" d="M260 645q12 4 32 4q33 0 69 -10.5t52 -26.5q18 -18 18 -31q0 -11 -10 -22q-12 -13 -25 -13h-7q-17 0 -38 7q-18 7 -39 7q-56 0 -106 -56q-52 -56 -52 -144q0 -50 21.5 -91.5t57.5 -59.5q19 -10 37 -10q16 0 38 6q33 8 94 62q25 22 33 26.5t22 4.5q20 0 35 -15t15 -28 t-16 -37t-25 -30q-3 -2 -48 -38q-42 -34 -85 -45q-40 -10 -54 -10q-6 0 -12 2q-9 3 -22 3q-10 0 -41 10t-42 17q-7 5 -27.5 28.5t-25.5 27.5q-26 22 -45 83q-10 30 -10 75q0 68 16 116t55 96q32 40 62.5 60.5t72.5 31.5z" />
<glyph unicode="D" horiz-adv-x="516" d="M235 533q-3 5 -76 12q-17 2 -20 -3q-5 -7 -5 -38q0 -13 4 -83q3 -50 3 -143v-38q0 -47 4 -51q5 -5 33 -10t49 -5q2 0 6 0.5t5 0.5q16 2 45.5 19t42.5 32q14 16 31 45q18 31 18 57q0 12 -7 51q-15 77 -100 131q-31 20 -33 23zM93 618q22 5 50 5q23 0 40 -1q43 -1 56.5 -3 t38.5 -13q106 -46 154 -134q19 -34 24 -56t7 -75v-30q0 -29 -5 -41q-48 -119 -147 -167q-32 -16 -73 -20q-7 -1 -21 -1q-53 0 -97.5 17.5t-54.5 43.5q-6 16 -10 213q0 36 -1.5 72t-2.5 56.5t-1 22.5q0 6 4 38q4 28 16 49.5t23 23.5z" />
<glyph unicode="E" horiz-adv-x="553" d="M289 514q-18 6 -32 6q-26 0 -56 -34q-13 -15 -24.5 -36t-11.5 -29q0 -7 5 -9h6q36 0 96 8q2 0 11.5 1.5t20 3t19.5 2.5q44 6 44 16q0 6 -13 24q-26 34 -65 47zM195 603q25 12 60 12q34 0 43 -6q12 -6 21 -6q31 0 80 -42q54 -44 84 -130q7 -20 7 -31q0 -10 -10 -27 q-19 -31 -50 -31q-7 0 -10 1h-9q-20 0 -39 -4q-58 -13 -186 -17l-28 -1l1 -15q2 -25 23 -55.5t46 -45.5q20 -12 54 -13q9 -1 22 -1q16 0 41 12q24 13 59 38q30 21 45 21h8q45 -3 45 -35q0 -21 -22 -48t-62 -50q-17 -11 -38 -23q-15 -10 -27 -10q-10 0 -30 -6q-18 -6 -34 -6 t-37 6q-24 6 -29 6q-24 0 -78 42q-23 19 -45.5 51.5t-32.5 61.5q-13 41 -13 92q0 77 23 126q20 44 53 81t65 53z" />
<glyph unicode="F" horiz-adv-x="405" d="M203 622q42 6 76 6q32 0 46 -4.5t21 -17.5q5 -10 -3 -28q-10 -19 -19 -23q-33 -22 -145 -32q-32 -4 -37 -7q-3 -3 -3 -34q0 -64 6 -70q4 -4 67 -4q62 -1 79.5 -9.5t22.5 -37.5q4 -20 -6 -28q-26 -22 -97 -22q-51 0 -56 -5q-3 -3 -3 -37q0 -28 1 -46l2 -78l-14 -16 q-15 -17 -31 -17q-13 0 -29 13q-10 8 -12.5 15t-5.5 33q-4 43 -6 125q-1 25 -3 87t-2 83q-1 20 -1 48q0 31 4 43t18 25q15 14 41 21.5t89 16.5z" />
<glyph unicode="G" horiz-adv-x="490" d="M223 632q19 4 47 4q60 0 98 -19q36 -19 36 -45q0 -10 -9 -21t-48 -11q-19 0 -40 3q-19 3 -36 3q-42 0 -73 -30q-24 -24 -31 -45q-16 -43 -16 -72q0 -7 2 -11q4 -5 4 -20t8.5 -40t17.5 -36q32 -40 46.5 -53t28.5 -13q8 0 18 3q16 4 22 10t20 28q9 15 9 22q0 9 -25 9 q-24 0 -32 6q-9 7 -15 7q-7 0 -14 8t-9 18q-1 2 -1 7q0 24 25 39q9 6 50.5 11.5t71.5 5.5q13 0 17 -1q17 -3 30 -24t13 -43q0 -10 -3 -18q-4 -10 -9 -31q-10 -48 -31 -88q-17 -35 -64 -58q-31 -15 -60 -16h-6q-47 0 -86.5 22t-60.5 60q-20 33 -22 35q-8 11 -21 48.5 t-13 49.5q0 15 -4 16q-4 3 -4 27q0 29 4 50q11 58 25.5 90.5t42.5 58.5q17 17 47.5 33.5t49.5 20.5z" />
<glyph unicode="H" horiz-adv-x="532" d="M71 627q9 7 24 5q24 -2 31.5 -28t14.5 -139l1 -15l107 2q106 1 113 7q6 6 6 72q0 56 4 73.5t19 23.5q13 5 20 5q18 0 25.5 -23t12.5 -83q4 -55 21 -216q5 -34 9 -92q2 -18 2 -43q0 -22 -5.5 -32t-19.5 -18q-13 -7 -26 -7q-38 0 -43 53q-2 27 -7 54q-4 32 -4 74 q0 35 -4 46t-18 11q-9 0 -24 -3q-21 -4 -100 -8q-70 -2 -76 -6q-4 -4 -4 -45q0 -26 1 -43q1 -19 1 -48q0 -37 -5 -52t-18 -24q-11 -8 -27 -3q-19 6 -26 15q-7 7 -9 24t-5 91q-2 46 -5 154.5t-5 154.5q-1 7 -1 19q0 27 20 44z" />
<glyph unicode="I" horiz-adv-x="206" d="M65 603q13 12 33 12q26 0 34.5 -26t12.5 -113q1 -18 3.5 -71.5t3.5 -72.5q4 -63 4 -119q0 -63 -6 -83q-5 -12 -18.5 -23t-23.5 -11q-13 0 -26 9t-18 22q-14 33 -14 324v35l1 105z" />
<glyph unicode="J" horiz-adv-x="485" d="M145 733q12 6 28 6q12 0 82 -8q62 -8 106 -8q55 0 63 -20q2 -5 2 -19q0 -19 -4 -26q-10 -18 -73 -25l-32 -3l1 -27q0 -38 3 -80q1 -12 1 -39q0 -106 -16 -157q-17 -60 -67 -84q-23 -11 -56 -11q-30 0 -41 9q-7 7 -21 11q-10 2 -26 21.5t-19 32.5q-1 5 -10 30 q-11 28 -11 56q0 18 4 27q5 12 17.5 21t22.5 9t10 -10q0 -7 1 -7t5 5q4 6 8 6q8 0 21 -51q10 -40 18 -55t21 -17h3q23 0 33 47q7 40 7 160q0 105 -6 109q-4 4 -40 10q-32 5 -45 16t-13 31q0 31 23 40z" />
<glyph unicode="K" horiz-adv-x="501" d="M140 543q0 -19 2 -41t2 -40q1 -27 7 -27q7 0 133 146q38 42 49 47q16 9 17 9q4 0 18.5 -10.5t17.5 -15.5q2 -4 2 -10q0 -19 -14 -42q-16 -23 -106 -122q-24 -26 -24 -33q0 -11 34 -37q10 -8 27.5 -29t27.5 -29q11 -9 48.5 -50t54.5 -62q10 -13 10 -31q0 -16 -8 -24 q-8 -6 -27 -13q-15 -5 -19 -5q-6 0 -18 6q-21 9 -85 75.5t-90 106.5q-13 18 -29 18q-4 0 -7 -3q-7 -8 -7 -46q0 -11 2 -57q3 -33 3 -58q0 -5 -1 -10v-6q-2 -9 -19 -18.5t-30 -9.5q-14 0 -26.5 15t-16.5 36q-4 26 -4 41v7q0 28 -3 94.5t-4 68.5l-4 105q-2 74 -2 78q0 28 6 40 q7 15 12 18t15 3q17 0 31 -7q15 -8 14 -22q0 -17 4 -21q5 -7 7 -35z" />
<glyph unicode="L" horiz-adv-x="469" d="M79 602q10 9 22 9q15 0 28 -12l14 -13l2 -175q2 -176 5 -179q1 -1 3 -1q3 0 7.5 1t12 2t12.5 2q35 7 103 7q53 0 81 -5q20 -4 28 -9.5t14 -20.5q4 -10 3.5 -14t-7.5 -14q-14 -20 -40.5 -24.5t-171.5 -12.5q-60 -3 -79 -3q-20 0 -33 6q-20 10 -26.5 29t-6.5 73q0 82 3 179 q3 98 8 130.5t18 44.5z" />
<glyph unicode="M" horiz-adv-x="624" d="M473 603q8 8 19 8t24 -8q38 -19 44 -64q13 -92 13 -239v-56q0 -63 -9 -82q-10 -19 -15 -19q-4 0 -20 -2h-5q-33 0 -43 23q-5 9 -9.5 53.5t-4.5 80.5q0 9 0.5 22.5t0.5 15.5q0 12 -1 59t-1 48q-1 10 -13 3q-5 -5 -9 -11q-8 -17 -23 -33q-16 -18 -16 -24q0 -5 -19.5 -32 t-35.5 -46q-28 -30 -54 -34q-4 -1 -11 -1q-21 0 -41.5 17.5t-52.5 62.5q-13 18 -27 39q-3 4 -5 4q-9 0 -19 -140q-4 -63 -24 -76q-8 -7 -18 -7q-13 0 -30 17l-16 16l2 71q3 117 4 166q2 80 7 106.5t18 36.5q11 8 29 8q16 0 23 -7q8 -8 8 -20q0 -13 12 -17q14 -5 53 -50 t68 -90q9 -14 15 -14t21 23q8 11 21 26t21 30q22 38 71 100q13 17 26 23q11 4 22 13z" />
<glyph unicode="N" horiz-adv-x="501" d="M385 644q18 5 28 5q23 0 33 -27q5 -10 5 -110q0 -135 -7 -165q-10 -38 -37 -52q-20 -10 -33 -10q-25 0 -82 53q-45 41 -50 41q-3 0 -40 37q-34 36 -41 36q-13 0 -17 -73q-4 -58 -5 -64q0 -3 -0.5 -9.5t-0.5 -8.5q-1 -11 -12.5 -20t-27.5 -9q-20 0 -32 13l-12 13l1 61 q1 97 17 168q7 34 22 50q19 20 44 20q10 0 22 -3q16 -5 63 -49l51 -51q8 -8 13 -8q3 0 27 -20.5t29 -20.5l1 1q3 3 9 92q5 87 10 96q5 8 22 14z" />
<glyph unicode="O" horiz-adv-x="568" d="M301 561q-38 5 -47 5q-17 0 -37 -10q-26 -12 -34 -20q-16 -14 -27.5 -48t-11.5 -66q0 -20 15 -61t31 -65q23 -35 58 -57t66 -22q11 0 20 3q16 5 34 25.5t29 45.5q21 47 21 113q0 18 -3 32q-10 54 -40 87t-74 38zM232 659q32 3 57 3q45 0 78 -12.5t70 -43.5 q42 -34 65 -101q15 -43 15 -104q0 -85 -27 -142l-20 -40q-22 -46 -69.5 -75.5t-97.5 -29.5q-12 0 -17 1q-53 5 -103.5 42.5t-85.5 97.5q-23 40 -39 97q-4 13 -4 44q0 70 15 110q26 69 78 109q36 27 50 34.5t35 9.5z" />
<glyph unicode="P" horiz-adv-x="455" d="M238 557q-12 6 -37 6q-48 0 -58 -15q-1 -1 -1 -11q0 -22 3 -69t5 -53q0 -2 24 0q121 13 125 75v9q0 9 -4 14t-19 17q-23 20 -38 27zM175 654q11 3 40 3h11q24 -1 35 -4.5t39 -18.5q63 -32 88 -81q13 -24 13 -67q0 -15 -2 -20q-23 -74 -84 -108q-48 -27 -109 -27 q-42 0 -45 -4q-2 -4 -2 -58v-38l1 -91l-13 -11q-15 -12 -34 -12q-24 0 -33 17q-7 12 -9.5 40t-7.5 141q-6 141 -9 187q-1 11 -1 29q0 46 23 61q2 1 7.5 6t11.5 9.5t10 8.5q31 28 70 38z" />
<glyph unicode="Q" horiz-adv-x="568" d="M225 521q-29 9 -31 9q-4 0 -15.5 -15.5t-17.5 -29.5q-15 -35 -15 -65q0 -7 2 -29q7 -47 37 -84q12 -14 39.5 -26.5t44.5 -12.5q12 0 12 7q0 10 -41 59q-14 17 -14 34q0 14 12 26q13 11 28 11q26 0 61 -32q25 -21 28 -21q7 0 7 35q0 17 -3 31q-6 28 -21 45t-48 33 q-35 18 -65 25zM184 609q23 5 39 5q30 0 98 -23q73 -25 106.5 -71.5t37.5 -123.5v-17q0 -61 -19 -99q-5 -12 -5 -18q0 -14 24 -41q16 -18 37 -47q10 -16 10 -21t-3 -15q-7 -21 -14.5 -27t-26.5 -6t-31 7.5t-49 42.5l-28 27l-27 -11q-26 -10 -45 -10q-14 0 -23 1 q-40 2 -81 22q-67 33 -98.5 86.5t-31.5 141.5q0 73 36.5 128.5t93.5 68.5z" />
<glyph unicode="R" horiz-adv-x="504" d="M244 573q-15 20 -39 20q-20 0 -46 -13q-18 -11 -18 -23q0 -1 2 -5q3 -7 5 -34q7 -84 14 -86h1q7 0 37.5 32t39.5 48q8 18 8 39q0 15 -4 22zM173 676q17 6 39 6q33 0 60 -11q18 -7 38 -26.5t22 -31.5q2 -13 8 -25t6 -34q0 -26 -9 -52q-15 -42 -77 -102l-25 -24l12 -9 q5 -4 55 -50q44 -40 83 -74q64 -54 64 -83q0 -15 -16 -31q-16 -14 -31 -14q-13 0 -25 9q-4 3 -14.5 10l-13.5 9q-31 20 -124 115q-46 48 -54 48q-4 0 -4 -12q0 -2 2 -36q4 -54 4 -65q0 -17 4 -35q1 -5 1 -11q0 -8 -13 -20q-14 -13 -26 -13q-6 0 -9 4q-2 3 -8 3h-5 q-13 0 -25 22q-11 21 -11 42q0 22 -5 24q-4 2 -6 65q-3 110 -14 221q-3 31 -3 62q0 30 3 42t41.5 37.5t75.5 39.5z" />
<glyph unicode="S" horiz-adv-x="450" d="M210 646q21 7 50 7h15q30 -1 41.5 -3.5t31.5 -13.5q40 -21 40 -41q0 -12 -11 -29q-13 -19 -26 -19q-10 0 -23 7t-39 13q-14 3 -25 3q-24 0 -40 -19q-11 -13 -11 -22q0 -16 61 -77q73 -73 96.5 -109.5t25.5 -81.5q1 -9 1 -22q0 -18 -11 -40q-10 -22 -19 -32.5t-29 -21.5 q-29 -18 -46.5 -23t-55.5 -7l-48 -3l-31 16q-54 28 -86 94q-16 32 -16 47q0 12 10 25q10 14 16 17.5t20 3.5q27 0 44 -31q25 -51 57 -66q23 -10 35 -10q10 0 29 8q26 12 26 26q0 11 -12 35q-11 23 -28.5 44t-80.5 86q-31 31 -43 53t-12 48q0 19 4 39q5 31 30.5 59t59.5 40z " />
<glyph unicode="T" horiz-adv-x="566" d="M308 667q35 2 86 2q66 0 82 -9q11 -7 22.5 -25t11.5 -29q0 -6 -17 -25q-11 -11 -16.5 -14t-16.5 -3h-11q-12 1 -40 1q-70 0 -78 -4q-4 -3 -8 -28t-7 -28q-5 -6 1 -15q4 -7 6 -55.5t3 -114.5l1 -65v-20q0 -29 -7 -41q-12 -25 -33 -25q-10 0 -26.5 9t-17.5 16 q-13 47 -15.5 70.5t-2.5 110.5q0 103 5 143q2 18 2 21q0 9 -3 12q-6 4 -57 4q-53 0 -62 3q-15 4 -31 18.5t-20 25.5q-3 8 -3 11q0 6 15 18q19 14 31 14q121 2 136 11q13 9 70 11z" />
<glyph unicode="U" horiz-adv-x="520" d="M389 628q16 8 28 8q32 0 44 -48q9 -33 9 -110q0 -49 -5 -94q-8 -65 -31.5 -126.5t-51.5 -90.5q-44 -47 -122 -61q-14 -3 -31 -3q-43 0 -69 15q-15 9 -43 40.5t-28 39.5q0 7 -7 19q-6 11 -18 50q-11 35 -11 101v52q0 152 19 187q3 6 16 11t25 5q7 0 9 -1q9 -1 18 -16 q6 -9 7.5 -27t1.5 -84q0 -107 8.5 -159.5t33.5 -103.5q15 -31 45 -31q13 0 20 2q20 5 35 12q16 8 35 35t32 61q19 50 19 167q0 45 -4 74q-4 36 -4 42q0 24 20 34z" />
<glyph unicode="V" horiz-adv-x="533" d="M418 625q18 8 25 8q5 0 16 -7q20 -14 20 -38q0 -18 -12 -44q-10 -19 -52 -124q-71 -177 -94 -208q-25 -32 -61 -32q-15 0 -34.5 11.5t-31.5 27.5q-11 15 -39.5 66.5t-30.5 61.5q-2 9 -12 28q-2 3 -24 62q-27 70 -31 109q0 3 -0.5 6.5t-0.5 4.5q0 11 13 24t24 13 q9 0 22 -4q11 -3 16 -9.5t18 -33.5q9 -20 44 -98t42 -93q5 -13 15 -25q7 -7 11 -7q8 0 21 33q12 31 17 39q7 12 7 17q0 3 17 41q3 7 16.5 37t19.5 44q22 50 32.5 66.5t26.5 23.5z" />
<glyph unicode="W" horiz-adv-x="738" d="M68 603q13 13 28 13q22 0 31 -16.5t23 -85.5q22 -107 26 -126q7 -41 17 -41q9 0 32 47q22 46 33 62t29 27q24 15 45 15q22 0 44 -16q21 -14 29 -26t37 -41q33 -35 44 -53q7 -11 12.5 -17t7.5 -5q5 1 20 56q38 139 58 178q12 24 25.5 33t35.5 9q16 0 23 -6t12 -23 q4 -11 4 -18t-3 -14q-9 -24 -17 -49t-15.5 -53.5l-12.5 -47.5t-13 -55.5t-12 -53.5q-10 -51 -24 -74q-6 -10 -25 -20.5t-37 -14.5q-3 -1 -9 -1q-21 0 -47.5 25t-77.5 93q-42 55 -51 66t-15 11q-5 0 -12 -11t-29 -53q-33 -63 -61 -88q-14 -12 -20.5 -15.5t-18.5 -3.5 q-20 0 -36.5 12t-23.5 31q-34 94 -46 179q-1 6 -9.5 51t-10.5 70l-3 37z" />
<glyph unicode="X" horiz-adv-x="519" d="M386 655q16 4 22 4q35 0 35 -40q0 -14 -7.5 -28.5t-40.5 -62.5q-14 -21 -69 -101q-20 -29 -20 -33q0 -5 29 -36q28 -30 50 -59q35 -47 43 -56q37 -49 37 -73q0 -10 -7 -24q-7 -13 -17 -17t-33 -4h-26l-31 33q-11 12 -46 51q-62 78 -69 78q-6 0 -30 -32t-39 -60 q-18 -32 -27 -41q-10 -10 -19 -10q-8 0 -13 1q-19 2 -25.5 8.5t-9.5 24.5q0 2 -0.5 5t-0.5 4q0 11 7 28q20 42 70 116q16 23 16 31t-16 29q-71 99 -88 150q-5 15 -5 19q0 6 4 13q7 13 14.5 17t27.5 4t29.5 -7t30.5 -36q56 -78 66 -82h2q7 0 19.5 13t21.5 30q3 7 20 29 q4 5 42 59q25 35 32.5 43t20.5 12z" />
<glyph unicode="Y" horiz-adv-x="538" d="M464 516q0 -6 -6.5 -20t-6.5 -21q0 -10 -11 -43q-11 -31 -27.5 -93t-25.5 -90q-40 -132 -54 -148q-11 -13 -31 -13t-34 13q-13 13 -13 24q0 19 32 118q16 50 16 66q0 4 -17 16t-36.5 24t-20.5 13q-14 12 -31 21q-15 9 -46.5 41t-42.5 50q-8 15 -12 16q-5 4 -23 39l-18 36 l9 16q8 16 25 23q12 5 20 5q18 0 44 -33q60 -75 110 -117q60 -49 73 -49h1q5 4 14 20.5t9 21.5q0 22 22 68q8 18 8 24q0 11 12 42t19 38q9 9 22 13q3 1 9 1q13 0 22 -9.5t9 -23.5q0 -6 -1 -9q0 -1 -4 -31q-1 -13 -8 -28q-7 -12 -7 -21z" />
<glyph unicode="Z" horiz-adv-x="588" d="M235 155q0 4 -4 4t-4 -4q0 -5 4 -5t4 5zM278 336q0 2 -2 2t-2 -2t2 -2t2 2zM257 631q60 5 90 5q73 0 92 -21q13 -13 13 -24t-15 -35q-19 -32 -37 -66q-11 -21 -21 -37t-17 -29q-2 -4 -19.5 -28t-19.5 -35q-1 -8 -9 -21q-16 -24 -44.5 -81t-28.5 -64q0 -4 40 -4q51 0 96 6 q12 2 37 2q29 0 45 -2q44 -4 58.5 -10.5t14.5 -24.5q0 -1 -0.5 -5t-0.5 -6q-2 -21 -8 -27q-6 -7 -21 -7q-9 0 -12 4q-2 4 -12.5 4t-12.5 -4q-3 -4 -129 -13q-59 -4 -83 -11q-23 -7 -62 -9h-8q-28 0 -40 6t-16 22q-2 12 -14 22q-10 9 -10 22q0 21 35 97q37 79 58.5 118 t72.5 116q21 31 21 40q0 6 -44 6q-27 0 -46 -1q-26 -1 -58 -1q-31 0 -48 8q-16 7 -27 19t-11 22t8 22t18 17q12 6 36 6q19 0 32 -1h25q49 0 82 3z" />
<glyph unicode="a" horiz-adv-x="468" d="M225 388q-18 5 -25 5q-12 0 -29 -17q-32 -32 -32 -78q0 -9 1 -13q3 -27 15 -46.5t26 -19.5q6 0 23.5 18t28.5 34q13 19 26 49.5t13 40.5q0 12 -47 27zM163 471q21 8 33 8q15 0 51 -12q34 -11 63.5 -29.5t38.5 -33.5q7 -13 16 -45t19.5 -79t14.5 -62q11 -41 11 -57v-12 q0 -6 2 -20t2 -21t-1 -11q-2 -12 -5.5 -15.5t-14.5 -5.5q-10 -2 -13 -2q-18 0 -33 28q-9 18 -23 62t-14 54q0 12 -11 17q-4 2 -6 -3q-1 -4 -20 -30q-46 -61 -99 -61q-27 0 -55 16q-25 14 -44 49q-22 42 -22 91q0 39 16 74q36 78 94 100z" />
<glyph unicode="b" horiz-adv-x="432" d="M257 371q-16 14 -21 14q-15 -1 -35 -16t-33 -36q-10 -15 -12 -24t-2 -34q0 -44 7 -54.5t40 -18.5q12 -2 14 -2q9 0 31 17q21 16 29.5 27t13.5 27q2 10 2 17q0 22 -9.5 46.5t-24.5 36.5zM57 599q5 8 17 14t23 6q7 0 12 -3q13 -7 17.5 -28.5t11.5 -108.5q4 -41 7 -46 q1 -1 3 -1q9 0 28 13q34 21 72 21q11 0 16 -1q45 -10 81 -61.5t36 -103.5q0 -7 -2 -19q-6 -32 -12 -45.5t-26 -38.5q-30 -37 -66.5 -58t-69.5 -21q-17 0 -32 6q-18 7 -49 9l-30 2l-9 20q-6 14 -12 61.5t-6 87.5q0 18 -7 98q-8 98 -8 146q0 41 5 51z" />
<glyph unicode="c" horiz-adv-x="437" d="M219 510q12 1 34 1h10q16 -2 43 -15.5t33 -22.5q5 -8 5 -21q0 -21 -10 -35q-7 -11 -24 -9q-16 2 -33 13q-13 9 -23 9q-9 0 -16 -1q-29 -5 -44.5 -15.5t-29.5 -36.5q-12 -22 -14.5 -32.5t-2.5 -38.5q0 -29 2.5 -38t13.5 -30q25 -45 56 -45q25 0 75 48q32 32 48 32 q10 0 24 -11q17 -13 17 -33q0 -16 -11 -28q-15 -17 -19 -27q-4 -8 -10.5 -15t-18 -15t-15.5 -12q-15 -11 -20 -11q-6 0 -20 -9q-15 -9 -48 -9q-40 0 -64 12q-43 21 -73 76t-30 112q0 42 19 87.5t47 71.5q48 44 99 48z" />
<glyph unicode="d" horiz-adv-x="475" d="M289 374q2 6 2 15q0 32 -41 37q-1 0 -3 0.5t-4 0.5q-23 0 -47.5 -22.5t-40.5 -57.5q-11 -25 -11 -38q0 -11 1 -18q3 -22 3 -36q0 -12 9.5 -19t24.5 -7q19 0 37 12q24 16 36 39t34 94zM303 666q10 10 27 10q28 0 39 -21q4 -7 12 -91t12 -155q0 -5 2 -19.5t2 -18.5 q26 -196 26 -232q0 -20 -11 -29q-11 -10 -33 -10q-19 0 -30 9q-18 16 -24 73q-4 26 -10 26q-5 0 -21 -14q-35 -32 -53 -42t-45 -10q-3 0 -9.5 0.5t-10.5 0.5q-37 2 -52.5 9.5t-36.5 35.5q-17 23 -23.5 39.5t-8.5 46.5q-1 6 -1 18q0 83 55 152q26 33 63.5 53t72.5 20 q7 0 21 -2q18 -4 22 0q2 2 2 20q0 21 -1 35q-2 32 -2 40q0 41 16 56z" />
<glyph unicode="e" horiz-adv-x="480" d="M98 347q0 4 -4 4t-4 -4t4 -4t4 4zM272 413q-17 18 -31 18q-8 0 -26 -5q-37 -11 -51 -37q-2 -3 -3 -6t-1 -5v-1q-8 -25 -8 -30q0 -11 46 -11q16 0 28 3q48 11 58 33q6 16 6 18q0 3 -18 23zM211 509q11 4 24 4q11 0 40 -6q20 -4 28.5 -9t25.5 -22q23 -23 33 -54 q8 -28 8 -42q0 -5 -1 -16t-1 -15q-1 -14 -19 -41t-32 -34q-39 -20 -109 -23q-38 -2 -42 -6q-3 -3 -3 -6q0 -12 24 -30q25 -19 38 -19q6 0 12 3q8 4 18 4q7 0 55 24q55 28 78 28q11 0 20 -6q16 -12 16 -31q0 -24 -24 -47q-14 -13 -49.5 -32t-53.5 -24q-21 -6 -30 -10 q-18 -8 -46 -8q-25 0 -45 6q-33 10 -79 68q-17 22 -30 64.5t-13 73.5q0 16 4 23q6 14 6 27q-1 13 3.5 29t11.5 21q7 6 8 17q3 12 32 39q21 20 35 28t57 22z" />
<glyph unicode="f" horiz-adv-x="436" d="M184 648q6 1 86 1q61 -2 80.5 -6t26.5 -19q3 -6 3 -17q0 -24 -9 -33q-13 -11 -47 -11q-8 0 -16 2t-19 2q-35 0 -88 -9t-59 -16q-1 -1 -1 -18q0 -31 3.5 -76.5t7.5 -49.5q2 -2 9 -2q9 0 31 3q13 2 29 2q9 0 11 -2q5 -5 23 -5t24.5 -8.5t6.5 -29.5q0 -22 -13.5 -30.5 t-59.5 -15.5q-43 -5 -50 -12q-7 -6 -7 -39q0 -10 1 -33.5t1 -35.5q0 -41 -8 -57q-7 -13 -11 -15t-21 -2q-18 0 -26 5.5t-14 22.5q-3 7 -9 74t-8 123q0 10 -2 38q-1 12 -5 118q-2 54 -2 63q0 32 5.5 41.5t25.5 18.5q30 14 101 28z" />
<glyph unicode="g" horiz-adv-x="487" d="M293 420q-4 7 -29 10l-24 3l-16 -21q-14 -18 -14 -29q0 -9 1 -15q6 -52 35 -52q9 0 14 2q35 12 53 47l12 22l-13 13q-16 16 -19 20zM141 444q0 21 35.5 49.5t66.5 28.5q44 0 73 -21q12 -8 21 -11q13 -4 19 -10t32 -8q25 -2 35 -15q8 -9 10 -19.5t3 -49.5q0 -5 0.5 -18 t0.5 -20q0 -62 -4.5 -129.5t-9.5 -80.5q-4 -12 -4 -29t-7 -26q-6 -10 -6 -17q0 -6 -6.5 -17.5t-6.5 -17.5q0 -5 -8.5 -17.5t-8.5 -16.5q0 -7 -19 -24t-38 -28t-29 -13.5t-38 -2.5t-38.5 2t-28.5 11q-60 31 -112 127q-19 34 -19 71q0 33 16 34q8 1 22 6q6 2 9 2q17 0 36 -39 q15 -29 43 -69q39 -53 69 -53q7 0 10 1q29 5 46 43.5t26 118.5q4 35 4 55q0 17 -7 17q-4 0 -16 -7q-18 -11 -26 -8q-11 2 -18 -2q-16 -8 -42 -8q-17 0 -34 5q-30 10 -51.5 44.5t-22.5 73.5v13q0 40 13 52q10 10 10 23z" />
<glyph unicode="h" horiz-adv-x="475" d="M334 632q13 10 25 10q13 0 26 -10l12 -9l6 -90q21 -344 21 -355q0 -5 0.5 -14t0.5 -13q0 -29 -6 -42t-23 -21q-10 -5 -15 -5q-4 0 -16 6q-22 11 -28 29t-7 75q-2 125 -10 135q-3 5 -27 3q-106 -8 -112 -14q-5 -5 -7 -78q-2 -61 -6.5 -79.5t-19.5 -25.5q-6 -3 -14 -3 q-14 0 -27.5 6.5t-17.5 15.5q-4 12 -4 87v75l-15 15q-15 15 -15 32t13 30l13 13l-1 95q0 16 -0.5 37t-0.5 26q0 32 8 43q19 26 37 26q14 0 30 -15l14 -13l4 -93q4 -94 5 -95q2 -2 29 -2q100 0 108 6q3 3 3 34v25v18q0 50 3 80q2 33 4 41t10 14z" />
<glyph unicode="i" horiz-adv-x="207" d="M84 436q10 8 21 8q13 0 24.5 -9t15.5 -23q12 -44 12 -201v-19q-1 -61 -6.5 -74.5t-31.5 -18.5q-4 -1 -12 -1q-32 0 -36 56q0 3 -2.5 36.5t-3.5 53.5q-4 56 -4 108q0 50 5 61q5 14 18 23zM71 634q12 13 27 11q13 -2 32 -10l17 -9v-26q0 -23 -7 -35.5t-25 -21.5 q-16 -8 -27 -8q-17 0 -26.5 14t-9.5 34q0 31 19 51z" />
<glyph unicode="j" horiz-adv-x="366" d="M228 438q16 7 22 7q12 0 26 -13q10 -10 13 -18t8 -39q19 -128 19 -225q0 -77 -16 -120t-53 -67q-23 -14 -46 -14q-12 0 -32 5q-25 7 -56 47.5t-49 90.5q-8 24 -8 28q0 5 5 15q9 19 27 19q7 0 12 -1q13 -2 23.5 -14.5t31.5 -49.5q18 -33 31 -46q7 -7 10 -7.5t9 6.5 q8 8 16 43q5 25 5 40q0 18 -6 90q-10 138 -11 143q-3 23 -3 37q0 31 22 43zM223 612q13 8 26 8q31 0 48 -31q6 -11 6 -15q0 -3 -5 -15q-15 -30 -48 -30t-48 30q-5 11 -5 15t5 14q8 16 21 24z" />
<glyph unicode="k" horiz-adv-x="543" d="M73 659q8 8 22 8q19 0 33 -14l11 -11v-111q0 -77 1 -94t5 -17q6 0 62 84q63 96 87 125t41 29q6 0 9 -1q10 -2 18 -13.5t8 -23.5q0 -4 -1 -7.5t-3 -8.5t-4.5 -9.5t-7.5 -12t-9 -13t-11 -17t-13 -19.5q-12 -18 -34 -54t-38 -57q-19 -24 -19 -33q0 -6 24 -32.5t48 -50.5 l24 -23q4 0 8 -13q6 -13 13 -15t67 -74.5t69 -89.5q3 -6 3 -15q0 -20 -12 -32q-9 -9 -27 -9q-15 0 -29 6q-11 4 -43 37.5t-55 63.5q-22 29 -60 70q-42 47 -42 50q0 4 -23 27.5t-27 23.5q-5 0 -7 8q-3 7 -5 7q-11 0 -11 -80v-19v-14q0 -60 -17 -60q-4 0 -13 7q-7 5 -9 5 q-5 0 -5 -8q0 -5 3 -12q4 -7 4 -14q0 -8 -9 -8q-4 0 -6 1q-21 5 -29 25t-8 68v43q0 18 -3 70q-3 53 -3 175q0 89 3.5 112.5t19.5 39.5z" />
<glyph unicode="l" horiz-adv-x="405" d="M78 671q13 8 24 8t19 -11q9 -12 7 -29q-2 -20 1 -21q5 -2 5 -49q0 -35 4 -121t4 -131v-25q0 -11 -0.5 -27t-0.5 -22q0 -29 4.5 -38t19.5 -9q4 0 15.5 1.5t17.5 1.5q42 3 47 6q2 1 8 1q9 0 72 -9q24 -3 24 -27q0 -25 -24 -37q-14 -7 -50 -7q-76 0 -141 -19q-18 -4 -29 -4 q-8 0 -12 1h-3q-19 3 -24 14q-7 17 -13 156v13q-3 83 -3 230q0 104 3 123.5t22 29.5q2 0 3 1z" />
<glyph unicode="m" horiz-adv-x="686" d="M176 316q0 -5 -9 -21t-9 -23q0 -9 -6 -33q-6 -23 -9 -46q-4 -45 -38 -45q-28 0 -36 20q-6 14 -12 79.5t-6 115.5q0 5 0.5 13t0.5 11q1 51 8 65t31 20q12 2 15 2q10 0 13 -8t5 -32q2 -32 8 -32q5 0 12 13q11 19 36.5 44t42.5 34q19 10 39 10h18q8 0 18 3q1 0 3 0.5t3 0.5 q7 0 30 -20q24 -22 27 -22q1 0 16 17q12 16 42 36t47 24q7 2 26 2q37 0 53 -8q10 -5 28 -24.5t25 -33.5q24 -46 24 -75q0 -10 6 -34q7 -24 7 -118q0 -72 -5 -89q-4 -12 -16 -19.5t-26 -7.5q-10 0 -18 4q-21 10 -24 137q-1 82 -8 106q-6 19 -9 35q-2 12 -14.5 27t-22.5 19 q-2 1 -7 1q-7 0 -27 -13q-24 -16 -43 -48q-16 -26 -22 -51t-8 -72q-1 -28 -8 -41t-23 -21q-8 -4 -13 -4q-6 0 -17 7q-14 9 -18.5 24t-4.5 51q0 133 -30 133q-15 0 -44 -33q-51 -62 -51 -80z" />
<glyph unicode="n" horiz-adv-x="444" d="M223 490q15 10 46 10q30 0 48 -12q37 -25 54.5 -82.5t21.5 -163.5q0 -6 0.5 -17t0.5 -16q0 -119 -35 -128q-12 -2 -29 3q-12 5 -16 9t-8 16q-4 16 -4 22q0 9 3 19q3 12 3 24q0 2 -0.5 5.5t-0.5 4.5q-1 7 -3 60q-1 45 -8 91.5t-14 59.5q-12 22 -24 22q-14 0 -34 -19 q-29 -26 -50 -71q-13 -26 -23 -111q-7 -58 -14 -72.5t-31 -19.5q-12 -2 -15 -2q-7 0 -17 10q-12 13 -13 47q0 8 -1.5 31.5t-3 59t-2.5 61.5q-3 64 -3 95t4 42t14 17q14 7 23 7q33 0 33 -55q0 -21 4 -21q8 0 30 24q28 30 38 34q14 7 26 16z" />
<glyph unicode="o" horiz-adv-x="489" d="M357 406q-10 12 -41.5 23t-56.5 13l-29 2l-34 -24q-54 -36 -60 -62q-4 -13 -11 -28q-6 -14 -6 -20q0 -7 4 -22q6 -22 21.5 -51t24.5 -36q7 -6 51 -6q42 0 62 11q45 23 67 68q13 25 15 73q1 14 1 32t-8 27zM257 507q6 4 15 4q22 0 54 -12q62 -23 86.5 -55.5t24.5 -91.5 v-16q-3 -67 -31 -111.5t-88 -79.5q-26 -15 -36 -17.5t-39 -4.5h-13q-67 0 -101 23q-16 11 -35 41t-29 60q-11 30 -11 48q0 10 1 17q6 67 54.5 127.5t113.5 61.5q28 0 34 6z" />
<glyph unicode="p" horiz-adv-x="425" d="M242 392q-15 12 -29 12q-27 0 -47 -43q-22 -48 -22 -73q0 -5 2 -7q3 -3 45 -24q35 -17 45 -17q4 0 12 2q15 5 26 18t11 41q0 31 -13 54q-11 22 -30 37zM168 469q25 13 48 13q17 0 38 -6q25 -8 57 -39q33 -31 47 -65q15 -36 15 -72q0 -38 -11 -60q-16 -31 -44.5 -51.5 t-60.5 -25.5q-1 0 -5 -0.5t-6 -0.5q-48 0 -83 21q-9 6 -15 6q-10 0 -11 -25q0 -5 -1.5 -28t-2.5 -36q-4 -80 -7 -94.5t-14 -25.5q-15 -13 -26 -13q-17 0 -29 24q-6 12 -6 84q0 83 8 176q2 24 7 76.5t5 57.5q6 64 9 67q4 4 18 12q12 6 29 -1q12 -5 15 -5q4 0 26 11z" />
<glyph unicode="q" horiz-adv-x="615" d="M250 390q-15 6 -25 6q-12 0 -36 -15q-35 -23 -45.5 -38.5t-10.5 -46.5q0 -22 7 -41t17 -23q8 -3 17 -3q19 0 39 10t30 25q2 3 11.5 15t15 22t5.5 19q0 11 7 27q6 11 5.5 15t-8.5 11q-9 9 -29 17zM170 457q33 16 45 16q2 0 6.5 -0.5t7.5 -0.5q48 -4 89 -35q21 -15 37 -48 l15 -31l-1 -156v-53q0 -67 1.5 -85.5t7.5 -18.5q5 0 20 13q3 3 24 18t33 25q48 36 70 36q11 0 21 -6q12 -8 12 -14q0 -1 -1 -7.5t-1 -12.5q0 -15 -11 -22q-43 -26 -131 -108q-43 -42 -53 -48q-11 -7 -23 -7q-11 0 -25 7q-17 10 -20.5 30.5t-3.5 117.5q0 127 -9 127 q-3 0 -8 -5q-12 -10 -43 -22t-49 -14h-8q-38 0 -68 24t-41 64q-9 30 -9 57q0 101 116 159z" />
<glyph unicode="r" horiz-adv-x="439" d="M86 497q16 3 22 -3q5 -5 11.5 -30t6.5 -43t6 -18q5 0 34 27q31 30 49 37.5t60 9.5h20q30 0 49 -7q22 -8 28 -13t6 -14q0 -11 5 -19q2 -3 2 -9q0 -16 -24 -27q-12 -5 -15 -5q-6 0 -19 6q-25 12 -49 12q-15 0 -31 -7q-22 -11 -34 -24t-26 -41q-13 -26 -16.5 -40t-6.5 -52 q-5 -54 -9 -70.5t-16 -22.5t-22 -6q-13 0 -20 9q-9 9 -12 20t-10 54q-12 73 -15 118q-1 15 -3 25.5t-3 21.5t-1 34q0 44 6.5 59.5t26.5 17.5z" />
<glyph unicode="s" horiz-adv-x="425" d="M141 491q39 39 98 39q28 0 55 -10q28 -11 47.5 -29t19.5 -32q0 -25 -17 -33q-10 -6 -21 -6q-12 0 -22 8q-23 18 -52 23q-1 0 -3 0.5t-4 0.5q-14 0 -29 -6t-19 -14q-4 -7 -4 -13q0 -9 14 -20.5t57 -39.5q55 -36 82 -81q18 -30 27 -70q2 -14 2 -17q0 -11 -7 -29 q-9 -25 -19 -32q-5 -4 -14.5 -10.5t-15 -10t-15.5 -8t-23 -8.5q-30 -10 -46 -10q-11 0 -18 1q-33 4 -43 10q-14 7 -34 24t-22 24q-3 8 -8 8q-8 0 -27 23t-23 38q-3 12 -3 19q0 12 17 21q10 5 18 5q21 0 63 -42q30 -30 45.5 -40.5t31.5 -10.5t31 7t20 17q3 6 3 10t-8 23 q-20 42 -44 58q-64 42 -83 58.5t-30 39.5q-12 22 -12 45q0 37 35 70z" />
<glyph unicode="t" horiz-adv-x="485" d="M200 596q14 12 25 10q18 -4 18 -20q0 -6 6 -12q6 -4 6 -31v-14v-17q0 -25 4 -29q5 -6 66 -9q50 -2 65 -5.5t22 -18.5q6 -12 6 -19q0 -9 -12 -23q-15 -18 -40 -18q-14 0 -24 6q-15 7 -25 0q-9 -6 -21 -6q-6 0 -10 1q-19 3 -25 -3q-5 -5 -5 -24q0 -39 17 -121q7 -33 11 -44 t14 -20q5 -5 8 -5t19 13q20 18 26 30q17 32 48 32q14 0 23 -9t9 -25t-4 -28q-6 -15 -31.5 -45.5t-41.5 -41.5q-24 -17 -53 -17q-55 0 -86 60q-13 26 -24.5 93t-11.5 120q0 36 -6 41q-5 5 -49 9q-45 4 -55 14q-13 13 -13 30q0 11 6 17q16 16 71 16q3 0 8.5 -0.5t8.5 -0.5 q7 -1 17 -1q13 0 14 3q4 6 4 52l1 47z" />
<glyph unicode="u" horiz-adv-x="472" d="M83 472q8 5 13 5q9 0 25 -16l14 -13v-60q0 -135 36 -159q8 -5 15 -5q14 0 36 21q32 29 46.5 63t21.5 92q5 38 7.5 48t10.5 19q12 13 30 13q15 0 26 -10l11 -11l1 -119q0 -86 2 -106.5t10 -42.5q10 -27 20 -48q9 -18 9 -28q0 -7 -5 -19q-12 -27 -32 -27q-22 0 -43 25 t-34 68q-7 26 -16 26q-5 0 -23 -16q-38 -34 -81 -34q-70 0 -108 81q-21 47 -21 139v25q1 44 6.5 61.5t22.5 27.5z" />
<glyph unicode="v" horiz-adv-x="437" d="M328 510q13 7 25 7q30 0 30 -34q0 -13 -6 -28q-13 -27 -68 -215q-7 -26 -20 -57t-21 -40q-25 -25 -48 -25q-37 0 -65 65q-61 143 -82 183q-18 38 -18 67q0 13 4 20q9 16 34 16q10 0 17 -4q12 -7 16 -16q1 -3 26 -51q12 -19 21.5 -43.5t18.5 -37.5q11 -16 16 -32 q10 -23 19 -23q3 0 3 6q0 7 27.5 89.5t36.5 103.5q11 27 17 35.5t17 13.5z" />
<glyph unicode="w" horiz-adv-x="587" d="M477 515q11 9 19 9q11 0 34 -22q6 -5 6 -25q0 -24 -11 -96q-18 -117 -39 -160q-7 -13 -25.5 -31.5t-32.5 -26.5q-13 -7 -29 -7q-18 0 -62 18q-9 4 -28 25.5t-32 42.5q-3 5 -7 5q-9 0 -20 -23q-12 -27 -33 -43.5t-43 -16.5q-2 0 -4 0.5t-4 0.5q-72 9 -98 99 q-14 56 -14 147q0 3 0.5 8.5t0.5 6.5q1 4 2.5 14.5t3 17.5t4.5 14.5t7.5 11.5t10.5 4q12 0 26 -5.5t17 -12.5q5 -9 9 -82q6 -135 31 -135q14 0 45 69q20 44 32.5 58t32.5 14q25 0 40.5 -16t35.5 -65q24 -59 39 -59q2 0 3 1q11 7 22 44.5t30 132.5q14 69 31 83z" />
<glyph unicode="x" horiz-adv-x="471" d="M104 501q9 8 29 8q18 0 36 -19t28 -35q14 -24 48 -62q3 -3 5 -3q6 0 45 40q34 36 47.5 46t32.5 14q3 1 9 1q7 0 20 -10t13 -19q0 -1 -0.5 -4t-0.5 -5q-3 -18 -35 -52q-74 -77 -74 -89q0 -11 21 -44q37 -60 41 -86q1 -5 1 -11q0 -10 -8 -18q-12 -14 -32 -14q-8 0 -15 3 q-12 5 -39 39q-36 46 -42 46q-8 0 -82 -89q-33 -38 -60 -45q-11 -2 -25 9q-12 11 -12 18q0 6 1 10q4 28 85 126q42 51 42 54q0 2 -41 64t-46 73q-5 12 -5 22q0 21 13 32z" />
<glyph unicode="y" horiz-adv-x="453" d="M331 555q11 12 24 12h9h5h11t5.5 -1.5t3 -3t2.5 -6.5t4 -9q4 -14 4 -18q0 -13 -12 -57q-4 -13 -8 -29t-6.5 -24t-2.5 -9q-7 -10 -24 -82q-4 -17 -34 -114t-34 -113q-12 -53 -20.5 -73t-22.5 -29q-13 -9 -21 -9q-9 0 -29 14l-15 11l3 29q1 21 9.5 48.5t10.5 38.5 q6 44 37 125q7 15 4 26q-2 6 -34 29q-36 25 -60.5 50t-50.5 64q-33 48 -33 67q0 9 6 21q11 22 44 22q21 0 83 -77q55 -68 73 -68q7 0 32 75q27 80 37 90z" />
<glyph unicode="z" horiz-adv-x="470" d="M210 499q1 1 6 1q20 0 45 -10q36 -14 36 -63q0 -23 -3 -34.5t-16 -36.5q-10 -20 -22 -38t-30 -42t-24 -33q-15 -21 -15 -27q0 -1 1 -2q2 -2 18 -2q24 0 76 3q48 3 81 3q18 0 20 -1q14 -4 23 -14.5t9 -24.5q0 -15 -4.5 -23t-19.5 -17q-21 -12 -73.5 -20.5t-101.5 -8.5 q-39 0 -55 5q-20 5 -38 9q-24 4 -39 22t-15 40q0 17 10 33q10 18 35 48q52 66 83 123q3 6 3 10q0 9 -24 9q-5 0 -31 -2q-32 -2 -35 -2q-15 0 -30 6q-19 9 -24 24q-2 5 -2 13q0 36 100 45q55 6 56 7z" />
<glyph unicode="&#xad;" d="M236 351q14 4 30 4h2q28 0 45.5 -14t17.5 -33q0 -24 -26 -37q-12 -6 -67 -13t-62 -9q-16 -2 -28 -2q-44 0 -70 12q-14 6 -22 24q-5 12 -5 15q0 4 9 16q15 19 28.5 23.5t67.5 6.5q69 4 80 7z" />
<glyph unicode="&#x2000;" horiz-adv-x="369" />
<glyph unicode="&#x2001;" horiz-adv-x="739" />
<glyph unicode="&#x2002;" horiz-adv-x="369" />
<glyph unicode="&#x2003;" horiz-adv-x="739" />
<glyph unicode="&#x2004;" horiz-adv-x="246" />
<glyph unicode="&#x2005;" horiz-adv-x="184" />
<glyph unicode="&#x2006;" horiz-adv-x="123" />
<glyph unicode="&#x2007;" horiz-adv-x="123" />
<glyph unicode="&#x2008;" horiz-adv-x="92" />
<glyph unicode="&#x2009;" horiz-adv-x="147" />
<glyph unicode="&#x200a;" horiz-adv-x="41" />
<glyph unicode="&#x2010;" d="M236 351q14 4 30 4h2q28 0 45.5 -14t17.5 -33q0 -24 -26 -37q-12 -6 -67 -13t-62 -9q-16 -2 -28 -2q-44 0 -70 12q-14 6 -22 24q-5 12 -5 15q0 4 9 16q15 19 28.5 23.5t67.5 6.5q69 4 80 7z" />
<glyph unicode="&#x2011;" d="M236 351q14 4 30 4h2q28 0 45.5 -14t17.5 -33q0 -24 -26 -37q-12 -6 -67 -13t-62 -9q-16 -2 -28 -2q-44 0 -70 12q-14 6 -22 24q-5 12 -5 15q0 4 9 16q15 19 28.5 23.5t67.5 6.5q69 4 80 7z" />
<glyph unicode="&#x2012;" d="M236 351q14 4 30 4h2q28 0 45.5 -14t17.5 -33q0 -24 -26 -37q-12 -6 -67 -13t-62 -9q-16 -2 -28 -2q-44 0 -70 12q-14 6 -22 24q-5 12 -5 15q0 4 9 16q15 19 28.5 23.5t67.5 6.5q69 4 80 7z" />
<glyph unicode="&#x2013;" horiz-adv-x="604" d="M381 351q25 4 54 4h3q50 0 81.5 -14t31.5 -33q0 -24 -46 -37q-22 -6 -120 -13t-111 -9q-28 -2 -50 -2q-78 0 -125 12q-25 6 -39 24q-9 12 -9 15q0 4 16 16q27 19 51 23.5t120 6.5q124 4 143 7z" />
<glyph unicode="&#x2014;" horiz-adv-x="1104" d="M712 351q50 4 107 4h7q100 0 162.5 -14t62.5 -33q0 -24 -93 -37q-43 -6 -239.5 -13t-221.5 -9q-57 -2 -100 -2q-157 0 -250 12q-50 6 -78 24q-18 12 -18 15q0 4 32 16q54 19 102 23.5t241 6.5q246 4 286 7z" />
<glyph unicode="&#x202f;" horiz-adv-x="147" />
<glyph unicode="&#x205f;" horiz-adv-x="184" />
<glyph unicode="&#x25fc;" horiz-adv-x="510" d="M0 510h510v-510h-510v510z" />
</font>
</defs>
</svg>
